<svg width="40" height="40" viewBox="0 0 40 40" fill="none" xmlns="http://www.w3.org/2000/svg">
<path d="M8.87988 19.722C8.87988 15.5287 8.87988 13.4315 10.1831 12.1294C11.4864 10.8273 13.5824 10.8262 17.7757 10.8262H22.2236C26.4169 10.8262 28.5141 10.8262 29.8162 12.1294C31.1184 13.4327 31.1195 15.5287 31.1195 19.722V21.946C31.1195 26.1392 31.1195 28.2364 29.8162 29.5386C28.513 30.8407 26.4169 30.8418 22.2236 30.8418H17.7757C13.5824 30.8418 11.4853 30.8418 10.1831 29.5386C8.88099 28.2353 8.87988 26.1392 8.87988 21.946V19.722Z" stroke="black" stroke-width="1.5"/>
<path d="M14.4395 10.8257V9.15771M25.5592 10.8257V9.15771M9.43555 16.3856H30.5632" stroke="black" stroke-width="1.5" stroke-linecap="round"/>
<path d="M26.6719 25.2821C26.6719 25.577 26.5547 25.8598 26.3462 26.0684C26.1376 26.2769 25.8548 26.394 25.5599 26.394C25.265 26.394 24.9821 26.2769 24.7736 26.0684C24.5651 25.8598 24.4479 25.577 24.4479 25.2821C24.4479 24.9871 24.5651 24.7043 24.7736 24.4958C24.9821 24.2872 25.265 24.1701 25.5599 24.1701C25.8548 24.1701 26.1376 24.2872 26.3462 24.4958C26.5547 24.7043 26.6719 24.9871 26.6719 25.2821ZM26.6719 20.8341C26.6719 21.1291 26.5547 21.4119 26.3462 21.6204C26.1376 21.829 25.8548 21.9461 25.5599 21.9461C25.265 21.9461 24.9821 21.829 24.7736 21.6204C24.5651 21.4119 24.4479 21.1291 24.4479 20.8341C24.4479 20.5392 24.5651 20.2564 24.7736 20.0479C24.9821 19.8393 25.265 19.7222 25.5599 19.7222C25.8548 19.7222 26.1376 19.8393 26.3462 20.0479C26.5547 20.2564 26.6719 20.5392 26.6719 20.8341ZM21.112 25.2821C21.112 25.577 20.9948 25.8598 20.7863 26.0684C20.5778 26.2769 20.2949 26.394 20 26.394C19.7051 26.394 19.4222 26.2769 19.2137 26.0684C19.0052 25.8598 18.888 25.577 18.888 25.2821C18.888 24.9871 19.0052 24.7043 19.2137 24.4958C19.4222 24.2872 19.7051 24.1701 20 24.1701C20.2949 24.1701 20.5778 24.2872 20.7863 24.4958C20.9948 24.7043 21.112 24.9871 21.112 25.2821ZM21.112 20.8341C21.112 21.1291 20.9948 21.4119 20.7863 21.6204C20.5778 21.829 20.2949 21.9461 20 21.9461C19.7051 21.9461 19.4222 21.829 19.2137 21.6204C19.0052 21.4119 18.888 21.1291 18.888 20.8341C18.888 20.5392 19.0052 20.2564 19.2137 20.0479C19.4222 19.8393 19.7051 19.7222 20 19.7222C20.2949 19.7222 20.5778 19.8393 20.7863 20.0479C20.9948 20.2564 21.112 20.5392 21.112 20.8341ZM15.5521 25.2821C15.5521 25.577 15.4349 25.8598 15.2264 26.0684C15.0179 26.2769 14.735 26.394 14.4401 26.394C14.1452 26.394 13.8624 26.2769 13.6538 26.0684C13.4453 25.8598 13.3281 25.577 13.3281 25.2821C13.3281 24.9871 13.4453 24.7043 13.6538 24.4958C13.8624 24.2872 14.1452 24.1701 14.4401 24.1701C14.735 24.1701 15.0179 24.2872 15.2264 24.4958C15.4349 24.7043 15.5521 24.9871 15.5521 25.2821ZM15.5521 20.8341C15.5521 21.1291 15.4349 21.4119 15.2264 21.6204C15.0179 21.829 14.735 21.9461 14.4401 21.9461C14.1452 21.9461 13.8624 21.829 13.6538 21.6204C13.4453 21.4119 13.3281 21.1291 13.3281 20.8341C13.3281 20.5392 13.4453 20.2564 13.6538 20.0479C13.8624 19.8393 14.1452 19.7222 14.4401 19.7222C14.735 19.7222 15.0179 19.8393 15.2264 20.0479C15.4349 20.2564 15.5521 20.5392 15.5521 20.8341Z" fill="black"/>
</svg>
