<svg width="32" height="32" viewBox="0 0 32 32" fill="none" xmlns="http://www.w3.org/2000/svg">
<g clip-path="url(#clip0_1741_3624)">
<path fill-rule="evenodd" clip-rule="evenodd" d="M21.96 32V19.608H26.12L26.7424 14.7792H21.9584V11.696C21.9584 10.2976 22.3472 9.344 24.3536 9.344H26.9104V5.024C25.6723 4.89097 24.4277 4.82687 23.1824 4.832C19.496 4.832 16.9728 7.0832 16.9728 11.216V14.7792H12.8V19.608H16.9712V32H1.7664C0.7904 32 0 31.2096 0 30.2336V1.7664C0 0.7904 0.7904 0 1.7664 0H30.2336C31.2096 0 32 0.7904 32 1.7664V30.2336C32 31.2096 31.2096 32 30.2336 32H21.96Z" fill="black"/>
</g>
<defs>
<clipPath id="clip0_1741_3624">
<rect width="32" height="32" rx="7" fill="white"/>
</clipPath>
</defs>
</svg>
