<svg width="40" height="40" viewBox="0 0 40 40" fill="none" xmlns="http://www.w3.org/2000/svg">
<path d="M15.4478 7.25488C14.7234 7.25488 14.0288 7.54262 13.5166 8.0548C13.0044 8.56698 12.7167 9.26165 12.7167 9.98598H11.3511C10.7475 9.98598 10.1686 10.2258 9.7418 10.6526C9.31498 11.0794 9.0752 11.6583 9.0752 12.2619V15.9034C9.07521 16.9504 9.47616 17.9578 10.1957 18.7185C10.9153 19.4792 11.8988 19.9355 12.9442 19.9936C13.3091 21.4072 14.0898 22.6788 15.1853 23.6437C16.2809 24.6086 17.6409 25.2224 19.0892 25.4057V27.2829H15.9029C15.0579 27.2829 14.2474 27.6186 13.6499 28.2162C13.0524 28.8137 12.7167 29.6241 12.7167 30.4692V31.3796C12.7167 31.7417 12.8605 32.0891 13.1166 32.3452C13.3727 32.6012 13.72 32.7451 14.0822 32.7451H25.917C26.2791 32.7451 26.6265 32.6012 26.8825 32.3452C27.1386 32.0891 27.2825 31.7417 27.2825 31.3796V30.4692C27.2825 29.6241 26.9468 28.8137 26.3493 28.2162C25.7517 27.6186 24.9413 27.2829 24.0962 27.2829H20.9099V25.4057C22.3583 25.2224 23.7183 24.6086 24.8138 23.6437C25.9094 22.6788 26.6901 21.4072 27.0549 19.9936C28.1004 19.9355 29.0839 19.4792 29.8035 18.7185C30.523 17.9578 30.924 16.9504 30.924 15.9034V12.2619C30.924 11.6583 30.6842 11.0794 30.2574 10.6526C29.8306 10.2258 29.2517 9.98598 28.6481 9.98598H27.2825C27.2825 9.26165 26.9948 8.56698 26.4826 8.0548C25.9704 7.54262 25.2757 7.25488 24.5514 7.25488H15.4478ZM27.2825 11.8067H28.6481C28.7688 11.8067 28.8846 11.8547 28.9699 11.94C29.0553 12.0254 29.1032 12.1412 29.1032 12.2619V15.9034C29.1033 16.428 28.9222 16.9366 28.5904 17.3431C28.2586 17.7495 27.7966 18.0288 27.2825 18.1337V11.8067ZM12.7167 18.1337C12.2026 18.0288 11.7406 17.7495 11.4088 17.3431C11.077 16.9366 10.8958 16.428 10.8959 15.9034V12.2619C10.8959 12.1412 10.9439 12.0254 11.0292 11.94C11.1146 11.8547 11.2304 11.8067 11.3511 11.8067H12.7167V18.1337ZM14.5374 9.98598C14.5374 9.74454 14.6333 9.51298 14.804 9.34225C14.9748 9.17153 15.2063 9.07561 15.4478 9.07561H24.5514C24.7929 9.07561 25.0244 9.17153 25.1951 9.34225C25.3659 9.51298 25.4618 9.74454 25.4618 9.98598V18.1793C25.4618 19.6279 24.8863 21.0173 23.8619 22.0416C22.8376 23.066 21.4482 23.6415 19.9996 23.6415C18.5509 23.6415 17.1616 23.066 16.1372 22.0416C15.1129 21.0173 14.5374 19.6279 14.5374 18.1793V9.98598ZM14.5374 30.4692C14.5374 30.107 14.6813 29.7597 14.9373 29.5036C15.1934 29.2475 15.5408 29.1037 15.9029 29.1037H24.0962C24.4584 29.1037 24.8057 29.2475 25.0618 29.5036C25.3179 29.7597 25.4618 30.107 25.4618 30.4692V30.9244H14.5374V30.4692Z" fill="black"/>
</svg>
