<svg width="40" height="40" viewBox="0 0 40 40" fill="none" xmlns="http://www.w3.org/2000/svg">
<path fill-rule="evenodd" clip-rule="evenodd" d="M12.4934 9.49023C12.0287 9.49023 11.583 9.67484 11.2544 10.0034C10.9258 10.332 10.7412 10.7777 10.7412 11.2424V26.0182C11.2537 25.6905 11.852 25.5105 12.4693 25.5059C12.4773 25.5057 12.4853 25.5056 12.4934 25.5056H29.2587V9.49089L29.2585 9.49043L29.2581 9.49023H12.4934ZM9.24121 11.2424V28.7578V28.758C9.24121 29.6206 9.58385 30.4478 10.1938 31.0577C10.8037 31.6676 11.6309 32.0102 12.4934 32.0102L12.5145 32.0099H30.0087C30.4229 32.0099 30.7587 31.6742 30.7587 31.2599C30.7587 30.8457 30.4229 30.5099 30.0087 30.5099H12.4934L12.4758 30.5102C12.0174 30.5055 11.5789 30.3215 11.2544 29.997C10.9258 29.6684 10.7412 29.2228 10.7412 28.758C10.7412 28.2933 10.9258 27.8477 11.2544 27.5191C11.583 27.1905 12.0287 27.0059 12.4934 27.0059L12.5145 27.0056H30.0087C30.4229 27.0056 30.7587 26.6698 30.7587 26.2556C30.7587 26.1939 30.7513 26.134 30.7373 26.0767C30.7513 26.0193 30.7587 25.9594 30.7587 25.8978V9.49089C30.7587 9.09289 30.6006 8.7112 30.3192 8.42977C30.0378 8.14834 29.6561 7.99023 29.2581 7.99023H12.4934C11.6309 7.99023 10.8037 8.33287 10.1938 8.94278C9.58385 9.55268 9.24121 10.3799 9.24121 11.2424ZM16.2466 12.9951C15.8324 12.9951 15.4966 13.3309 15.4966 13.7451C15.4966 14.1593 15.8324 14.4951 16.2466 14.4951H23.7532C24.1674 14.4951 24.5032 14.1593 24.5032 13.7451C24.5032 13.3309 24.1674 12.9951 23.7532 12.9951H16.2466Z" fill="black"/>
</svg>
