<svg width="40" height="40" viewBox="0 0 40 40" fill="none" xmlns="http://www.w3.org/2000/svg">
<path d="M20.5691 8.39226C20.4294 8.24994 20.2619 8.13783 20.0771 8.06287C19.8923 7.98791 19.6941 7.95169 19.4947 7.95647C19.2954 7.96125 19.0991 8.00692 18.9181 8.09065C18.7371 8.17439 18.5752 8.29439 18.4425 8.44324L9.44517 18.5213C9.20687 18.7883 9.07518 19.1336 9.0752 19.4914V30.5877C9.0752 30.974 9.22866 31.3445 9.50182 31.6176C9.77498 31.8908 10.1455 32.0443 10.5318 32.0443H14.9015C15.2878 32.0443 15.6583 31.8908 15.9315 31.6176C16.2047 31.3445 16.3581 30.974 16.3581 30.5877V25.4896C16.3581 25.1033 16.5116 24.7328 16.7847 24.4597C17.0579 24.1865 17.4284 24.0331 17.8147 24.0331H22.1844C22.5708 24.0331 22.9412 24.1865 23.2144 24.4597C23.4876 24.7328 23.641 25.1033 23.641 25.4896V30.5877C23.641 30.974 23.7945 31.3445 24.0677 31.6176C24.3408 31.8908 24.7113 32.0443 25.0976 32.0443H29.4674C29.8537 32.0443 30.2242 31.8908 30.4973 31.6176C30.7705 31.3445 30.9239 30.974 30.9239 30.5877V19.5308C30.9235 19.1493 30.7734 18.7832 30.5059 18.5111L20.5691 8.39226Z" stroke="black" stroke-width="1.5"/>
</svg>
