<svg width="40" height="40" viewBox="0 0 40 40" fill="none" xmlns="http://www.w3.org/2000/svg">
<path d="M10.8913 14.2033C10.8913 13.215 11.2839 12.2672 11.9827 11.5684C12.6815 10.8695 13.6293 10.4769 14.6176 10.4769C15.6059 10.4769 16.5537 10.8695 17.2525 11.5684C17.9514 12.2672 18.344 13.215 18.344 14.2033C18.344 15.1916 17.9514 16.1394 17.2525 16.8382C16.5537 17.537 15.6059 17.9296 14.6176 17.9296C13.6293 17.9296 12.6815 17.537 11.9827 16.8382C11.2839 16.1394 10.8913 15.1916 10.8913 14.2033ZM14.6176 8.8208C13.1901 8.8208 11.821 9.38788 10.8116 10.3973C9.80223 11.4067 9.23515 12.7758 9.23515 14.2033C9.23515 15.6308 9.80223 16.9999 10.8116 18.0093C11.821 19.0187 13.1901 19.5858 14.6176 19.5858C16.0451 19.5858 17.4142 19.0187 18.4236 18.0093C19.433 16.9999 20.0001 15.6308 20.0001 14.2033C20.0001 12.7758 19.433 11.4067 18.4236 10.3973C17.4142 9.38788 16.0451 8.8208 14.6176 8.8208ZM24.0361 28.1066C24.9271 28.471 26.0483 28.6946 27.4528 28.6946C30.568 28.6946 32.2904 27.5883 33.1979 26.3196C33.6725 25.6545 33.9694 24.8792 34.0608 24.0673C34.0689 23.9919 34.0744 23.9162 34.0773 23.8404V23.7261C34.0773 23.3999 34.0131 23.0769 33.8882 22.7755C33.7634 22.4741 33.5804 22.2002 33.3497 21.9695C33.1191 21.7388 32.8452 21.5558 32.5438 21.431C32.2424 21.3062 31.9194 21.2419 31.5931 21.2419H23.9252C24.3226 21.7222 24.6207 22.2836 24.7946 22.898H31.5931C31.8127 22.898 32.0234 22.9853 32.1787 23.1406C32.334 23.2959 32.4212 23.5065 32.4212 23.7261V23.8156L32.4129 23.8984C32.3507 24.4238 32.1571 24.925 31.8498 25.3558C31.3083 26.1159 30.1324 27.0384 27.4528 27.0384C26.2405 27.0384 25.3362 26.8496 24.6588 26.573C24.523 27.0368 24.326 27.5601 24.0361 28.1066ZM5.92285 24.5542C5.92285 23.6757 6.27182 22.8332 6.893 22.2121C7.51418 21.5909 8.35667 21.2419 9.23515 21.2419H20.0001C20.8786 21.2419 21.7211 21.5909 22.3422 22.2121C22.9634 22.8332 23.3124 23.6757 23.3124 24.5542V24.6933L23.3091 24.7596L23.2925 24.9831C23.1751 26.0564 22.7939 27.084 22.1829 27.9741C21.0219 29.6551 18.7795 31.1788 14.6176 31.1788C10.4557 31.1788 8.2133 29.6551 7.05234 27.9758C6.44106 27.0852 6.05984 26.057 5.94273 24.9831C5.93328 24.8867 5.92665 24.7901 5.92285 24.6933V24.5542ZM7.579 24.6536V24.6834L7.59059 24.8208C7.68046 25.6147 7.96365 26.3744 8.41535 27.0334C9.2219 28.1994 10.9128 29.5226 14.6176 29.5226C18.3224 29.5226 20.0133 28.1994 20.8199 27.0334C21.2716 26.3744 21.5548 25.6147 21.6447 24.8208C21.6513 24.7579 21.6546 24.7121 21.6546 24.6834L21.6562 24.6552V24.5542C21.6562 24.115 21.4818 23.6937 21.1712 23.3831C20.8606 23.0725 20.4393 22.898 20.0001 22.898H9.23515C8.79591 22.898 8.37466 23.0725 8.06407 23.3831C7.75348 23.6937 7.579 24.115 7.579 24.5542V24.6536ZM24.9685 15.4454C24.9685 14.7865 25.2303 14.1547 25.6961 13.6888C26.162 13.2229 26.7939 12.9612 27.4528 12.9612C28.1116 12.9612 28.7435 13.2229 29.2094 13.6888C29.6753 14.1547 29.937 14.7865 29.937 15.4454C29.937 16.1042 29.6753 16.7361 29.2094 17.202C28.7435 17.6679 28.1116 17.9296 27.4528 17.9296C26.7939 17.9296 26.162 17.6679 25.6961 17.202C25.2303 16.7361 24.9685 16.1042 24.9685 15.4454ZM27.4528 11.305C26.3547 11.305 25.3015 11.7412 24.5251 12.5177C23.7486 13.2942 23.3124 14.3473 23.3124 15.4454C23.3124 16.5435 23.7486 17.5966 24.5251 18.3731C25.3015 19.1495 26.3547 19.5858 27.4528 19.5858C28.5509 19.5858 29.604 19.1495 30.3804 18.3731C31.1569 17.5966 31.5931 16.5435 31.5931 15.4454C31.5931 14.3473 31.1569 13.2942 30.3804 12.5177C29.604 11.7412 28.5509 11.305 27.4528 11.305Z" fill="black"/>
</svg>
