<svg width="40" height="40" viewBox="0 0 40 40" fill="none" xmlns="http://www.w3.org/2000/svg">
<path d="M20.0005 7.36862C14.7978 7.36862 11.1245 11.1143 11.1245 15.7243C11.1245 17.8218 11.9875 19.2365 13.0704 20.5857C13.3052 20.8793 13.5442 21.1619 13.79 21.4528L13.9211 21.6057C14.2079 21.9471 14.5042 22.2994 14.7814 22.6626C15.3331 23.3877 15.8506 24.203 16.1401 25.167C16.211 25.4249 16.1783 25.7002 16.0489 25.9342C15.9195 26.1682 15.7037 26.3423 15.4476 26.4193C15.1916 26.4964 14.9156 26.4702 14.6785 26.3464C14.4415 26.2227 14.2623 26.0111 14.1792 25.757C13.9907 25.1288 13.6371 24.5416 13.1509 23.9039C12.8944 23.5722 12.6294 23.2471 12.3562 22.9289L12.2306 22.7787C11.9848 22.4892 11.7253 22.1833 11.4727 21.8679C10.2642 20.3631 9.07617 18.4991 9.07617 15.723C9.07617 9.91262 13.7395 5.32031 20.0005 5.32031C26.2615 5.32031 30.9248 9.91125 30.9248 15.7243C30.9248 18.4991 29.7368 20.3631 28.5283 21.8693C28.2756 22.1833 28.0162 22.4892 27.7704 22.7801L27.6448 22.9289C27.358 23.2676 27.0917 23.5858 26.85 23.9039C26.3639 24.5416 26.0102 25.1302 25.8218 25.757C25.7346 26.0063 25.5546 26.2124 25.3193 26.3323C25.0839 26.4522 24.8114 26.4767 24.5584 26.4007C24.3055 26.3246 24.0916 26.1539 23.9614 25.9241C23.8312 25.6943 23.7947 25.4231 23.8595 25.167C24.1503 24.203 24.6679 23.3877 25.2209 22.6626C25.4968 22.2994 25.7931 21.9471 26.0812 21.6057L26.2109 21.4528C26.4567 21.1619 26.6957 20.8793 26.9306 20.587C28.0135 19.2351 28.8765 17.8218 28.8765 15.7243C28.8765 11.1143 25.2032 7.36862 20.0005 7.36862ZM15.5625 28.5345H24.4385C24.7101 28.5345 24.9706 28.6424 25.1627 28.8344C25.3547 29.0265 25.4626 29.287 25.4626 29.5586C25.4626 29.8302 25.3547 30.0907 25.1627 30.2828C24.9706 30.4749 24.7101 30.5828 24.4385 30.5828H15.5625C15.2909 30.5828 15.0304 30.4749 14.8383 30.2828C14.6462 30.0907 14.5383 29.8302 14.5383 29.5586C14.5383 29.287 14.6462 29.0265 14.8383 28.8344C15.0304 28.6424 15.2909 28.5345 15.5625 28.5345ZM16.5866 33.6552C16.5866 33.3836 16.6945 33.1231 16.8866 32.931C17.0787 32.739 17.3392 32.6311 17.6108 32.6311H22.3902C22.6618 32.6311 22.9223 32.739 23.1144 32.931C23.3064 33.1231 23.4143 33.3836 23.4143 33.6552C23.4143 33.9268 23.3064 34.1873 23.1144 34.3794C22.9223 34.5715 22.6618 34.6794 22.3902 34.6794H17.6108C17.3392 34.6794 17.0787 34.5715 16.8866 34.3794C16.6945 34.1873 16.5866 33.9268 16.5866 33.6552Z" fill="black"/>
</svg>
