<svg width="18" height="23" viewBox="0 0 18 23" fill="none" xmlns="http://www.w3.org/2000/svg">
<path id="Icon" d="M5.11145 19.6781C5.84439 20.5085 6.91676 21.0323 8.11145 21.0323C9.30614 21.0323 10.3785 20.5085 11.1115 19.6781M12.1115 1.96777C14.4984 3.154 16.2841 5.3688 16.8884 8.03225M14.1089 13.2132V10.0323C14.1089 6.71007 11.4337 4.03235 8.11145 4.03235C4.78917 4.03235 2.07782 6.59591 2.07782 10.0323V13.1916C2.07782 13.6748 2.00251 14.1548 1.85479 14.6132L1.11633 16.9047C1.09611 16.9674 1.14126 17.0322 1.2052 17.0322H14.9746C15.0422 17.0322 15.0902 16.9663 15.0695 16.902L14.326 14.5949C14.1821 14.1484 14.1089 13.6822 14.1089 13.2132Z" stroke="#7C444F" stroke-width="2" stroke-linecap="round"/>
</svg>
