<svg width="39" height="39" viewBox="0 0 39 39" fill="none" xmlns="http://www.w3.org/2000/svg">
<rect width="39" height="39" rx="16" fill="#7C2D38"/>
<path d="M15.6115 27.6781C16.3445 28.5085 17.4168 29.0323 18.6115 29.0323C19.8062 29.0323 20.8786 28.5085 21.6115 27.6781M22.6115 9.96777C24.9985 11.154 26.7841 13.3688 27.3885 16.0323M24.6089 21.2132V18.0323C24.6089 14.7101 21.9338 12.0323 18.6115 12.0323C15.2892 12.0323 12.5779 14.5959 12.5779 18.0323V21.1916C12.5779 21.6748 12.5026 22.1548 12.3549 22.6132L11.6164 24.9047C11.5962 24.9674 11.6413 25.0322 11.7053 25.0322H25.4747C25.5423 25.0322 25.5903 24.9663 25.5696 24.902L24.8261 22.5949C24.6822 22.1484 24.6089 21.6822 24.6089 21.2132Z" stroke="#C4ABB0" stroke-width="2" stroke-linecap="round"/>
</svg>
