<svg width="20" height="20" viewBox="0 0 20 20" fill="none" xmlns="http://www.w3.org/2000/svg">
<path d="M19 10C19 11.1819 18.7672 12.3522 18.3149 13.4442C17.8626 14.5361 17.1997 15.5282 16.364 16.364C15.5282 17.1997 14.5361 17.8626 13.4442 18.3149C12.3522 18.7672 11.1819 19 10 19C8.8181 19 7.64778 18.7672 6.55585 18.3149C5.46392 17.8626 4.47177 17.1997 3.63604 16.364C2.80031 15.5282 2.13738 14.5361 1.68508 13.4442C1.23279 12.3522 1 11.1819 1 10C1 7.61305 1.94821 5.32387 3.63604 3.63604C5.32387 1.94821 7.61305 1 10 1C12.3869 1 14.6761 1.94821 16.364 3.63604C18.0518 5.32387 19 7.61305 19 10Z" stroke="#2B5B76" stroke-width="1.5" stroke-linecap="round" stroke-linejoin="round"/>
<path d="M12.5 7.25V7C12.5 6.73478 12.3946 6.48043 12.2071 6.29289C12.0196 6.10536 11.7652 6 11.5 6H8.5C8.23478 6 7.98043 6.10536 7.79289 6.29289C7.60536 6.48043 7.5 6.73478 7.5 7V7.984C7.49995 8.28385 7.58977 8.57683 7.75785 8.82513C7.92594 9.07343 8.16459 9.26566 8.443 9.377L11.557 10.623C12.127 10.851 12.5 11.403 12.5 12.016V13C12.5 13.2652 12.3946 13.5196 12.2071 13.7071C12.0196 13.8946 11.7652 14 11.5 14H8.5C8.23478 14 7.98043 13.8946 7.79289 13.7071C7.60536 13.5196 7.5 13.2652 7.5 13V12.75" stroke="#2B5B76" stroke-width="1.5" stroke-linecap="round" stroke-linejoin="round"/>
</svg>
