<svg width="19" height="22" viewBox="0 0 22 22" fill="none" xmlns="http://www.w3.org/2000/svg">
<path d="M21 11C21.0016 12.3172 20.7423 13.6216 20.2369 14.8379C19.7315 16.0542 18.9901 17.1584 18.0555 18.0865C17.1285 19.0118 16.0282 19.7453 14.8176 20.2452C13.607 20.7451 12.3098 21.0016 11 21C5.47701 21 1.00001 16.523 1.00001 11C0.99641 8.43587 1.98136 5.96903 3.75001 4.11251C4.68313 3.12774 5.8074 2.34376 7.05402 1.80858C8.30064 1.27339 9.64337 0.998254 11 1.00001C12.3098 0.998394 13.607 1.25487 14.8176 1.75478C16.0282 2.25469 17.1285 2.98824 18.0555 3.91351C18.9901 4.84165 19.7315 5.94579 20.2369 7.16211C20.7423 8.37844 21.0016 9.68286 21 11Z" stroke="#2B5B76" stroke-width="2" stroke-linecap="round" stroke-linejoin="round"/>
<path d="M21 11C19.541 11 15.516 10.45 11.9135 12.0315C8.00001 13.75 5.16651 16.416 3.93151 18.0735" stroke="#2B5B76" stroke-width="2" stroke-linecap="round" stroke-linejoin="round"/>
<path d="M7.25001 1.72699C8.81501 3.17149 12.23 6.84899 13.5 10.5C14.77 14.151 15.24 18.64 15.53 19.9175" stroke="#2B5B76" stroke-width="2" stroke-linecap="round" stroke-linejoin="round"/>
<path d="M1.07701 9.74999C2.96601 9.86399 7.96651 9.96649 11.1665 8.59999C14.3665 7.23349 17.12 4.71999 18.0645 3.92249M1.75001 14.8065C2.63131 16.9393 4.22047 18.7035 6.25001 19.802" stroke="#2B5B76" stroke-width="2" stroke-linecap="round" stroke-linejoin="round"/>
<path d="M1.00001 11C0.99641 8.43587 1.98136 5.96903 3.75001 4.11251C4.68313 3.12774 5.8074 2.34376 7.05402 1.80858C8.30064 1.27339 9.64337 0.998254 11 1.00001M15 1.83201C16.139 2.3299 17.1752 3.03579 18.0555 3.91351C18.9901 4.84165 19.7315 5.94579 20.2369 7.16211C20.7423 8.37844 21.0016 9.68286 21 11C21 12.231 20.7775 13.4105 20.37 14.5M11 21C12.3098 21.0016 13.607 20.7451 14.8176 20.2452C16.0282 19.7453 17.1285 19.0118 18.0555 18.0865" stroke="#2B5B76" stroke-width="2" stroke-linecap="round" stroke-linejoin="round"/>
</svg>
