<svg xmlns="http://www.w3.org/2000/svg" width="19" height="18" viewBox="0 0 19 18" fill="none">
<path d="M14.1292 18C13.8835 17.9998 13.6416 17.9371 13.4245 17.8174L9.73357 15.7951C9.6615 15.7558 9.58136 15.7352 9.5 15.7352C9.41864 15.7352 9.3385 15.7558 9.26643 15.7951L5.57151 17.8174C5.32209 17.9542 5.04091 18.0156 4.75979 17.9945C4.47867 17.9734 4.20881 17.8707 3.98076 17.6981C3.7527 17.5255 3.57554 17.2897 3.46933 17.0176C3.36311 16.7455 3.33207 16.4478 3.37973 16.1582L4.08448 11.8744C4.09828 11.7907 4.09239 11.7048 4.06731 11.624C4.04224 11.5432 3.99872 11.4699 3.94051 11.4105L0.956383 8.3766C0.754448 8.17155 0.611608 7.91167 0.54403 7.62637C0.476452 7.34108 0.486834 7.04177 0.574001 6.76231C0.661168 6.48284 0.82164 6.2344 1.03726 6.04508C1.25287 5.85576 1.51502 5.73313 1.79403 5.69107L5.92187 5.06141C6.0025 5.04915 6.07908 5.01668 6.14501 4.96678C6.21095 4.91687 6.26428 4.85103 6.30042 4.77491L8.14587 0.877273C8.2706 0.613933 8.46352 0.392216 8.70282 0.237187C8.94212 0.0821583 9.21825 0 9.5 0C9.78175 0 10.0579 0.0821583 10.2972 0.237187C10.5365 0.392216 10.7294 0.613933 10.8541 0.877273L12.6996 4.77491C12.7356 4.85123 12.7889 4.91728 12.8548 4.96737C12.9208 5.01746 12.9974 5.0501 13.0781 5.06246L17.206 5.69212C17.485 5.73418 17.7471 5.85681 17.9627 6.04613C18.1784 6.23545 18.3388 6.48389 18.426 6.76336C18.5132 7.04282 18.5235 7.34213 18.456 7.62742C18.3884 7.91271 18.2456 8.17259 18.0436 8.37765L15.0585 11.4116C15.0001 11.4709 14.9564 11.5441 14.9311 11.6249C14.9059 11.7057 14.8998 11.7917 14.9135 11.8754L15.6183 16.1593C15.6555 16.3853 15.6449 16.6171 15.5873 16.8384C15.5296 17.0597 15.4262 17.2653 15.2844 17.4406C15.1426 17.6159 14.9657 17.7568 14.7662 17.8535C14.5666 17.9501 14.3492 18.0001 14.1292 18ZM10.2027 14.8664L13.8916 16.8844C13.9747 16.9299 14.0684 16.9501 14.162 16.943C14.2556 16.9359 14.3454 16.9016 14.4213 16.8441C14.4972 16.7866 14.5562 16.7081 14.5916 16.6175C14.627 16.5269 14.6373 16.4278 14.6215 16.3314L13.9168 12.0476C13.8754 11.7959 13.8934 11.5375 13.9692 11.2947C14.0449 11.052 14.1762 10.832 14.3517 10.6539L17.3368 7.621C17.4042 7.55267 17.4518 7.46607 17.4743 7.371C17.4969 7.27593 17.4934 7.17618 17.4644 7.08303C17.4354 6.98989 17.3819 6.90707 17.3101 6.84394C17.2383 6.78081 17.1509 6.7399 17.058 6.72582L12.9301 6.09616C12.6877 6.0595 12.4574 5.96192 12.2592 5.81181C12.061 5.66171 11.9008 5.4636 11.7925 5.23456L9.95004 1.34637C9.90488 1.26249 9.83911 1.19266 9.75949 1.14406C9.67986 1.09546 9.58925 1.06985 9.49698 1.06985C9.40471 1.06985 9.3141 1.09546 9.23447 1.14406C9.15485 1.19266 9.08908 1.26249 9.04392 1.34637L7.2015 5.24401C7.09301 5.47284 6.93276 5.67075 6.73457 5.82066C6.53638 5.97058 6.30618 6.06801 6.06383 6.10455L1.93599 6.73422C1.84301 6.74829 1.75567 6.78921 1.68384 6.85234C1.61201 6.91546 1.55857 6.99829 1.52955 7.09143C1.50053 7.18457 1.4971 7.28432 1.51964 7.3794C1.54219 7.47447 1.5898 7.56107 1.65711 7.6294L4.64526 10.6591C4.82119 10.8378 4.95266 11.0585 5.02827 11.3021C5.10389 11.5456 5.12136 11.8048 5.07919 12.057L4.37443 16.3408C4.3585 16.4374 4.36883 16.5367 4.40425 16.6275C4.43967 16.7182 4.49876 16.7968 4.57483 16.8544C4.65091 16.9119 4.74092 16.9462 4.83468 16.9531C4.92845 16.9601 5.02221 16.9396 5.10536 16.8939L8.79323 14.8664C9.01046 14.7469 9.25237 14.6844 9.49799 14.6844C9.7436 14.6844 9.98551 14.7469 10.2027 14.8664Z" fill="white"/>
</svg>
