<svg xmlns="http://www.w3.org/2000/svg" width="17" height="20" viewBox="0 0 17 20" fill="none">
<path d="M14.3666 19H2.63335C2.3523 19 2.07402 18.9438 1.81449 18.8346C1.55497 18.7253 1.31932 18.5653 1.12108 18.3635C0.922842 18.1618 0.765925 17.9224 0.659345 17.6591C0.552764 17.3958 0.498621 17.1138 0.500027 16.8292V6.69896C0.500027 6.35516 0.660026 6.03837 0.926692 5.83047L7.84222 1.21713C8.02657 1.07623 8.25125 1 8.48222 1C8.7132 1 8.93788 1.07623 9.12222 1.21713L16.0733 5.83047C16.34 6.03837 16.5 6.35516 16.5 6.69896V16.8292C16.5014 17.1138 16.4472 17.3958 16.3407 17.6591C16.2341 17.9224 16.0772 18.1618 15.8789 18.3635C15.6807 18.5653 15.445 18.7253 15.1855 18.8346C14.926 18.9438 14.6477 19 14.3666 19Z" stroke="white" stroke-miterlimit="10" stroke-linejoin="round"/>
<path d="M6.54461 10.0001H10.4557C10.8468 10.0001 11.1668 10.3241 11.1668 10.7201V19H5.8335V10.7201C5.8335 10.3241 6.1535 10.0001 6.54461 10.0001Z" stroke="white" stroke-miterlimit="10" stroke-linejoin="round"/>
</svg>
