<svg width="24" height="24" viewBox="0 0 24 24" fill="none" xmlns="http://www.w3.org/2000/svg">
<path d="M14.23 12.004C14.23 12.5968 13.9946 13.1654 13.5754 13.5847C13.1563 14.004 12.5879 14.2397 11.995 14.24C11.402 14.24 10.8332 14.0044 10.4139 13.5851C9.99458 13.1657 9.759 12.597 9.759 12.004C9.759 11.4111 9.99444 10.8425 10.4136 10.4232C10.8327 10.0039 11.4011 9.76824 11.994 9.76797C12.587 9.76797 13.1558 10.0036 13.5751 10.4229C13.9944 10.8422 14.23 11.411 14.23 12.004ZM16.878 1.31398C15.532 1.31398 13.771 2.27398 11.99 3.93598C10.21 2.28298 8.448 1.33398 7.103 1.33398C6.693 1.33398 6.32 1.42698 5.997 1.61198C4.622 2.40498 4.314 4.87598 5.024 7.97698C1.98 8.91698 0 10.42 0 12.004C0 13.594 1.99 15.101 5.043 16.034C4.339 19.147 4.653 21.622 6.031 22.414C6.351 22.601 6.721 22.689 7.133 22.689C8.478 22.689 10.24 21.729 12.021 20.065C13.801 21.719 15.563 22.668 16.908 22.668C17.318 22.668 17.691 22.578 18.014 22.393C19.388 21.601 19.697 19.13 18.987 16.028C22.02 15.096 24 13.59 24 12.004C24 10.414 22.01 8.90698 18.957 7.97198C19.661 4.86198 19.347 2.38498 17.969 1.59198C17.6358 1.40477 17.2601 1.30887 16.878 1.31398ZM16.873 2.40398V2.40998C17.098 2.40998 17.279 2.45398 17.431 2.53698C18.097 2.91898 18.386 4.37198 18.161 6.24098C18.107 6.70098 18.019 7.18598 17.911 7.68098C16.8885 7.43363 15.8505 7.25523 14.804 7.14698C14.1806 6.28718 13.5007 5.46972 12.769 4.69998C14.361 3.21998 15.856 2.40798 16.874 2.40498L16.873 2.40398ZM7.103 2.42398C8.115 2.42398 9.617 3.23198 11.213 4.70398C10.527 5.42398 9.843 6.24098 9.193 7.14598C8.14423 7.25375 7.10411 7.43351 6.08 7.68398C5.97261 7.21499 5.88784 6.74111 5.826 6.26398C5.596 4.39598 5.88 2.94398 6.54 2.55698C6.73 2.46698 6.94 2.42898 7.103 2.42398ZM11.985 5.47398C12.441 5.94331 12.8943 6.46464 13.345 7.03798C12.905 7.01798 12.455 7.00398 12 7.00398C11.5393 7.00331 11.086 7.01464 10.64 7.03798C11.08 6.46598 11.535 5.94298 11.985 5.47398ZM12 8.09998C12.74 8.09998 13.477 8.13398 14.202 8.19298C14.6087 8.77564 15.003 9.39564 15.385 10.053C15.7563 10.6936 16.0957 11.3423 16.403 11.999C16.095 12.654 15.757 13.309 15.39 13.949C15.01 14.609 14.617 15.237 14.21 15.819C12.7422 15.9476 11.2661 15.9493 9.798 15.824C9.37851 15.2203 8.98385 14.5998 8.615 13.964C8.24367 13.3233 7.90433 12.6746 7.597 12.018C7.90582 11.3521 8.24381 10.7001 8.61 10.064C8.99 9.40398 9.383 8.77798 9.79 8.19598C10.5249 8.13072 11.2622 8.09802 12 8.09798V8.09998ZM8.365 8.35398C8.125 8.73098 7.885 9.11698 7.661 9.51398C7.437 9.90398 7.22533 10.2953 7.026 10.688C6.761 10.032 6.536 9.37798 6.35 8.74098C6.99 8.59098 7.665 8.45698 8.365 8.35398ZM15.625 8.35398C16.321 8.45598 16.9897 8.58498 17.631 8.74098C17.451 9.37298 17.226 10.023 16.971 10.674C16.5629 9.87802 16.1139 9.10366 15.626 8.35398H15.625ZM18.688 9.02898C19.1727 9.17964 19.631 9.34564 20.063 9.52698C21.795 10.267 22.915 11.235 22.915 12.003C22.91 12.771 21.79 13.743 20.058 14.478C19.638 14.658 19.178 14.82 18.703 14.971C18.4025 13.9544 18.0351 12.9589 17.603 11.991C18.053 10.974 18.413 9.98098 18.688 9.02698V9.02898ZM5.293 9.03298C5.571 9.99298 5.938 10.99 6.393 12.013C5.96355 12.9749 5.60069 13.9653 5.307 14.977C4.823 14.827 4.363 14.659 3.937 14.477C2.205 13.74 1.085 12.771 1.085 12.003C1.085 11.235 2.205 10.261 3.937 9.52698C4.357 9.34698 4.817 9.18498 5.293 9.03298ZM16.971 13.313C17.236 13.97 17.461 14.625 17.647 15.261C17.007 15.418 16.331 15.551 15.631 15.651C16.1181 14.8954 16.5647 14.115 16.971 13.313ZM7.026 13.333C7.226 13.725 7.436 14.116 7.666 14.508C7.896 14.8986 8.131 15.2796 8.371 15.651C7.69672 15.5534 7.02733 15.4246 6.365 15.265C6.545 14.635 6.771 13.983 7.025 13.332L7.026 13.333ZM17.92 16.32C18.032 16.813 18.12 17.288 18.174 17.743C18.404 19.611 18.12 21.063 17.46 21.451C17.313 21.541 17.122 21.579 16.897 21.579C15.885 21.579 14.383 20.772 12.787 19.299C13.473 18.579 14.157 17.763 14.807 16.859C15.914 16.741 16.961 16.56 17.92 16.32ZM6.09 16.33C7.05 16.564 8.096 16.745 9.197 16.862C9.857 17.767 10.542 18.589 11.232 19.308C9.637 20.791 8.14 21.603 7.122 21.603C6.92975 21.6039 6.7401 21.5586 6.569 21.471C5.903 21.091 5.614 19.637 5.839 17.768C5.893 17.308 5.982 16.824 6.09 16.33ZM10.65 16.97C11.0907 16.9913 11.539 17.0026 11.995 17.004C12.4557 17.0046 12.909 16.9933 13.355 16.97C12.915 17.542 12.46 18.065 12.01 18.535C11.554 18.0643 11.1007 17.5426 10.65 16.97Z" fill="#2B5B76"/>
</svg>
