<svg xmlns="http://www.w3.org/2000/svg" width="23" height="22" viewBox="0 0 23 22" fill="none">
<path d="M21.5003 4.99976H13.5003M2.0003 4.99976C2.0003 3.45976 2.0003 2.68976 2.3473 2.12376C2.5413 1.80676 2.8073 1.54076 3.1243 1.34676C3.6893 0.999756 4.4603 0.999756 6.0003 0.999756C7.5403 0.999756 8.3103 0.999756 8.8763 1.34676C9.1933 1.54076 9.4593 1.80676 9.6533 2.12376C10.0003 2.68876 10.0003 3.45976 10.0003 4.99976C10.0003 6.53976 10.0003 7.30976 9.6533 7.87576C9.4593 8.19276 9.1933 8.45876 8.8763 8.65276C8.3113 8.99976 7.5403 8.99976 6.0003 8.99976C4.4603 8.99976 3.6903 8.99976 3.1243 8.65276C2.80753 8.4588 2.54126 8.19252 2.3473 7.87576C2.0003 7.31076 2.0003 6.53976 2.0003 4.99976ZM3.2823 13.7818C4.3293 12.7348 4.8523 12.2118 5.4723 12.0618C5.81936 11.9784 6.18124 11.9784 6.5283 12.0618C7.1483 12.2118 7.6713 12.7348 8.7183 13.7818C9.7653 14.8288 10.2883 15.3518 10.4383 15.9718C10.5202 16.319 10.5202 16.6805 10.4383 17.0278C10.2883 17.6478 9.7653 18.1718 8.7183 19.2178C7.6713 20.2638 7.1483 20.7878 6.5283 20.9378C6.18124 21.0211 5.81936 21.0211 5.4723 20.9378C4.8523 20.7878 4.3293 20.2648 3.2823 19.2178C2.2353 18.1708 1.7123 17.6478 1.5623 17.0278C1.47891 16.6807 1.47891 16.3188 1.5623 15.9718C1.7123 15.3518 2.2353 14.8278 3.2823 13.7818ZM13.5003 16.9998C13.5003 15.4598 13.5003 14.6898 13.8473 14.1238C14.0413 13.8068 14.3073 13.5408 14.6243 13.3468C15.1893 12.9998 15.9603 12.9998 17.5003 12.9998C19.0403 12.9998 19.8103 12.9998 20.3773 13.3468C20.6933 13.5408 20.9593 13.8068 21.1533 14.1238C21.5003 14.6888 21.5003 15.4598 21.5003 16.9998C21.5003 18.5398 21.5003 19.3098 21.1533 19.8768C20.9592 20.1928 20.6934 20.4587 20.3773 20.6528C19.8103 20.9998 19.0403 20.9998 17.5003 20.9998C15.9603 20.9998 15.1903 20.9998 14.6243 20.6528C14.3076 20.4591 14.0414 20.1932 13.8473 19.8768C13.5003 19.3098 13.5003 18.5398 13.5003 16.9998Z" stroke="white" stroke-width="1.5" stroke-linecap="round" stroke-linejoin="round"/>
</svg>
