<svg xmlns="http://www.w3.org/2000/svg" width="17" height="18" viewBox="0 0 17 18" fill="none">
<path fill-rule="evenodd" clip-rule="evenodd" d="M4.72222 1.8H12.2778V0H14.1667V1.8H15.1111C15.6121 1.8 16.0925 1.98964 16.4468 2.32721C16.801 2.66477 17 3.12261 17 3.6V16.2C17 16.6774 16.801 17.1352 16.4468 17.4728C16.0925 17.8104 15.6121 18 15.1111 18H1.88889C1.38792 18 0.907478 17.8104 0.553243 17.4728C0.199007 17.1352 0 16.6774 0 16.2V3.6C0 3.12261 0.199007 2.66477 0.553243 2.32721C0.907478 1.98964 1.38792 1.8 1.88889 1.8H2.83333V0H4.72222V1.8ZM1.88889 5.4V16.2H15.1111V5.4H1.88889ZM3.77778 8.1H5.66667V9.9H3.77778V8.1ZM7.55556 8.1H9.44445V9.9H7.55556V8.1ZM11.3333 8.1H13.2222V9.9H11.3333V8.1ZM11.3333 11.7H13.2222V13.5H11.3333V11.7ZM7.55556 11.7H9.44445V13.5H7.55556V11.7ZM3.77778 11.7H5.66667V13.5H3.77778V11.7Z" fill="white"/>
</svg>
