<svg width="60" height="60" viewBox="0 0 60 60" fill="none" xmlns="http://www.w3.org/2000/svg">
<path d="M41.8954 42.7332H18.1045V25.225H41.8954M36.7973 14.0835V17.2668H23.2025V14.0835H19.8038V17.2668H18.1045C16.2182 17.2668 14.7058 18.6834 14.7058 20.4501V42.7332C14.7058 43.5775 15.0639 44.3871 15.7013 44.9841C16.3386 45.5811 17.2031 45.9165 18.1045 45.9165H41.8954C42.7967 45.9165 43.6612 45.5811 44.2986 44.9841C44.936 44.3871 45.294 43.5775 45.294 42.7332V20.4501C45.294 19.6058 44.936 18.7961 44.2986 18.1992C43.6612 17.6022 42.7967 17.2668 41.8954 17.2668H40.196V14.0835M38.4967 31.5916H29.9999V39.5499H38.4967V31.5916Z" fill="#ffffff"/>
</svg>
