<svg width="31" height="31" viewBox="0 0 31 31" fill="none" xmlns="http://www.w3.org/2000/svg">
<path d="M11.2587 31L10.6418 26.04C10.3076 25.9108 9.993 25.7558 9.69791 25.575C9.40282 25.3942 9.11338 25.2004 8.8296 24.9937L4.24129 26.9312L0 19.5687L3.97139 16.5462C3.94569 16.3654 3.93284 16.1913 3.93284 16.0239V14.9776C3.93284 14.8092 3.94569 14.6346 3.97139 14.4537L0 11.4312L4.24129 4.06875L8.8296 6.00625C9.11236 5.79958 9.40796 5.60583 9.71642 5.425C10.0249 5.24417 10.3333 5.08917 10.6418 4.96L11.2587 0H19.7413L20.3582 4.96C20.6924 5.08917 21.0075 5.24417 21.3036 5.425C21.5998 5.60583 21.8887 5.79958 22.1704 6.00625L26.7587 4.06875L31 11.4312L27.0286 14.4537C27.0543 14.6346 27.0672 14.8092 27.0672 14.9776V16.0223C27.0672 16.1908 27.0415 16.3654 26.9901 16.5462L30.9614 19.5687L26.7201 26.9312L22.1704 24.9937C21.8876 25.2004 21.592 25.3942 21.2836 25.575C20.9751 25.7558 20.6667 25.9108 20.3582 26.04L19.7413 31H11.2587ZM15.5771 20.925C17.068 20.925 18.3404 20.3954 19.3943 19.3363C20.4482 18.2771 20.9751 16.9983 20.9751 15.5C20.9751 14.0017 20.4482 12.7229 19.3943 11.6637C18.3404 10.6046 17.068 10.075 15.5771 10.075C14.0605 10.075 12.7815 10.6046 11.7399 11.6637C10.6983 12.7229 10.1781 14.0017 10.1791 15.5C10.1801 16.9983 10.7009 18.2771 11.7414 19.3363C12.782 20.3954 14.0605 20.925 15.5771 20.925Z" fill="white"/>
</svg>
