<svg width="1396" height="1494" viewBox="0 0 1396 1494" fill="none" xmlns="http://www.w3.org/2000/svg">
<g clip-path="url(#clip0_749_296)">
<path opacity="0.6" fill-rule="evenodd" clip-rule="evenodd" d="M240.765 243.931C269.04 302.772 298.316 363.695 344.923 412.172C404.263 473.892 415.832 547.133 427.613 621.716C441.843 711.797 456.381 803.834 555.767 879.89C733.553 1015.94 784.522 1097.36 784.522 1097.36C853.504 1106.5 873.475 1104.84 908.098 1101.94C932.038 1099.94 962.982 1097.36 1021.98 1097.36C1094.63 1097.36 1158.44 1076.76 1212.65 1059.25C1260.43 1043.82 1300.76 1030.8 1333.12 1036.41C1402.21 1048.38 1505.07 1235.28 1512.24 1294.21C1514.98 1316.76 1509.91 1340.7 1503.6 1370.43C1496.73 1402.85 1488.41 1442.14 1487.16 1494H0V31C141.637 37.6434 189.561 137.375 240.765 243.931Z" fill="#E03654" fill-opacity="0.1"/>
<path opacity="0.6" d="M346.178 915.789C235.363 897.295 120.443 656.87 -58.0923 834.414L-6.46227 1494H1512.5C1554.74 1174.36 1522.66 486.833 1482.55 310.104C1454.84 188.041 1301.19 629.13 1151.64 629.13C1018.25 629.129 873.063 822.396 698.119 945.915C523.174 1069.44 456.993 934.283 346.178 915.789Z" fill="#7C444F" fill-opacity="0.1"/>
<path opacity="0.6" d="M1320.04 110.918C1401.28 77.5019 1431.67 -77.0923 1513 16.9127V1494L-24.3273 1494C-115.582 1179.41 -223.563 471.301 -57.2852 445.985C150.562 414.34 187.773 665.64 366.384 735.445C544.994 805.251 1048.4 436.677 1098.37 338.019C1148.34 239.36 1161.63 176.07 1320.04 110.918Z" fill="#DB5063" fill-opacity="0.1"/>
</g>
<defs>
<clipPath id="clip0_749_296">
<rect width="1396" height="1694" fill="white"/>
</clipPath>
</defs>
</svg>
