<svg width="81" height="100" viewBox="0 0 113 189" fill="none" xmlns="http://www.w3.org/2000/svg">
<path d="M42.1248 53.442H28.3265C26.8659 53.442 25.816 54.8508 26.2293 56.256L44.3843 117.985C44.6586 118.918 45.5122 119.558 46.4815 119.558H57.2844C58.7038 119.558 59.747 118.222 59.4075 116.84L44.2479 55.1107C44.0073 54.1307 43.131 53.442 42.1248 53.442Z" fill="#3C7D9C"/>
<path d="M59.5289 97.7234L69.3998 55.1387C69.6301 54.1451 70.5128 53.442 71.5296 53.442H84.6735C86.134 53.442 87.184 54.8508 86.7707 56.2561L68.5987 118.043C68.3345 118.941 67.5122 119.558 66.5784 119.558C65.62 119.558 64.7824 118.909 64.5403 117.979L59.5429 98.7741C59.4534 98.4302 59.4486 98.0696 59.5289 97.7234Z" fill="#3C7D9C"/>
<path d="M91.8423 135.419V127.792H92.3481L95.2776 133.174L96.0574 134.69H96.0996C96.0926 134.32 96.0785 133.949 96.0574 133.579C96.0434 133.208 96.0364 132.838 96.0364 132.468V127.792H96.5V135.419H95.9942L93.0647 130.037L92.2849 128.521H92.2427C92.2568 128.884 92.2708 129.242 92.2849 129.597C92.2989 129.952 92.3059 130.315 92.3059 130.685V135.419H91.8423Z" fill="black"/>
<path d="M82.1792 135.419V127.792H82.685L85.6146 133.174L86.3944 134.69H86.4365C86.4295 134.32 86.4154 133.949 86.3944 133.579C86.3803 133.208 86.3733 132.838 86.3733 132.468V127.792H86.837V135.419H86.3311L83.4016 130.037L82.6218 128.521H82.5796C82.5937 128.884 82.6077 129.242 82.6218 129.597C82.6358 129.952 82.6429 130.315 82.6429 130.685V135.419H82.1792Z" fill="black"/>
<path d="M76.6836 135.419V127.792H77.1683V135.419H76.6836Z" fill="black"/>
<path d="M68.8008 135.419V127.792H69.2855V134.956H72.489V135.419H68.8008Z" fill="black"/>
<path d="M61.3758 135.558C60.8208 135.558 60.329 135.396 59.9005 135.072C59.4719 134.74 59.1347 134.277 58.8888 133.683C58.643 133.089 58.52 132.387 58.52 131.577C58.52 130.774 58.643 130.08 58.8888 129.493C59.1347 128.907 59.4719 128.455 59.9005 128.139C60.329 127.815 60.8208 127.653 61.3758 127.653C61.9378 127.653 62.4331 127.815 62.8616 128.139C63.2902 128.455 63.6274 128.907 63.8733 129.493C64.1192 130.08 64.2421 130.774 64.2421 131.577C64.2421 132.387 64.1192 133.089 63.8733 133.683C63.6274 134.277 63.2902 134.74 62.8616 135.072C62.4331 135.396 61.9378 135.558 61.3758 135.558ZM61.3758 135.072C61.8465 135.072 62.2575 134.929 62.6087 134.644C62.96 134.35 63.234 133.941 63.4307 133.417C63.6274 132.892 63.7257 132.279 63.7257 131.577C63.7257 130.874 63.6274 130.269 63.4307 129.759C63.234 129.242 62.96 128.845 62.6087 128.567C62.2575 128.282 61.8465 128.139 61.3758 128.139C60.9051 128.139 60.4941 128.282 60.1429 128.567C59.7916 128.845 59.5176 129.242 59.3209 129.759C59.1242 130.269 59.0258 130.874 59.0258 131.577C59.0258 132.279 59.1242 132.892 59.3209 133.417C59.5176 133.941 59.7916 134.35 60.1429 134.644C60.4941 134.929 60.9051 135.072 61.3758 135.072ZM61.1545 127.248L60.9437 126.982L62.261 125.558L62.556 125.94L61.1545 127.248Z" fill="black"/>
<path d="M50.2876 135.419V127.792H50.7723V132.028H50.7934L54.155 127.792H54.7346L52.5216 130.616L55.0402 135.419H54.4817L52.1844 131.021L50.7723 132.792V135.419H50.2876Z" fill="black"/>
<path d="M43.641 135.558C43.1351 135.558 42.6855 135.45 42.2921 135.234C41.8987 135.018 41.565 134.744 41.291 134.412L41.6072 134.042C41.8601 134.35 42.1621 134.601 42.5134 134.794C42.8647 134.979 43.2405 135.072 43.641 135.072C44.1749 135.072 44.5964 134.929 44.9055 134.644C45.2146 134.358 45.3692 133.992 45.3692 133.544C45.3692 133.228 45.313 132.973 45.2006 132.78C45.0882 132.587 44.9371 132.429 44.7474 132.306C44.5648 132.175 44.3575 132.055 44.1257 131.947L43.0719 131.426C42.8752 131.326 42.6645 131.202 42.4396 131.056C42.2219 130.901 42.0357 130.705 41.8811 130.465C41.7336 130.219 41.6598 129.906 41.6598 129.528C41.6598 129.158 41.7477 128.834 41.9233 128.556C42.0989 128.27 42.3378 128.05 42.6399 127.896C42.949 127.734 43.2967 127.653 43.6831 127.653C44.0976 127.653 44.4699 127.746 44.8001 127.931C45.1303 128.108 45.4008 128.32 45.6116 128.567L45.3376 128.915C45.1338 128.683 44.895 128.498 44.621 128.359C44.347 128.212 44.0344 128.139 43.6831 128.139C43.2265 128.139 42.8541 128.263 42.5661 128.509C42.2851 128.756 42.1446 129.088 42.1446 129.505C42.1446 129.798 42.2078 130.037 42.3343 130.222C42.4677 130.408 42.6258 130.558 42.8085 130.674C42.9982 130.79 43.1773 130.89 43.3459 130.975L44.3997 131.484C44.6596 131.607 44.8985 131.754 45.1163 131.924C45.3411 132.086 45.5202 132.294 45.6537 132.549C45.7942 132.796 45.8645 133.116 45.8645 133.509C45.8645 133.895 45.7731 134.246 45.5905 134.563C45.4078 134.871 45.1479 135.114 44.8107 135.292C44.4805 135.469 44.0906 135.558 43.641 135.558Z" fill="black"/>
<path d="M34.0073 135.419V127.792H37.7904V128.255H34.4921V131.287H37.2846V131.75H34.4921V135.419H34.0073Z" fill="black"/>
<path d="M25.6201 135.419V127.792H29.4243V128.255H26.1049V131.137H28.8869V131.6H26.1049V134.956H29.5297V135.419H25.6201Z" fill="black"/>
<path d="M18.7973 135.419L16.5 127.792H17.0164L18.302 132.248C18.4355 132.711 18.5549 133.139 18.6603 133.532C18.7727 133.918 18.8991 134.343 19.0396 134.806H19.0818C19.2223 134.343 19.3452 133.918 19.4506 133.532C19.556 133.139 19.6754 132.711 19.8089 132.248L21.0945 127.792H21.5898L19.3136 135.419H18.7973Z" fill="black"/>
</svg>
