<svg width="80" height="83" viewBox="0 0 80 83" fill="none" xmlns="http://www.w3.org/2000/svg">
<path d="M25.6248 0H11.8265C10.3659 0 9.31596 1.40886 9.72925 2.81409L27.8843 64.5433C28.1586 65.4759 29.0122 66.1161 29.9815 66.1161H40.7844C42.2038 66.1161 43.247 64.7805 42.9075 63.398L27.7479 1.66877C27.5073 0.688759 26.631 0 25.6248 0Z" fill="url(#paint0_linear_295_6000)"/>
<path d="M43.0289 44.2814L52.8998 1.69667C53.1301 0.703149 54.0128 0 55.0296 0H68.1735C69.634 0 70.684 1.40886 70.2707 2.81409L52.0987 64.601C51.8345 65.4994 51.0122 66.1161 50.0784 66.1161C49.12 66.1161 48.2824 65.467 48.0403 64.5368L43.0429 45.3321C42.9534 44.9882 42.9486 44.6276 43.0289 44.2814Z" fill="white"/>
<path d="M75.3423 81.9771V74.3498H75.8481L78.7776 79.7317L79.5574 81.2479H79.5996C79.5926 80.8775 79.5785 80.5072 79.5574 80.1368C79.5434 79.7664 79.5364 79.3961 79.5364 79.0257V74.3498H80V81.9771H79.4942L76.5647 76.5952L75.7849 75.079H75.7427C75.7568 75.4416 75.7708 75.8004 75.7849 76.1553C75.7989 76.5103 75.8059 76.8729 75.8059 77.2433V81.9771H75.3423Z" fill="#E8F1FC"/>
<path d="M65.6792 81.9771V74.3498H66.185L69.1146 79.7317L69.8944 81.2479H69.9365C69.9295 80.8775 69.9154 80.5072 69.8944 80.1368C69.8803 79.7664 69.8733 79.3961 69.8733 79.0257V74.3498H70.337V81.9771H69.8311L66.9016 76.5952L66.1218 75.079H66.0796C66.0937 75.4416 66.1077 75.8004 66.1218 76.1553C66.1358 76.5103 66.1429 76.8729 66.1429 77.2433V81.9771H65.6792Z" fill="#E8F1FC"/>
<path d="M60.1836 81.9771V74.3498H60.6683V81.9771H60.1836Z" fill="#E8F1FC"/>
<path d="M52.3008 81.9771V74.3498H52.7855V81.5141H55.989V81.9771H52.3008Z" fill="#E8F1FC"/>
<path d="M44.8758 82.116C44.3208 82.116 43.829 81.954 43.4005 81.6299C42.9719 81.2981 42.6347 80.8352 42.3888 80.241C42.143 79.6469 42.02 78.9447 42.02 78.1346C42.02 77.3321 42.143 76.6376 42.3888 76.0512C42.6347 75.4648 42.9719 75.0134 43.4005 74.6971C43.829 74.373 44.3208 74.211 44.8758 74.211C45.4378 74.211 45.9331 74.373 46.3616 74.6971C46.7902 75.0134 47.1274 75.4648 47.3733 76.0512C47.6192 76.6376 47.7421 77.3321 47.7421 78.1346C47.7421 78.9447 47.6192 79.6469 47.3733 80.241C47.1274 80.8352 46.7902 81.2981 46.3616 81.6299C45.9331 81.954 45.4378 82.116 44.8758 82.116ZM44.8758 81.6299C45.3465 81.6299 45.7575 81.4872 46.1087 81.2017C46.46 80.9085 46.734 80.4995 46.9307 79.9748C47.1274 79.4501 47.2257 78.8367 47.2257 78.1346C47.2257 77.4324 47.1274 76.8267 46.9307 76.3174C46.734 75.8005 46.46 75.4031 46.1087 75.1253C45.7575 74.8398 45.3465 74.6971 44.8758 74.6971C44.4051 74.6971 43.9941 74.8398 43.6429 75.1253C43.2916 75.4031 43.0176 75.8005 42.8209 76.3174C42.6242 76.8267 42.5258 77.4324 42.5258 78.1346C42.5258 78.8367 42.6242 79.4501 42.8209 79.9748C43.0176 80.4995 43.2916 80.9085 43.6429 81.2017C43.9941 81.4872 44.4051 81.6299 44.8758 81.6299ZM44.6545 73.8059L44.4437 73.5397L45.761 72.1161L46.056 72.498L44.6545 73.8059Z" fill="#E8F1FC"/>
<path d="M33.7876 81.9771V74.3498H34.2723V78.5859H34.2934L37.655 74.3498H38.2346L36.0216 77.1739L38.5402 81.9771H37.9817L35.6844 77.5789L34.2723 79.3498V81.9771H33.7876Z" fill="#E8F1FC"/>
<path d="M27.141 82.1161C26.6351 82.1161 26.1855 82.008 25.7921 81.792C25.3987 81.5759 25.065 81.302 24.791 80.9702L25.1072 80.5999C25.3601 80.9085 25.6621 81.1593 26.0134 81.3522C26.3647 81.5374 26.7405 81.6299 27.141 81.6299C27.6749 81.6299 28.0964 81.4872 28.4055 81.2017C28.7146 80.9162 28.8692 80.5497 28.8692 80.1022C28.8692 79.7858 28.813 79.5312 28.7006 79.3383C28.5882 79.1454 28.4371 78.9872 28.2474 78.8638C28.0648 78.7326 27.8575 78.613 27.6257 78.505L26.5719 77.9841C26.3752 77.8838 26.1645 77.7604 25.9396 77.6138C25.7219 77.4594 25.5357 77.2627 25.3811 77.0235C25.2336 76.7766 25.1598 76.4641 25.1598 76.086C25.1598 75.7156 25.2477 75.3915 25.4233 75.1138C25.5989 74.8283 25.8378 74.6084 26.1399 74.4541C26.449 74.292 26.7967 74.211 27.1831 74.211C27.5976 74.211 27.9699 74.3036 28.3001 74.4888C28.6303 74.6662 28.9008 74.8784 29.1116 75.1253L28.8376 75.4726C28.6338 75.2411 28.395 75.0559 28.121 74.917C27.847 74.7704 27.5344 74.6971 27.1831 74.6971C26.7265 74.6971 26.3541 74.8206 26.0661 75.0675C25.7851 75.3144 25.6446 75.6462 25.6446 76.0628C25.6446 76.3561 25.7078 76.5952 25.8343 76.7804C25.9677 76.9656 26.1258 77.1161 26.3085 77.2318C26.4982 77.3476 26.6773 77.4479 26.8459 77.5327L27.8997 78.042C28.1596 78.1655 28.3985 78.3121 28.6163 78.4818C28.8411 78.6438 29.0202 78.8522 29.1537 79.1068C29.2942 79.3537 29.3645 79.6739 29.3645 80.0675C29.3645 80.4533 29.2731 80.8043 29.0905 81.1207C28.9078 81.4293 28.6479 81.6724 28.3107 81.8499C27.9805 82.0273 27.5906 82.1161 27.141 82.1161Z" fill="#E8F1FC"/>
<path d="M17.5073 81.9771V74.3498H21.2904V74.8128H17.9921V77.8451H20.7846V78.3081H17.9921V81.9771H17.5073Z" fill="#E8F1FC"/>
<path d="M9.12012 81.9771V74.3498H12.9243V74.8128H9.60486V77.6947H12.3869V78.1576H9.60486V81.5141H13.0297V81.9771H9.12012Z" fill="#E8F1FC"/>
<path d="M2.29726 81.9771L0 74.3498H0.516357L1.80198 78.8058C1.93546 79.2688 2.05489 79.697 2.16027 80.0905C2.27267 80.4763 2.39913 80.9007 2.53963 81.3636H2.58179C2.72229 80.9007 2.84523 80.4763 2.95061 80.0905C3.05599 79.697 3.17542 79.2688 3.3089 78.8058L4.59453 74.3498H5.08981L2.81362 81.9771H2.29726Z" fill="#E8F1FC"/>
<defs>
<linearGradient id="paint0_linear_295_6000" x1="9.5" y1="-5" x2="26.3053" y2="66.1161" gradientUnits="userSpaceOnUse">
<stop stop-color="white"/>
<stop offset="0.387574" stop-color="#E4F1FF"/>
<stop offset="0.905118" stop-color="#A9D1FF"/>
</linearGradient>
</defs>
</svg>
