<svg width="30" height="30" viewBox="0 0 30 30" fill="none" xmlns="http://www.w3.org/2000/svg">
<rect width="30" height="30" rx="15" fill="#7C2D38"/>
<path fill-rule="evenodd" clip-rule="evenodd" d="M8.59185 7.73966C8.7878 7.66329 8.9978 7.62826 9.20842 7.63696C9.41903 7.64566 9.62531 7.69788 9.81407 7.79008C10.0028 7.88228 10.1697 8.01234 10.3044 8.17166C10.319 8.18896 10.3344 8.20564 10.3504 8.22166L21.2264 19.1088L22.0186 22.0166L19.1138 21.2235L8.23781 10.3364C8.21911 10.3177 8.19952 10.2999 8.17909 10.2831C8.01754 10.1501 7.88603 9.98537 7.79262 9.79974C7.69922 9.61413 7.64587 9.41148 7.63576 9.20468C7.62564 8.99788 7.65897 8.79114 7.73375 8.59756C7.80854 8.40398 7.92325 8.22758 8.07089 8.07979C8.21855 7.93198 8.39591 7.81603 8.59185 7.73966ZM9.27578 6.00269C8.84008 5.98469 8.40526 6.05711 7.99898 6.21546C7.59269 6.37382 7.22363 6.61474 6.91549 6.9232C6.60733 7.23167 6.36687 7.60092 6.20976 8.00759C6.05265 8.41427 5.98243 8.84922 6.00372 9.28465C6.02502 9.72008 6.13734 10.1461 6.33332 10.5356C6.52289 10.9123 6.78662 11.2466 7.10835 11.519L18.1118 22.5337C18.2124 22.6343 18.3374 22.707 18.4746 22.7444L22.968 23.9712C23.2509 24.0484 23.5534 23.968 23.7607 23.7604C23.968 23.5529 24.0483 23.2501 23.9712 22.967L22.7457 18.4689C22.7083 18.3316 22.6357 18.2064 22.5352 18.1058L11.528 7.08731C11.2508 6.76705 10.9115 6.50613 10.5306 6.3201C10.1388 6.12872 9.71148 6.02069 9.27578 6.00269Z" fill="white"/>
</svg>
