<svg width="60" height="60" viewBox="0 0 60 60" fill="none" xmlns="http://www.w3.org/2000/svg">
<path d="M36.8591 28.1051C39.7057 28.1051 41.9864 25.5661 41.9864 22.4207C41.9864 19.2753 39.7057 16.7362 36.8591 16.7362C34.0126 16.7362 31.7147 19.2753 31.7147 22.4207C31.7147 25.5661 34.0126 28.1051 36.8591 28.1051ZM23.1408 28.1051C25.9873 28.1051 28.268 25.5661 28.268 22.4207C28.268 19.2753 25.9873 16.7362 23.1408 16.7362C20.2942 16.7362 17.9964 19.2753 17.9964 22.4207C17.9964 25.5661 20.2942 28.1051 23.1408 28.1051ZM23.1408 31.8948C19.1453 31.8948 11.1372 34.1117 11.1372 38.5266V43.2637H35.1443V38.5266C35.1443 34.1117 27.1362 31.8948 23.1408 31.8948ZM36.8591 31.8948C36.3618 31.8948 35.796 31.9327 35.1958 31.9895C37.1849 33.5812 38.5739 35.7223 38.5739 38.5266V43.2637H48.8627V38.5266C48.8627 34.1117 40.8546 31.8948 36.8591 31.8948Z" fill="#ffffff"/>
</svg>
