<svg width="18" height="22" viewBox="0 0 18 22" fill="none" xmlns="http://www.w3.org/2000/svg">
<path d="M5 18.7103C5.73294 19.5407 6.80531 20.0645 8 20.0645C9.19469 20.0645 10.2671 19.5407 11 18.7103M12 1C14.387 2.18623 16.1726 4.40103 16.777 7.06448M13.9974 12.2454V9.06457C13.9974 5.74229 11.3223 3.06457 8 3.06457C4.67772 3.06457 1.96637 5.62813 1.96637 9.06457V12.2238C1.96637 12.707 1.89106 13.187 1.74334 13.6454L1.00488 15.9369C0.984658 15.9996 1.02981 16.0644 1.09375 16.0644H14.8632C14.9308 16.0644 14.9788 15.9986 14.958 15.9342L14.2146 13.6271C14.0707 13.1807 13.9974 12.7145 13.9974 12.2454Z" stroke="#C4ABB0" stroke-width="2" stroke-linecap="round"/>
</svg>
