<svg width="242" height="60" viewBox="0 0 242 60" fill="none" xmlns="http://www.w3.org/2000/svg">
<path d="M41.8954 42.7332H18.1045V25.225H41.8954M36.7973 14.0835V17.2668H23.2025V14.0835H19.8038V17.2668H18.1045C16.2182 17.2668 14.7058 18.6834 14.7058 20.4501V42.7332C14.7058 43.5775 15.0639 44.3871 15.7013 44.9841C16.3386 45.5811 17.2031 45.9165 18.1045 45.9165H41.8954C42.7967 45.9165 43.6612 45.5811 44.2986 44.9841C44.936 44.3871 45.294 43.5775 45.294 42.7332V20.4501C45.294 19.6058 44.936 18.7961 44.2986 18.1992C43.6612 17.6022 42.7967 17.2668 41.8954 17.2668H40.196V14.0835M38.4967 31.5916H29.9999V39.5499H38.4967V31.5916Z" fill="#DB5063"/>
<path d="M88.568 17.772C89.928 17.772 91.04 18.076 91.904 18.684C92.768 19.292 93.2 20.028 93.2 20.892C93.2 21.468 93.016 21.908 92.648 22.212C92.296 22.516 91.8 22.668 91.16 22.668C91.16 21.66 90.912 20.892 90.416 20.364C89.936 19.82 89.232 19.548 88.304 19.548C86.768 19.548 85.584 20.172 84.752 21.42C83.92 22.652 83.504 24.316 83.504 26.412C83.504 28.492 83.904 30.108 84.704 31.26C85.52 32.396 86.8 32.964 88.544 32.964C90.304 32.964 91.792 32.476 93.008 31.5C93.248 31.66 93.368 31.892 93.368 32.196C93.368 32.788 92.824 33.38 91.736 33.972C90.664 34.564 89.392 34.86 87.92 34.86C85.632 34.86 83.888 34.14 82.688 32.7C81.504 31.244 80.896 29.212 80.864 26.604C80.848 23.98 81.504 21.852 82.832 20.22C84.176 18.588 86.088 17.772 88.568 17.772ZM106.087 33.54C106.087 34.42 105.503 34.86 104.335 34.86C103.183 34.86 102.471 34.42 102.199 33.54C101.159 34.42 100.023 34.86 98.7905 34.86C97.5585 34.86 96.6065 34.572 95.9345 33.996C95.2625 33.404 94.9265 32.596 94.9265 31.572C94.9265 30.548 95.3105 29.7 96.0785 29.028C96.8625 28.356 98.1185 28.02 99.8465 28.02C100.599 28.02 101.335 28.084 102.055 28.212V26.868C102.055 24.836 101.263 23.82 99.6785 23.82C99.0385 23.82 98.5265 24.036 98.1425 24.468C97.7745 24.9 97.5745 25.444 97.5425 26.1C96.9985 26.148 96.5425 26.052 96.1745 25.812C95.8225 25.572 95.6465 25.204 95.6465 24.708C95.6465 23.972 96.0225 23.364 96.7745 22.884C97.5425 22.404 98.5745 22.164 99.8705 22.164C101.183 22.164 102.279 22.516 103.159 23.22C104.055 23.924 104.503 25.092 104.503 26.724V33.348L106.087 33.54ZM102.055 29.892C101.415 29.62 100.711 29.484 99.9425 29.484C99.1905 29.484 98.5985 29.644 98.1665 29.964C97.7345 30.284 97.5185 30.74 97.5185 31.332C97.5185 31.908 97.6865 32.356 98.0225 32.676C98.3585 32.996 98.9025 33.156 99.6545 33.156C100.423 33.156 101.223 32.86 102.055 32.268V29.892ZM112.319 34.5H107.279V34.308C107.279 33.924 107.335 33.668 107.447 33.54C107.655 33.284 107.919 33.14 108.239 33.108L109.079 33.06V19.404L108.023 19.308C107.511 19.244 107.255 18.804 107.255 17.988L111.527 17.508V33.012L113.231 33.156C113.327 34.052 113.023 34.5 112.319 34.5ZM117.183 28.452V28.908C117.183 30.236 117.439 31.252 117.951 31.956C118.463 32.66 119.311 33.012 120.495 33.012C121.695 33.012 122.839 32.58 123.927 31.716C124.199 31.908 124.335 32.196 124.335 32.58C124.335 33.092 123.895 33.604 123.015 34.116C122.135 34.612 121.079 34.86 119.847 34.86C118.199 34.86 116.911 34.364 115.983 33.372C115.071 32.364 114.615 30.836 114.615 28.788C114.615 26.74 115.135 25.124 116.175 23.94C117.215 22.756 118.519 22.164 120.087 22.164C121.671 22.164 122.823 22.636 123.543 23.58C124.263 24.524 124.615 25.716 124.599 27.156V28.452H117.183ZM120.015 23.82C118.559 23.82 117.663 24.884 117.327 27.012H122.175C122.127 24.884 121.407 23.82 120.015 23.82ZM139.176 34.5H134.184V34.308C134.184 33.572 134.496 33.172 135.12 33.108L135.96 33.06V27.036C135.96 25.148 135.184 24.204 133.632 24.204C132.992 24.204 132.44 24.308 131.976 24.516C131.512 24.708 131.016 25.036 130.488 25.5V33.012L132.192 33.156C132.288 34.052 131.984 34.5 131.28 34.5H126.24V34.308C126.24 33.924 126.296 33.668 126.408 33.54C126.616 33.284 126.88 33.14 127.2 33.108L128.04 33.06V24.156L126.984 24.036C126.472 23.988 126.216 23.556 126.216 22.74L130.104 22.26L130.32 23.868H130.392C131.624 22.732 132.856 22.164 134.088 22.164C135.32 22.164 136.344 22.564 137.16 23.364C137.992 24.148 138.408 25.372 138.408 27.036V33.012L140.088 33.156C140.184 34.052 139.88 34.5 139.176 34.5ZM153.833 33.492C153.833 34.42 153.217 34.884 151.985 34.884C150.769 34.884 150.065 34.388 149.873 33.396C148.817 34.372 147.625 34.86 146.297 34.86C144.985 34.86 143.865 34.388 142.937 33.444C142.009 32.484 141.529 30.996 141.497 28.98C141.465 26.964 141.953 25.324 142.961 24.06C143.985 22.796 145.449 22.164 147.353 22.164C148.249 22.164 149.073 22.332 149.825 22.668V19.404L148.769 19.308C148.193 19.244 147.937 18.804 148.001 17.988L152.273 17.484V33.324L153.833 33.492ZM149.825 24.924C149.025 24.22 148.097 23.868 147.041 23.868C145.985 23.868 145.217 24.316 144.737 25.212C144.273 26.092 144.041 27.212 144.041 28.572C144.041 29.916 144.297 30.996 144.809 31.812C145.337 32.612 146.073 33.012 147.017 33.012C147.961 33.012 148.897 32.596 149.825 31.764V24.924ZM166.18 33.54C166.18 34.42 165.596 34.86 164.428 34.86C163.276 34.86 162.564 34.42 162.292 33.54C161.252 34.42 160.116 34.86 158.884 34.86C157.652 34.86 156.7 34.572 156.028 33.996C155.356 33.404 155.02 32.596 155.02 31.572C155.02 30.548 155.404 29.7 156.172 29.028C156.956 28.356 158.212 28.02 159.94 28.02C160.692 28.02 161.428 28.084 162.148 28.212V26.868C162.148 24.836 161.356 23.82 159.772 23.82C159.132 23.82 158.62 24.036 158.236 24.468C157.868 24.9 157.668 25.444 157.636 26.1C157.092 26.148 156.636 26.052 156.268 25.812C155.916 25.572 155.74 25.204 155.74 24.708C155.74 23.972 156.116 23.364 156.868 22.884C157.636 22.404 158.668 22.164 159.964 22.164C161.276 22.164 162.372 22.516 163.252 23.22C164.148 23.924 164.596 25.092 164.596 26.724V33.348L166.18 33.54ZM162.148 29.892C161.508 29.62 160.804 29.484 160.036 29.484C159.284 29.484 158.692 29.644 158.26 29.964C157.828 30.284 157.612 30.74 157.612 31.332C157.612 31.908 157.78 32.356 158.116 32.676C158.452 32.996 158.996 33.156 159.748 33.156C160.516 33.156 161.316 32.86 162.148 32.268V29.892ZM171.524 24.204C171.956 23.692 172.524 23.228 173.228 22.812C173.932 22.38 174.532 22.164 175.028 22.164C175.54 22.164 175.956 22.308 176.276 22.596C176.612 22.884 176.78 23.396 176.78 24.132C176.78 24.852 176.564 25.412 176.132 25.812C175.876 26.004 175.468 26.076 174.908 26.028C174.908 25.34 174.836 24.876 174.692 24.636C174.548 24.38 174.316 24.252 173.996 24.252C173.228 24.252 172.428 24.78 171.596 25.836V33.012L173.588 33.156C173.684 34.052 173.372 34.5 172.652 34.5H167.396C167.396 34.5 167.396 34.436 167.396 34.308C167.396 33.572 167.708 33.172 168.332 33.108L169.148 33.06V24.156L167.996 24.036C167.564 23.988 167.348 23.572 167.348 22.788L171.26 22.284L171.452 24.204H171.524Z" fill="#7C2D38"/>
</svg>
