<svg width="242" height="60" viewBox="0 0 242 60" fill="none" xmlns="http://www.w3.org/2000/svg">
<path d="M46.6666 20C46.6666 18.1666 45.1666 16.6666 43.3333 16.6666H16.6666C14.8333 16.6666 13.3333 18.1666 13.3333 20V40C13.3333 41.8333 14.8333 43.3333 16.6666 43.3333H43.3333C45.1666 43.3333 46.6666 41.8333 46.6666 40V20ZM43.3333 20L29.9999 28.3333L16.6666 20H43.3333ZM43.3333 40H16.6666V23.3333L29.9999 31.6666L43.3333 23.3333V40Z" fill="#DB5063"/>
<path d="M80.984 37V36.712C80.984 36.36 81.032 36.128 81.128 36.016C81.224 35.904 81.304 35.816 81.368 35.752C81.512 35.64 81.696 35.584 81.92 35.584L82.76 35.536V22.144L81.032 22C80.936 21.088 81.248 20.632 81.968 20.632H92.336V24.16C92.336 24.816 91.88 25.096 90.968 25L90.752 22.192L85.28 22.12V28.24L89.696 27.808C89.856 28.448 89.864 29.16 89.72 29.944L85.28 29.68V35.488L91.16 35.296L91.376 32.512C92.272 32.416 92.72 32.688 92.72 33.328V37H80.984ZM114.954 37H109.938V36.808C109.938 36.072 110.25 35.672 110.874 35.608L111.666 35.56V29.608C111.666 28.6 111.45 27.872 111.018 27.424C110.602 26.96 109.938 26.728 109.026 26.728C108.13 26.728 107.202 27.168 106.242 28.048C106.37 28.512 106.434 29.04 106.434 29.632V35.512L108.186 35.656C108.282 36.552 107.97 37 107.25 37H102.21V36.808C102.21 36.072 102.522 35.672 103.146 35.608L103.986 35.56V29.608C103.986 27.688 103.162 26.728 101.514 26.728C100.602 26.728 99.6663 27.144 98.7063 27.976V35.512L100.458 35.656C100.554 36.552 100.25 37 99.5463 37H94.4823V36.808C94.4823 36.072 94.7943 35.672 95.4183 35.608L96.2583 35.56V26.632L95.2743 26.56C94.7143 26.512 94.4343 26.072 94.4343 25.24L98.3223 24.76L98.5143 26.296H98.5863C98.9863 25.944 99.3063 25.672 99.5463 25.48C99.8023 25.288 100.178 25.104 100.674 24.928C101.17 24.752 101.722 24.664 102.33 24.664C102.954 24.664 103.578 24.832 104.202 25.168C104.842 25.488 105.354 25.992 105.738 26.68C107.05 25.336 108.41 24.664 109.818 24.664C111.002 24.664 112.01 25.072 112.842 25.888C113.69 26.688 114.114 27.936 114.114 29.632V35.512L115.866 35.656C115.962 36.552 115.658 37 114.954 37ZM128.399 36.04C128.399 36.92 127.815 37.36 126.647 37.36C125.495 37.36 124.783 36.92 124.511 36.04C123.471 36.92 122.335 37.36 121.103 37.36C119.871 37.36 118.919 37.072 118.247 36.496C117.575 35.904 117.239 35.096 117.239 34.072C117.239 33.048 117.623 32.2 118.391 31.528C119.175 30.856 120.431 30.52 122.159 30.52C122.911 30.52 123.647 30.584 124.367 30.712V29.368C124.367 27.336 123.575 26.32 121.991 26.32C121.351 26.32 120.839 26.536 120.455 26.968C120.087 27.4 119.887 27.944 119.855 28.6C119.311 28.648 118.855 28.552 118.487 28.312C118.135 28.072 117.959 27.704 117.959 27.208C117.959 26.472 118.335 25.864 119.087 25.384C119.855 24.904 120.887 24.664 122.183 24.664C123.495 24.664 124.591 25.016 125.471 25.72C126.367 26.424 126.815 27.592 126.815 29.224V35.848L128.399 36.04ZM124.367 32.392C123.727 32.12 123.023 31.984 122.255 31.984C121.503 31.984 120.911 32.144 120.479 32.464C120.047 32.784 119.831 33.24 119.831 33.832C119.831 34.408 119.999 34.856 120.335 35.176C120.671 35.496 121.215 35.656 121.967 35.656C122.735 35.656 123.535 35.36 124.367 34.768V32.392ZM134.679 37H129.615V36.808C129.615 36.072 129.927 35.672 130.551 35.608L131.391 35.56V26.56L130.335 26.44C129.823 26.392 129.567 25.96 129.567 25.144L133.839 24.664V35.512L135.591 35.656C135.687 36.552 135.383 37 134.679 37ZM133.983 21.736C133.983 22.184 133.831 22.56 133.527 22.864C133.239 23.152 132.871 23.296 132.423 23.296C131.991 23.296 131.623 23.152 131.319 22.864C131.031 22.56 130.887 22.184 130.887 21.736C130.887 21.288 131.031 20.92 131.319 20.632C131.623 20.328 131.991 20.176 132.423 20.176C132.871 20.176 133.239 20.328 133.527 20.632C133.831 20.92 133.983 21.288 133.983 21.736ZM142.014 37H136.974V36.808C136.974 36.424 137.03 36.168 137.142 36.04C137.35 35.784 137.614 35.64 137.934 35.608L138.774 35.56V21.904L137.718 21.808C137.206 21.744 136.95 21.304 136.95 20.488L141.222 20.008V35.512L142.926 35.656C143.022 36.552 142.718 37 142.014 37Z" fill="#7C2D38"/>
</svg>
