<svg width="242" height="60" viewBox="0 0 242 60" fill="none" xmlns="http://www.w3.org/2000/svg">
<path d="M14.7058 14.0835H45.294V45.9165H14.7058V14.0835ZM17.7646 17.2668V42.7332H28.4705V17.2668H17.7646ZM31.5293 17.2668V28.4083H42.2352V17.2668H31.5293ZM42.2352 31.5916H31.5293V42.7332H42.2352V31.5916Z" fill="#DB5063"/>
<path d="M89.528 29.512H95.504C95.504 29.512 95.504 29.576 95.504 29.704C95.504 30.456 95.192 30.864 94.568 30.928L93.92 30.976H93.824V34.984C93.36 35.688 92.576 36.264 91.472 36.712C90.368 37.144 89.16 37.36 87.848 37.36C85.608 37.36 83.888 36.64 82.688 35.2C81.504 33.76 80.896 31.728 80.864 29.104C80.848 26.464 81.512 24.328 82.856 22.696C84.2 21.064 86.136 20.248 88.664 20.248C90.424 20.248 91.76 20.552 92.672 21.16C93.584 21.752 94.04 22.488 94.04 23.368C94.04 23.912 93.856 24.352 93.488 24.688C93.136 25.008 92.632 25.168 91.976 25.168C91.976 24 91.688 23.152 91.112 22.624C90.552 22.08 89.64 21.808 88.376 21.808C86.712 21.808 85.48 22.432 84.68 23.68C83.896 24.912 83.504 26.616 83.504 28.792C83.504 33.288 85.192 35.536 88.568 35.536C89.976 35.536 91.04 35.2 91.76 34.528V31.024L88.616 30.88C88.52 29.968 88.824 29.512 89.528 29.512ZM103.691 26.464V26.176C103.691 25.792 103.739 25.544 103.835 25.432C103.931 25.32 104.003 25.24 104.051 25.192C104.163 25.08 104.339 25.024 104.579 25.024H107.987V35.488L108.755 35.536C109.235 35.552 109.475 35.992 109.475 36.856L106.259 37.168L105.827 35.848C104.691 36.856 103.515 37.36 102.299 37.36C101.099 37.36 100.075 36.96 99.2266 36.16C98.3786 35.344 97.9546 34.088 97.9546 32.392V26.512L96.1786 26.464V26.248C96.1786 25.432 96.4826 25.024 97.0906 25.024H100.403V32.392C100.403 34.44 101.243 35.464 102.923 35.464C103.835 35.464 104.707 35.128 105.539 34.456V26.512L103.691 26.464ZM116.023 37H110.959V36.808C110.959 36.072 111.271 35.672 111.895 35.608L112.735 35.56V26.56L111.679 26.44C111.167 26.392 110.911 25.96 110.911 25.144L115.183 24.664V35.512L116.935 35.656C117.031 36.552 116.727 37 116.023 37ZM115.327 21.736C115.327 22.184 115.175 22.56 114.871 22.864C114.583 23.152 114.215 23.296 113.767 23.296C113.335 23.296 112.967 23.152 112.663 22.864C112.375 22.56 112.231 22.184 112.231 21.736C112.231 21.288 112.375 20.92 112.663 20.632C112.967 20.328 113.335 20.176 113.767 20.176C114.215 20.176 114.583 20.328 114.871 20.632C115.175 20.92 115.327 21.288 115.327 21.736ZM130.654 35.992C130.654 36.92 130.038 37.384 128.806 37.384C127.59 37.384 126.886 36.888 126.694 35.896C125.638 36.872 124.446 37.36 123.118 37.36C121.806 37.36 120.686 36.888 119.758 35.944C118.83 34.984 118.35 33.496 118.318 31.48C118.286 29.464 118.774 27.824 119.782 26.56C120.806 25.296 122.27 24.664 124.174 24.664C125.07 24.664 125.894 24.832 126.646 25.168V21.904L125.59 21.808C125.014 21.744 124.758 21.304 124.822 20.488L129.094 19.984V35.824L130.654 35.992ZM126.646 27.424C125.846 26.72 124.918 26.368 123.862 26.368C122.806 26.368 122.038 26.816 121.558 27.712C121.094 28.592 120.862 29.712 120.862 31.072C120.862 32.416 121.118 33.496 121.63 34.312C122.158 35.112 122.894 35.512 123.838 35.512C124.782 35.512 125.718 35.096 126.646 34.264V27.424ZM134.433 30.952V31.408C134.433 32.736 134.689 33.752 135.201 34.456C135.713 35.16 136.561 35.512 137.745 35.512C138.945 35.512 140.089 35.08 141.177 34.216C141.449 34.408 141.585 34.696 141.585 35.08C141.585 35.592 141.145 36.104 140.265 36.616C139.385 37.112 138.329 37.36 137.097 37.36C135.449 37.36 134.161 36.864 133.233 35.872C132.321 34.864 131.865 33.336 131.865 31.288C131.865 29.24 132.385 27.624 133.425 26.44C134.465 25.256 135.769 24.664 137.337 24.664C138.921 24.664 140.073 25.136 140.793 26.08C141.513 27.024 141.865 28.216 141.849 29.656V30.952H134.433ZM137.265 26.32C135.809 26.32 134.913 27.384 134.577 29.512H139.425C139.377 27.384 138.657 26.32 137.265 26.32ZM143.562 28.168C143.562 27.08 144.01 26.224 144.906 25.6C145.802 24.976 146.778 24.664 147.834 24.664C148.906 24.664 149.778 24.84 150.45 25.192C151.138 25.528 151.482 26.064 151.482 26.8C151.482 27.312 151.314 27.704 150.978 27.976C150.642 28.232 150.234 28.328 149.754 28.264C149.77 27.688 149.562 27.208 149.13 26.824C148.698 26.44 148.17 26.248 147.546 26.248C146.938 26.232 146.45 26.352 146.082 26.608C145.73 26.864 145.554 27.2 145.554 27.616C145.554 28.032 145.778 28.384 146.226 28.672C146.69 28.96 147.33 29.272 148.146 29.608C148.978 29.928 149.562 30.176 149.898 30.352C150.234 30.528 150.594 30.76 150.978 31.048C151.714 31.592 152.074 32.4 152.058 33.472C152.058 34.544 151.618 35.464 150.738 36.232C149.874 37 148.698 37.376 147.21 37.36C146.138 37.344 145.194 37.136 144.378 36.736C143.578 36.32 143.178 35.728 143.178 34.96C143.194 34.464 143.37 34.08 143.706 33.808C144.042 33.536 144.442 33.4 144.906 33.4C145.018 34.136 145.314 34.712 145.794 35.128C146.274 35.544 146.874 35.76 147.594 35.776C148.33 35.776 148.914 35.64 149.346 35.368C149.778 35.096 149.994 34.704 149.994 34.192C149.994 33.664 149.802 33.264 149.418 32.992C149.034 32.72 148.466 32.44 147.714 32.152C146.962 31.848 146.394 31.608 146.01 31.432C145.626 31.24 145.226 30.992 144.81 30.688C143.978 30.08 143.562 29.24 143.562 28.168Z" fill="#7C2D38"/>
</svg>
