<svg width="246" height="68" viewBox="0 0 246 68" fill="none" xmlns="http://www.w3.org/2000/svg">
<g filter="url(#filter0_d_466_1109)">
<path d="M18.7058 14.0835H49.294V45.9165H18.7058V14.0835ZM21.7646 17.2668V42.7332H32.4705V17.2668H21.7646ZM35.5293 17.2668V28.4083H46.2352V17.2668H35.5293ZM46.2352 31.5916H35.5293V42.7332H46.2352V31.5916Z" fill="#DB5063"/>
<path d="M93.528 29.512H99.504C99.504 29.512 99.504 29.576 99.504 29.704C99.504 30.456 99.192 30.864 98.568 30.928L97.92 30.976H97.824V34.984C97.36 35.688 96.576 36.264 95.472 36.712C94.368 37.144 93.16 37.36 91.848 37.36C89.608 37.36 87.888 36.64 86.688 35.2C85.504 33.76 84.896 31.728 84.864 29.104C84.848 26.464 85.512 24.328 86.856 22.696C88.2 21.064 90.136 20.248 92.664 20.248C94.424 20.248 95.76 20.552 96.672 21.16C97.584 21.752 98.04 22.488 98.04 23.368C98.04 23.912 97.856 24.352 97.488 24.688C97.136 25.008 96.632 25.168 95.976 25.168C95.976 24 95.688 23.152 95.112 22.624C94.552 22.08 93.64 21.808 92.376 21.808C90.712 21.808 89.48 22.432 88.68 23.68C87.896 24.912 87.504 26.616 87.504 28.792C87.504 33.288 89.192 35.536 92.568 35.536C93.976 35.536 95.04 35.2 95.76 34.528V31.024L92.616 30.88C92.52 29.968 92.824 29.512 93.528 29.512ZM107.691 26.464V26.176C107.691 25.792 107.739 25.544 107.835 25.432C107.931 25.32 108.003 25.24 108.051 25.192C108.163 25.08 108.339 25.024 108.579 25.024H111.987V35.488L112.755 35.536C113.235 35.552 113.475 35.992 113.475 36.856L110.259 37.168L109.827 35.848C108.691 36.856 107.515 37.36 106.299 37.36C105.099 37.36 104.075 36.96 103.227 36.16C102.379 35.344 101.955 34.088 101.955 32.392V26.512L100.179 26.464V26.248C100.179 25.432 100.483 25.024 101.091 25.024H104.403V32.392C104.403 34.44 105.243 35.464 106.923 35.464C107.835 35.464 108.707 35.128 109.539 34.456V26.512L107.691 26.464ZM120.023 37H114.959V36.808C114.959 36.072 115.271 35.672 115.895 35.608L116.735 35.56V26.56L115.679 26.44C115.167 26.392 114.911 25.96 114.911 25.144L119.183 24.664V35.512L120.935 35.656C121.031 36.552 120.727 37 120.023 37ZM119.327 21.736C119.327 22.184 119.175 22.56 118.871 22.864C118.583 23.152 118.215 23.296 117.767 23.296C117.335 23.296 116.967 23.152 116.663 22.864C116.375 22.56 116.231 22.184 116.231 21.736C116.231 21.288 116.375 20.92 116.663 20.632C116.967 20.328 117.335 20.176 117.767 20.176C118.215 20.176 118.583 20.328 118.871 20.632C119.175 20.92 119.327 21.288 119.327 21.736ZM134.654 35.992C134.654 36.92 134.038 37.384 132.806 37.384C131.59 37.384 130.886 36.888 130.694 35.896C129.638 36.872 128.446 37.36 127.118 37.36C125.806 37.36 124.686 36.888 123.758 35.944C122.83 34.984 122.35 33.496 122.318 31.48C122.286 29.464 122.774 27.824 123.782 26.56C124.806 25.296 126.27 24.664 128.174 24.664C129.07 24.664 129.894 24.832 130.646 25.168V21.904L129.59 21.808C129.014 21.744 128.758 21.304 128.822 20.488L133.094 19.984V35.824L134.654 35.992ZM130.646 27.424C129.846 26.72 128.918 26.368 127.862 26.368C126.806 26.368 126.038 26.816 125.558 27.712C125.094 28.592 124.862 29.712 124.862 31.072C124.862 32.416 125.118 33.496 125.63 34.312C126.158 35.112 126.894 35.512 127.838 35.512C128.782 35.512 129.718 35.096 130.646 34.264V27.424ZM138.433 30.952V31.408C138.433 32.736 138.689 33.752 139.201 34.456C139.713 35.16 140.561 35.512 141.745 35.512C142.945 35.512 144.089 35.08 145.177 34.216C145.449 34.408 145.585 34.696 145.585 35.08C145.585 35.592 145.145 36.104 144.265 36.616C143.385 37.112 142.329 37.36 141.097 37.36C139.449 37.36 138.161 36.864 137.233 35.872C136.321 34.864 135.865 33.336 135.865 31.288C135.865 29.24 136.385 27.624 137.425 26.44C138.465 25.256 139.769 24.664 141.337 24.664C142.921 24.664 144.073 25.136 144.793 26.08C145.513 27.024 145.865 28.216 145.849 29.656V30.952H138.433ZM141.265 26.32C139.809 26.32 138.913 27.384 138.577 29.512H143.425C143.377 27.384 142.657 26.32 141.265 26.32ZM147.562 28.168C147.562 27.08 148.01 26.224 148.906 25.6C149.802 24.976 150.778 24.664 151.834 24.664C152.906 24.664 153.778 24.84 154.45 25.192C155.138 25.528 155.482 26.064 155.482 26.8C155.482 27.312 155.314 27.704 154.978 27.976C154.642 28.232 154.234 28.328 153.754 28.264C153.77 27.688 153.562 27.208 153.13 26.824C152.698 26.44 152.17 26.248 151.546 26.248C150.938 26.232 150.45 26.352 150.082 26.608C149.73 26.864 149.554 27.2 149.554 27.616C149.554 28.032 149.778 28.384 150.226 28.672C150.69 28.96 151.33 29.272 152.146 29.608C152.978 29.928 153.562 30.176 153.898 30.352C154.234 30.528 154.594 30.76 154.978 31.048C155.714 31.592 156.074 32.4 156.058 33.472C156.058 34.544 155.618 35.464 154.738 36.232C153.874 37 152.698 37.376 151.21 37.36C150.138 37.344 149.194 37.136 148.378 36.736C147.578 36.32 147.178 35.728 147.178 34.96C147.194 34.464 147.37 34.08 147.706 33.808C148.042 33.536 148.442 33.4 148.906 33.4C149.018 34.136 149.314 34.712 149.794 35.128C150.274 35.544 150.874 35.76 151.594 35.776C152.33 35.776 152.914 35.64 153.346 35.368C153.778 35.096 153.994 34.704 153.994 34.192C153.994 33.664 153.802 33.264 153.418 32.992C153.034 32.72 152.466 32.44 151.714 32.152C150.962 31.848 150.394 31.608 150.01 31.432C149.626 31.24 149.226 30.992 148.81 30.688C147.978 30.08 147.562 29.24 147.562 28.168Z" fill="#7C2D38"/>
</g>
<defs>
<filter id="filter0_d_466_1109" x="0" y="0" width="250" height="68" filterUnits="userSpaceOnUse" color-interpolation-filters="sRGB">
<feFlood flood-opacity="0" result="BackgroundImageFix"/>
<feColorMatrix in="SourceAlpha" type="matrix" values="0 0 0 0 0 0 0 0 0 0 0 0 0 0 0 0 0 0 127 0" result="hardAlpha"/>
<feOffset dy="4"/>
<feGaussianBlur stdDeviation="2"/>
<feComposite in2="hardAlpha" operator="out"/>
<feColorMatrix type="matrix" values="0 0 0 0 0 0 0 0 0 0 0 0 0 0 0 0 0 0 0.25 0"/>
<feBlend mode="normal" in2="BackgroundImageFix" result="effect1_dropShadow_466_1109"/>
<feBlend mode="normal" in="SourceGraphic" in2="effect1_dropShadow_466_1109" result="shape"/>
</filter>
</defs>
</svg>
