<svg width="242" height="60" viewBox="0 0 242 60" fill="none" xmlns="http://www.w3.org/2000/svg">
<rect width="242" height="60" rx="8" fill="#F8DCE0"/>
<path d="M15 45.5V24.8333L30 14.5L45 24.8333V45.5H33.75V33.4444H26.25V45.5H15Z" fill="#DB5063"/>
<path d="M95.96 37H90.824V36.808C90.824 36.424 90.88 36.16 90.992 36.016C91.2 35.76 91.464 35.616 91.784 35.584L92.624 35.536V29.608H85.28V35.488L87.032 35.632C87.128 36.544 86.816 37 86.096 37H80.984V36.808C80.984 36.056 81.296 35.648 81.92 35.584L82.76 35.536V22.144L81.032 22C80.936 21.088 81.24 20.632 81.944 20.632H87.08V20.824C87.08 21.576 86.768 21.984 86.144 22.048L85.28 22.096V28.144H92.624V22.144L90.896 22C90.8 21.088 91.104 20.632 91.808 20.632H96.92V20.824C96.92 21.576 96.608 21.984 95.984 22.048L95.144 22.096V35.488L96.872 35.632C96.968 36.544 96.664 37 95.96 37ZM104.266 26.296C103.338 26.296 102.618 26.736 102.106 27.616C101.594 28.48 101.338 29.632 101.338 31.072C101.338 32.512 101.586 33.656 102.082 34.504C102.578 35.352 103.29 35.776 104.218 35.776C105.162 35.76 105.89 35.344 106.402 34.528C106.914 33.696 107.17 32.56 107.17 31.12C107.17 29.68 106.922 28.512 106.426 27.616C105.93 26.72 105.21 26.28 104.266 26.296ZM98.7703 31.24C98.7703 29.24 99.2663 27.648 100.258 26.464C101.266 25.264 102.61 24.664 104.29 24.664C105.97 24.664 107.29 25.192 108.25 26.248C109.226 27.288 109.714 28.824 109.714 30.856C109.73 32.872 109.234 34.464 108.226 35.632C107.234 36.784 105.858 37.36 104.098 37.36C102.354 37.36 101.034 36.84 100.138 35.8C99.2423 34.76 98.7863 33.24 98.7703 31.24ZM131.993 37H126.977V36.808C126.977 36.072 127.289 35.672 127.913 35.608L128.705 35.56V29.608C128.705 28.6 128.489 27.872 128.057 27.424C127.641 26.96 126.977 26.728 126.065 26.728C125.169 26.728 124.241 27.168 123.281 28.048C123.409 28.512 123.473 29.04 123.473 29.632V35.512L125.225 35.656C125.321 36.552 125.009 37 124.289 37H119.249V36.808C119.249 36.072 119.561 35.672 120.185 35.608L121.025 35.56V29.608C121.025 27.688 120.201 26.728 118.553 26.728C117.641 26.728 116.705 27.144 115.745 27.976V35.512L117.497 35.656C117.593 36.552 117.289 37 116.585 37H111.521V36.808C111.521 36.072 111.833 35.672 112.457 35.608L113.297 35.56V26.632L112.313 26.56C111.753 26.512 111.473 26.072 111.473 25.24L115.361 24.76L115.553 26.296H115.625C116.025 25.944 116.345 25.672 116.585 25.48C116.841 25.288 117.217 25.104 117.713 24.928C118.209 24.752 118.761 24.664 119.369 24.664C119.993 24.664 120.617 24.832 121.241 25.168C121.881 25.488 122.393 25.992 122.777 26.68C124.089 25.336 125.449 24.664 126.857 24.664C128.041 24.664 129.049 25.072 129.881 25.888C130.729 26.688 131.153 27.936 131.153 29.632V35.512L132.905 35.656C133.001 36.552 132.697 37 131.993 37ZM136.87 30.952V31.408C136.87 32.736 137.126 33.752 137.638 34.456C138.15 35.16 138.998 35.512 140.182 35.512C141.382 35.512 142.526 35.08 143.614 34.216C143.886 34.408 144.022 34.696 144.022 35.08C144.022 35.592 143.582 36.104 142.702 36.616C141.822 37.112 140.766 37.36 139.534 37.36C137.886 37.36 136.598 36.864 135.67 35.872C134.758 34.864 134.302 33.336 134.302 31.288C134.302 29.24 134.822 27.624 135.862 26.44C136.902 25.256 138.206 24.664 139.774 24.664C141.358 24.664 142.51 25.136 143.23 26.08C143.95 27.024 144.302 28.216 144.286 29.656V30.952H136.87ZM139.702 26.32C138.246 26.32 137.35 27.384 137.014 29.512H141.862C141.814 27.384 141.094 26.32 139.702 26.32Z" fill="#7C2D38"/>
</svg>
