<svg width="242" height="60" viewBox="0 0 242 60" fill="none" xmlns="http://www.w3.org/2000/svg">
<path d="M36.8591 28.1051C39.7057 28.1051 41.9864 25.5661 41.9864 22.4207C41.9864 19.2753 39.7057 16.7362 36.8591 16.7362C34.0126 16.7362 31.7147 19.2753 31.7147 22.4207C31.7147 25.5661 34.0126 28.1051 36.8591 28.1051ZM23.1408 28.1051C25.9873 28.1051 28.268 25.5661 28.268 22.4207C28.268 19.2753 25.9873 16.7362 23.1408 16.7362C20.2942 16.7362 17.9964 19.2753 17.9964 22.4207C17.9964 25.5661 20.2942 28.1051 23.1408 28.1051ZM23.1408 31.8948C19.1453 31.8948 11.1372 34.1117 11.1372 38.5266V43.2637H35.1443V38.5266C35.1443 34.1117 27.1362 31.8948 23.1408 31.8948ZM36.8591 31.8948C36.3618 31.8948 35.796 31.9327 35.1958 31.9895C37.1849 33.5812 38.5739 35.7223 38.5739 38.5266V43.2637H48.8627V38.5266C48.8627 34.1117 40.8546 31.8948 36.8591 31.8948Z" fill="#DB5063"/>
<path d="M81.824 20.608H87.224C89.192 20.608 90.704 21.024 91.76 21.856C92.816 22.688 93.344 23.816 93.344 25.24C93.344 27.032 92.736 28.392 91.52 29.32C90.32 30.248 88.664 30.712 86.552 30.712H85.28V35.488L87.248 35.632C87.344 36.544 87.032 37 86.312 37H80.984C80.984 37 80.984 36.936 80.984 36.808C80.984 36.056 81.296 35.648 81.92 35.584L82.76 35.536V22.096L81.008 21.952C80.976 21.056 81.248 20.608 81.824 20.608ZM85.28 29.368H86.288C87.712 29.368 88.8 29.032 89.552 28.36C90.32 27.688 90.704 26.736 90.704 25.504C90.704 24.272 90.368 23.352 89.696 22.744C89.024 22.136 88.048 21.864 86.768 21.928L85.28 21.976V29.368ZM97.2841 30.952V31.408C97.2841 32.736 97.5401 33.752 98.0521 34.456C98.5641 35.16 99.4121 35.512 100.596 35.512C101.796 35.512 102.94 35.08 104.028 34.216C104.3 34.408 104.436 34.696 104.436 35.08C104.436 35.592 103.996 36.104 103.116 36.616C102.236 37.112 101.18 37.36 99.9481 37.36C98.3001 37.36 97.0121 36.864 96.0841 35.872C95.1721 34.864 94.7161 33.336 94.7161 31.288C94.7161 29.24 95.2361 27.624 96.2761 26.44C97.3161 25.256 98.6201 24.664 100.188 24.664C101.772 24.664 102.924 25.136 103.644 26.08C104.364 27.024 104.716 28.216 104.7 29.656V30.952H97.2841ZM100.116 26.32C98.6601 26.32 97.7641 27.384 97.4281 29.512H102.276C102.228 27.384 101.508 26.32 100.116 26.32ZM111.813 26.296C110.885 26.296 110.165 26.736 109.653 27.616C109.141 28.48 108.885 29.632 108.885 31.072C108.885 32.512 109.133 33.656 109.629 34.504C110.125 35.352 110.837 35.776 111.765 35.776C112.709 35.76 113.437 35.344 113.949 34.528C114.461 33.696 114.717 32.56 114.717 31.12C114.717 29.68 114.469 28.512 113.973 27.616C113.477 26.72 112.757 26.28 111.813 26.296ZM106.317 31.24C106.317 29.24 106.813 27.648 107.805 26.464C108.813 25.264 110.157 24.664 111.837 24.664C113.517 24.664 114.837 25.192 115.797 26.248C116.773 27.288 117.261 28.824 117.261 30.856C117.277 32.872 116.781 34.464 115.773 35.632C114.781 36.784 113.405 37.36 111.645 37.36C109.901 37.36 108.581 36.84 107.685 35.8C106.789 34.76 106.333 33.24 106.317 31.24ZM122.548 26.2C123.684 25.176 124.908 24.664 126.22 24.664C127.532 24.664 128.652 25.144 129.58 26.104C130.508 27.048 130.988 28.528 131.02 30.544C131.052 32.56 130.556 34.2 129.532 35.464C128.524 36.728 127.068 37.36 125.164 37.36C124.268 37.36 123.444 37.192 122.692 36.856V40.72L124.444 40.864C124.54 41.76 124.228 42.208 123.508 42.208H118.468V42.04C118.468 41.288 118.78 40.88 119.404 40.816L120.244 40.768V26.68L119.116 26.536C118.668 26.488 118.444 26.072 118.444 25.288L122.308 24.808L122.548 26.2ZM122.692 34.624C123.524 35.312 124.46 35.656 125.5 35.656C126.54 35.656 127.292 35.216 127.756 34.336C128.22 33.456 128.452 32.336 128.452 30.976C128.452 29.616 128.196 28.528 127.684 27.712C127.172 26.896 126.444 26.488 125.5 26.488C124.556 26.488 123.62 26.904 122.692 27.736V34.624ZM137.819 37H132.779V36.808C132.779 36.424 132.835 36.168 132.947 36.04C133.155 35.784 133.419 35.64 133.739 35.608L134.579 35.56V21.904L133.523 21.808C133.011 21.744 132.755 21.304 132.755 20.488L137.027 20.008V35.512L138.731 35.656C138.827 36.552 138.523 37 137.819 37ZM142.683 30.952V31.408C142.683 32.736 142.939 33.752 143.451 34.456C143.963 35.16 144.811 35.512 145.995 35.512C147.195 35.512 148.339 35.08 149.427 34.216C149.699 34.408 149.835 34.696 149.835 35.08C149.835 35.592 149.395 36.104 148.515 36.616C147.635 37.112 146.579 37.36 145.347 37.36C143.699 37.36 142.411 36.864 141.483 35.872C140.571 34.864 140.115 33.336 140.115 31.288C140.115 29.24 140.635 27.624 141.675 26.44C142.715 25.256 144.019 24.664 145.587 24.664C147.171 24.664 148.323 25.136 149.043 26.08C149.763 27.024 150.115 28.216 150.099 29.656V30.952H142.683ZM145.515 26.32C144.059 26.32 143.163 27.384 142.827 29.512H147.675C147.627 27.384 146.907 26.32 145.515 26.32Z" fill="#7C2D38"/>
</svg>
