<svg width="242" height="60" viewBox="0 0 242 60" fill="none" xmlns="http://www.w3.org/2000/svg">
<path d="M37.647 26.2303L45.294 30L29.9999 37.5394L14.7058 30L22.3529 26.2303M37.647 34.6074L45.294 38.3771L29.9999 45.9165L14.7058 38.3771L22.3529 34.6074M29.9999 14.0835L45.294 21.6229L29.9999 29.1623L14.7058 21.6229L29.9999 14.0835Z" stroke="#DB5063" stroke-width="3"/>
<path d="M80.984 34.5V34.212C80.984 33.86 81.032 33.628 81.128 33.516C81.224 33.404 81.304 33.316 81.368 33.252C81.512 33.14 81.696 33.084 81.92 33.084L82.76 33.036V19.596L81.008 19.452C80.976 18.556 81.248 18.108 81.824 18.108H87.248C91.04 18.108 92.936 19.5 92.936 22.284C92.936 23.516 92.56 24.54 91.808 25.356C91.056 26.172 89.992 26.716 88.616 26.988C89.576 28.892 90.576 30.372 91.616 31.428C92.656 32.484 93.632 33.012 94.544 33.012C94.496 33.556 94.288 34.004 93.92 34.356C93.568 34.692 93.08 34.86 92.456 34.86C91.848 34.86 91.128 34.436 90.296 33.588C88.744 31.988 87.488 29.852 86.528 27.18C85.984 27.18 85.568 27.172 85.28 27.156V32.988L87.224 33.132C87.304 34.044 87 34.5 86.312 34.5H80.984ZM85.28 19.476V25.812C85.488 25.828 85.776 25.836 86.144 25.836C88.928 25.836 90.32 24.724 90.32 22.5C90.32 20.34 89.136 19.316 86.768 19.428L85.328 19.476H85.28ZM98.081 28.452V28.908C98.081 30.236 98.337 31.252 98.849 31.956C99.361 32.66 100.209 33.012 101.393 33.012C102.593 33.012 103.737 32.58 104.825 31.716C105.097 31.908 105.233 32.196 105.233 32.58C105.233 33.092 104.793 33.604 103.913 34.116C103.033 34.612 101.977 34.86 100.745 34.86C99.097 34.86 97.809 34.364 96.881 33.372C95.969 32.364 95.513 30.836 95.513 28.788C95.513 26.74 96.033 25.124 97.073 23.94C98.113 22.756 99.417 22.164 100.985 22.164C102.569 22.164 103.721 22.636 104.441 23.58C105.161 24.524 105.513 25.716 105.497 27.156V28.452H98.081ZM100.913 23.82C99.457 23.82 98.561 24.884 98.225 27.012H103.073C103.025 24.884 102.305 23.82 100.913 23.82ZM107.21 25.668C107.21 24.58 107.658 23.724 108.554 23.1C109.45 22.476 110.426 22.164 111.482 22.164C112.554 22.164 113.426 22.34 114.098 22.692C114.786 23.028 115.13 23.564 115.13 24.3C115.13 24.812 114.962 25.204 114.626 25.476C114.29 25.732 113.882 25.828 113.402 25.764C113.418 25.188 113.21 24.708 112.778 24.324C112.346 23.94 111.818 23.748 111.194 23.748C110.586 23.732 110.098 23.852 109.73 24.108C109.378 24.364 109.202 24.7 109.202 25.116C109.202 25.532 109.426 25.884 109.874 26.172C110.338 26.46 110.978 26.772 111.794 27.108C112.626 27.428 113.21 27.676 113.546 27.852C113.882 28.028 114.242 28.26 114.626 28.548C115.362 29.092 115.722 29.9 115.706 30.972C115.706 32.044 115.266 32.964 114.386 33.732C113.522 34.5 112.346 34.876 110.858 34.86C109.786 34.844 108.842 34.636 108.026 34.236C107.226 33.82 106.826 33.228 106.826 32.46C106.842 31.964 107.018 31.58 107.354 31.308C107.69 31.036 108.09 30.9 108.554 30.9C108.666 31.636 108.962 32.212 109.442 32.628C109.922 33.044 110.522 33.26 111.242 33.276C111.978 33.276 112.562 33.14 112.994 32.868C113.426 32.596 113.642 32.204 113.642 31.692C113.642 31.164 113.45 30.764 113.066 30.492C112.682 30.22 112.114 29.94 111.362 29.652C110.61 29.348 110.042 29.108 109.658 28.932C109.274 28.74 108.874 28.492 108.458 28.188C107.626 27.58 107.21 26.74 107.21 25.668ZM122.665 23.796C121.737 23.796 121.017 24.236 120.505 25.116C119.993 25.98 119.737 27.132 119.737 28.572C119.737 30.012 119.985 31.156 120.481 32.004C120.977 32.852 121.689 33.276 122.617 33.276C123.561 33.26 124.289 32.844 124.801 32.028C125.313 31.196 125.569 30.06 125.569 28.62C125.569 27.18 125.321 26.012 124.825 25.116C124.329 24.22 123.609 23.78 122.665 23.796ZM117.169 28.74C117.169 26.74 117.665 25.148 118.657 23.964C119.665 22.764 121.009 22.164 122.689 22.164C124.369 22.164 125.689 22.692 126.649 23.748C127.625 24.788 128.113 26.324 128.113 28.356C128.129 30.372 127.633 31.964 126.625 33.132C125.633 34.284 124.257 34.86 122.497 34.86C120.753 34.86 119.433 34.34 118.537 33.3C117.641 32.26 117.185 30.74 117.169 28.74ZM136.808 23.964V23.676C136.808 23.292 136.856 23.044 136.952 22.932C137.048 22.82 137.12 22.74 137.168 22.692C137.28 22.58 137.456 22.524 137.696 22.524H141.104V32.988L141.872 33.036C142.352 33.052 142.592 33.492 142.592 34.356L139.376 34.668L138.944 33.348C137.808 34.356 136.632 34.86 135.416 34.86C134.216 34.86 133.192 34.46 132.344 33.66C131.496 32.844 131.072 31.588 131.072 29.892V24.012L129.296 23.964V23.748C129.296 22.932 129.6 22.524 130.208 22.524H133.52V29.892C133.52 31.94 134.36 32.964 136.04 32.964C136.952 32.964 137.824 32.628 138.656 31.956V24.012L136.808 23.964ZM148.204 24.204C148.636 23.692 149.204 23.228 149.908 22.812C150.612 22.38 151.212 22.164 151.708 22.164C152.22 22.164 152.636 22.308 152.956 22.596C153.292 22.884 153.46 23.396 153.46 24.132C153.46 24.852 153.244 25.412 152.812 25.812C152.556 26.004 152.148 26.076 151.588 26.028C151.588 25.34 151.516 24.876 151.372 24.636C151.228 24.38 150.996 24.252 150.676 24.252C149.908 24.252 149.108 24.78 148.276 25.836V33.012L150.268 33.156C150.364 34.052 150.052 34.5 149.332 34.5H144.076C144.076 34.5 144.076 34.436 144.076 34.308C144.076 33.572 144.388 33.172 145.012 33.108L145.828 33.06V24.156L144.676 24.036C144.244 23.988 144.028 23.572 144.028 22.788L147.94 22.284L148.132 24.204H148.204ZM160.22 22.164C161.324 22.164 162.212 22.396 162.884 22.86C163.572 23.324 163.916 23.9 163.916 24.588C163.916 25.276 163.732 25.748 163.364 26.004C162.996 26.26 162.58 26.364 162.116 26.316C162.1 25.676 161.908 25.108 161.54 24.612C161.172 24.116 160.62 23.868 159.884 23.868C158.94 23.868 158.212 24.284 157.7 25.116C157.188 25.932 156.932 27.028 156.932 28.404C156.932 31.46 158.116 32.988 160.484 32.988C161.556 32.988 162.612 32.564 163.652 31.716C163.78 31.796 163.884 31.932 163.964 32.124C164.044 32.3 164.084 32.452 164.084 32.58C164.084 33.076 163.62 33.58 162.692 34.092C161.764 34.604 160.724 34.86 159.572 34.86C157.94 34.86 156.668 34.324 155.756 33.252C154.844 32.164 154.38 30.66 154.364 28.74C154.364 26.804 154.892 25.228 155.948 24.012C157.004 22.78 158.428 22.164 160.22 22.164ZM168.112 28.452V28.908C168.112 30.236 168.368 31.252 168.88 31.956C169.392 32.66 170.24 33.012 171.424 33.012C172.624 33.012 173.768 32.58 174.856 31.716C175.128 31.908 175.264 32.196 175.264 32.58C175.264 33.092 174.824 33.604 173.944 34.116C173.064 34.612 172.008 34.86 170.776 34.86C169.128 34.86 167.84 34.364 166.912 33.372C166 32.364 165.544 30.836 165.544 28.788C165.544 26.74 166.064 25.124 167.104 23.94C168.144 22.756 169.448 22.164 171.016 22.164C172.6 22.164 173.752 22.636 174.472 23.58C175.192 24.524 175.544 25.716 175.528 27.156V28.452H168.112ZM170.944 23.82C169.488 23.82 168.592 24.884 168.256 27.012H173.104C173.056 24.884 172.336 23.82 170.944 23.82ZM177.241 25.668C177.241 24.58 177.689 23.724 178.585 23.1C179.481 22.476 180.457 22.164 181.513 22.164C182.585 22.164 183.457 22.34 184.129 22.692C184.817 23.028 185.161 23.564 185.161 24.3C185.161 24.812 184.993 25.204 184.657 25.476C184.321 25.732 183.913 25.828 183.433 25.764C183.449 25.188 183.241 24.708 182.809 24.324C182.377 23.94 181.849 23.748 181.225 23.748C180.617 23.732 180.129 23.852 179.761 24.108C179.409 24.364 179.233 24.7 179.233 25.116C179.233 25.532 179.457 25.884 179.905 26.172C180.369 26.46 181.009 26.772 181.825 27.108C182.657 27.428 183.241 27.676 183.577 27.852C183.913 28.028 184.273 28.26 184.657 28.548C185.393 29.092 185.753 29.9 185.737 30.972C185.737 32.044 185.297 32.964 184.417 33.732C183.553 34.5 182.377 34.876 180.889 34.86C179.817 34.844 178.873 34.636 178.057 34.236C177.257 33.82 176.857 33.228 176.857 32.46C176.873 31.964 177.049 31.58 177.385 31.308C177.721 31.036 178.121 30.9 178.585 30.9C178.697 31.636 178.993 32.212 179.473 32.628C179.953 33.044 180.553 33.26 181.273 33.276C182.009 33.276 182.593 33.14 183.025 32.868C183.457 32.596 183.673 32.204 183.673 31.692C183.673 31.164 183.481 30.764 183.097 30.492C182.713 30.22 182.145 29.94 181.393 29.652C180.641 29.348 180.073 29.108 179.689 28.932C179.305 28.74 178.905 28.492 178.489 28.188C177.657 27.58 177.241 26.74 177.241 25.668Z" fill="#7C2D38"/>
</svg>
