<svg width="58" height="57" viewBox="0 0 58 57" fill="none" xmlns="http://www.w3.org/2000/svg">
<path fill-rule="evenodd" clip-rule="evenodd" d="M29 0C12.9775 0 0 12.7537 0 28.5C0 41.1112 8.30125 51.7631 19.8287 55.5394C21.2787 55.7888 21.8225 54.9338 21.8225 54.1856C21.8225 53.5088 21.7863 51.2644 21.7863 48.8775C14.5 50.1956 12.615 47.1319 12.035 45.5287C11.7087 44.7094 10.295 42.18 9.0625 41.5031C8.0475 40.9687 6.5975 39.6506 9.02625 39.615C11.31 39.5794 12.9413 41.6812 13.485 42.5362C16.095 46.8469 20.2638 45.6356 21.9313 44.8875C22.185 43.035 22.9462 41.7881 23.78 41.0756C17.3275 40.3631 10.585 37.905 10.585 27.0037C10.585 23.9044 11.7088 21.3394 13.5575 19.3444C13.2675 18.6319 12.2525 15.7106 13.8475 11.7919C13.8475 11.7919 16.2763 11.0438 21.8225 14.7131C24.1425 14.0719 26.6075 13.7512 29.0725 13.7512C31.5375 13.7512 34.0025 14.0719 36.3225 14.7131C41.8688 11.0081 44.2975 11.7919 44.2975 11.7919C45.8925 15.7106 44.8775 18.6319 44.5875 19.3444C46.4363 21.3394 47.56 23.8687 47.56 27.0037C47.56 37.9406 40.7813 40.3631 34.3288 41.0756C35.38 41.9662 36.2863 43.6763 36.2863 46.3481C36.2863 50.16 36.25 53.2238 36.25 54.1856C36.25 54.9338 36.7938 55.8244 38.2438 55.5394C49.6988 51.7631 58 41.0756 58 28.5C58 12.7537 45.0225 0 29 0Z" fill="#1B1F23"/>
</svg>
