<svg width="57" height="57" viewBox="0 0 57 57" fill="none" xmlns="http://www.w3.org/2000/svg">
<g clip-path="url(#clip0_188_2714)">
<path d="M20.2617 57.4453C25.5609 57.4453 29.8359 53.1703 29.8359 47.8711V38.2969H20.2617C14.9625 38.2969 10.6875 42.5719 10.6875 47.8711C10.6875 53.1703 14.9625 57.4453 20.2617 57.4453Z" fill="#0ACF83"/>
<path d="M10.6875 28.7227C10.6875 23.4234 14.9625 19.1484 20.2617 19.1484H29.8359V38.2969H20.2617C14.9625 38.2969 10.6875 34.0219 10.6875 28.7227Z" fill="#A259FF"/>
<path d="M10.6875 9.57422C10.6875 4.275 14.9625 0 20.2617 0H29.8359V19.1484H20.2617C14.9625 19.1484 10.6875 14.8734 10.6875 9.57422Z" fill="#F24E1E"/>
<path d="M29.8359 0H39.4102C44.7094 0 48.9844 4.275 48.9844 9.57422C48.9844 14.8734 44.7094 19.1484 39.4102 19.1484H29.8359V0Z" fill="#FF7262"/>
<path d="M48.9844 28.7227C48.9844 34.0219 44.7094 38.2969 39.4102 38.2969C34.1109 38.2969 29.8359 34.0219 29.8359 28.7227C29.8359 23.4234 34.1109 19.1484 39.4102 19.1484C44.7094 19.1484 48.9844 23.4234 48.9844 28.7227Z" fill="#1ABCFE"/>
</g>
<defs>
<clipPath id="clip0_188_2714">
<rect width="57" height="57" fill="white"/>
</clipPath>
</defs>
</svg>
