<svg width="4530" height="2543" viewBox="0 0 4530 2543" fill="none" xmlns="http://www.w3.org/2000/svg">
<g opacity="0.08">
<path d="M0 54.772C669.641 72.2302 651.56 469.401 1050.6 700.097C1449.64 930.793 1139.45 1256.57 1692.81 1491.95C2233.97 1722.13 2389.37 1859.94 2389.57 1860.12C2744.97 1886.31 2673.27 1860.12 3112.84 1860.12C3529.15 1860.12 3850.13 1736.67 4060.56 1756.93C4209.34 1771.26 4409.54 1933.63 4521.79 2062.8V2531.42H4529.76C4529.75 2531.49 4529.75 2531.56 4529.75 2531.64H0V54.772Z" fill="url(#paint0_linear_1555_6915)"/>
<path d="M3966.52 207.53C4202.09 152.194 4291.85 -101.567 4524.39 44.9643V651.189L4499.61 2523.84H24.4248C17.6425 2510.49 10.8315 2496.71 4 2482.54V764.405C547.45 751.46 668.982 1141.6 1170.11 1253.46C1693.85 1370.36 3170 753.095 3316.52 587.867C3463.04 422.639 3502.01 316.643 3966.52 207.53Z" fill="url(#paint1_linear_1555_6915)"/>
<path d="M3523.31 1085.11C3972.1 1085.11 4433.07 359.735 4525.44 540.184V2526.96L4.63379 2543L3 2531.42H5.04199V1361.38C459.994 1209.27 773.08 1540.27 1076.07 1568.32C1412.76 1599.5 1613.84 1827.32 2145.37 1619.11C2676.91 1410.89 3118.04 1085.11 3523.31 1085.11Z" fill="url(#paint2_linear_1555_6915)"/>
</g>
<defs>
<linearGradient id="paint0_linear_1555_6915" x1="255.391" y1="883.687" x2="1071.54" y2="-159.019" gradientUnits="userSpaceOnUse">
<stop stop-color="#D9D9D9" stop-opacity="0"/>
<stop offset="1"/>
</linearGradient>
<linearGradient id="paint1_linear_1555_6915" x1="2048.67" y1="1598.65" x2="1786.3" y2="417.98" gradientUnits="userSpaceOnUse">
<stop stop-color="#D9D9D9" stop-opacity="0"/>
<stop offset="1"/>
</linearGradient>
<linearGradient id="paint2_linear_1555_6915" x1="1829.52" y1="2471.33" x2="1839.82" y2="-447.843" gradientUnits="userSpaceOnUse">
<stop stop-color="white"/>
<stop offset="1"/>
</linearGradient>
</defs>
</svg>
