<svg width="41" height="39" viewBox="0 0 41 39" fill="none" xmlns="http://www.w3.org/2000/svg">
<rect x="1" y="0.843018" width="39" height="37.3139" rx="7.5" fill="#FAF7F2"/>
<rect x="1" y="0.843018" width="39" height="37.3139" rx="7.5" stroke="#7C444F"/>
<path d="M11.7321 28.2541L18.0961 21.8901M26.1101 19.0601L24.2051 24.7751C24.1747 24.8667 24.1226 24.9497 24.0534 25.0168C23.9841 25.084 23.8996 25.1335 23.8071 25.1611L12.1291 28.6321C12.0239 28.6634 11.9121 28.6652 11.806 28.6373C11.6998 28.6094 11.6033 28.553 11.527 28.4741C11.4507 28.3952 11.3975 28.2969 11.3732 28.1899C11.3489 28.0829 11.3544 27.9712 11.3891 27.8671L15.1811 16.4931C15.2083 16.4115 15.2527 16.3366 15.3114 16.2736C15.37 16.2106 15.4416 16.161 15.5211 16.1281L20.9081 13.9101C21.0176 13.8649 21.1381 13.8531 21.2543 13.8762C21.3705 13.8994 21.4773 13.9564 21.5611 14.0401L25.9651 18.4461C26.0439 18.5249 26.0992 18.6241 26.1248 18.7325C26.1504 18.841 26.1453 18.9544 26.1101 19.0601Z" stroke="#7C444F" stroke-width="1.5" stroke-linecap="round" stroke-linejoin="round"/>
<path d="M26.2281 18.7081L29.0561 15.8791C29.4311 15.504 29.6417 14.9954 29.6417 14.4651C29.6417 13.9348 29.4311 13.4261 29.0561 13.0511L26.9361 10.9291C26.7504 10.7433 26.5299 10.5959 26.2872 10.4953C26.0445 10.3948 25.7843 10.343 25.5216 10.343C25.2589 10.343 24.9988 10.3948 24.7561 10.4953C24.5134 10.5959 24.2928 10.7433 24.1071 10.9291L21.2791 13.7581M20.2171 19.7681C20.0778 19.6288 19.9124 19.5184 19.7304 19.443C19.5483 19.3677 19.3533 19.3289 19.1563 19.329C18.9593 19.329 18.7642 19.3679 18.5822 19.4433C18.4002 19.5187 18.2349 19.6293 18.0956 19.7686C17.9564 19.9079 17.8459 20.0733 17.7705 20.2553C17.6952 20.4374 17.6564 20.6324 17.6565 20.8294C17.6565 21.0264 17.6954 21.2215 17.7708 21.4035C17.8463 21.5855 17.9568 21.7508 18.0961 21.8901C18.3775 22.1714 18.7591 22.3293 19.157 22.3292C19.5548 22.3291 19.9364 22.171 20.2176 21.8896C20.4989 21.6082 20.6568 21.2266 20.6567 20.8287C20.6567 20.4309 20.4985 20.0494 20.2171 19.7681Z" stroke="#7C444F" stroke-width="1.5" stroke-linecap="round" stroke-linejoin="round"/>
</svg>
