<svg width="41" height="43" viewBox="0 0 41 43" fill="none" xmlns="http://www.w3.org/2000/svg">
<rect x="1" y="1.16516" width="39" height="40.6697" rx="7.5" fill="#FAF7F2"/>
<rect x="1" y="1.16516" width="39" height="40.6697" rx="7.5" stroke="#7C444F"/>
<path d="M16.4715 11.5C15.4031 11.5 14.3785 11.9515 13.623 12.7553C12.8675 13.559 12.4431 14.6491 12.4431 15.7857V17.4229C12.443 17.9536 12.3041 18.4738 12.0418 18.9252C11.7795 19.3766 11.4041 19.7413 10.9579 19.9786L10.5 20.2214V22.7786L10.9579 23.0214C11.4043 23.2588 11.7798 23.6237 12.0421 24.0754C12.3045 24.5271 12.4433 25.0476 12.4431 25.5786V27.2143C12.4431 28.3509 12.8675 29.441 13.623 30.2447C14.3785 31.0485 15.4031 31.5 16.4715 31.5H19.1572V28.6429H16.4715C16.1154 28.6429 15.7738 28.4923 15.522 28.2244C15.2702 27.9565 15.1287 27.5932 15.1287 27.2143V25.5771C15.1288 24.818 14.9867 24.0665 14.7107 23.3665C14.4347 22.6665 14.0304 22.0319 13.5214 21.5C14.0304 20.9681 14.4347 20.3335 14.7107 19.6335C14.9867 18.9335 15.1288 18.182 15.1287 17.4229V15.7857C15.1287 15.4068 15.2702 15.0435 15.522 14.7756C15.7738 14.5077 16.1154 14.3571 16.4715 14.3571H19.1572V11.5H16.4715ZM24.5285 31.5C25.5969 31.5 26.6215 31.0485 27.377 30.2447C28.1325 29.441 28.5569 28.3509 28.5569 27.2143V25.5771C28.557 25.0464 28.6959 24.5262 28.9582 24.0748C29.2205 23.6234 29.5959 23.2587 30.0421 23.0214L30.5 22.7786V20.2214L30.0421 19.9786C29.5957 19.7412 29.2202 19.3763 28.9579 18.9246C28.6955 18.4729 28.5567 17.9524 28.5569 17.4214V15.7857C28.5569 14.6491 28.1325 13.559 27.377 12.7553C26.6215 11.9515 25.5969 11.5 24.5285 11.5H21.8428V14.3571H24.5285C24.8846 14.3571 25.2262 14.5077 25.478 14.7756C25.7298 15.0435 25.8713 15.4068 25.8713 15.7857V17.4229C25.8712 18.182 26.0133 18.9335 26.2893 19.6335C26.5653 20.3335 26.9696 20.9681 27.4786 21.5C26.9696 22.0319 26.5653 22.6665 26.2893 23.3665C26.0133 24.0665 25.8712 24.818 25.8713 25.5771V27.2143C25.8713 27.5932 25.7298 27.9565 25.478 28.2244C25.2262 28.4923 24.8846 28.6429 24.5285 28.6429H21.8428V31.5H24.5285Z" fill="#7C444F"/>
</svg>
