<svg width="41" height="43" viewBox="0 0 41 43" fill="none" xmlns="http://www.w3.org/2000/svg">
<rect x="1" y="1.16516" width="39" height="40.6697" rx="7.5" fill="#FAF7F2"/>
<rect x="1" y="1.16516" width="39" height="40.6697" rx="7.5" stroke="#7C444F"/>
<path fill-rule="evenodd" clip-rule="evenodd" d="M23.4983 10.6652C24.3108 10.6651 25.1041 10.9125 25.7725 11.3744C26.4409 11.8363 26.9529 12.4908 27.2402 13.2508C27.5274 14.0109 27.5765 14.8403 27.3807 15.6289C27.1849 16.4175 26.7537 17.1277 26.1443 17.6652C26.8896 18.321 27.3645 19.2305 27.4765 20.217C27.5884 21.2034 27.3296 22.1963 26.7502 23.0025C26.1708 23.8087 25.3124 24.3706 24.3417 24.5791C23.371 24.7875 22.3575 24.6275 21.4983 24.1302V26.6652C21.4983 27.3335 21.3307 27.9913 21.011 28.5782C20.6913 29.1652 20.2296 29.6627 19.6681 30.0253C19.1066 30.3878 18.4632 30.6039 17.7967 30.6538C17.1302 30.7037 16.4618 30.5857 15.8526 30.3107C15.2434 30.0357 14.7128 29.6125 14.3093 29.0796C13.9059 28.5467 13.6423 27.9213 13.5429 27.2603C13.4434 26.5994 13.5111 25.924 13.7398 25.296C13.9686 24.668 14.351 24.1073 14.8523 23.6652C14.4267 23.2898 14.0859 22.8281 13.8524 22.3109C13.619 21.7936 13.4983 21.2326 13.4983 20.6652C13.4983 20.0977 13.619 19.5367 13.8524 19.0194C14.0859 18.5022 14.4267 18.0406 14.8523 17.6652C14.2429 17.1277 13.8116 16.4175 13.6159 15.6289C13.4201 14.8403 13.4691 14.0109 13.7564 13.2508C14.0437 12.4908 14.5556 11.8363 15.2241 11.3744C15.8925 10.9125 16.6858 10.6651 17.4983 10.6652H23.4983ZM19.4983 24.6652H17.4983C17.1027 24.6652 16.7161 24.7825 16.3872 25.0022C16.0583 25.222 15.8019 25.5343 15.6505 25.8998C15.4992 26.2652 15.4596 26.6674 15.5367 27.0553C15.6139 27.4433 15.8044 27.7997 16.0841 28.0794C16.3638 28.3591 16.7202 28.5496 17.1081 28.6267C17.4961 28.7039 17.8982 28.6643 18.2637 28.5129C18.6291 28.3615 18.9415 28.1052 19.1612 27.7763C19.381 27.4474 19.4983 27.0607 19.4983 26.6652V24.6652ZM19.4983 18.6652H17.4983C16.9679 18.6652 16.4592 18.8759 16.0841 19.2509C15.709 19.626 15.4983 20.1347 15.4983 20.6652C15.4983 21.1956 15.709 21.7043 16.0841 22.0794C16.4592 22.4544 16.9679 22.6652 17.4983 22.6652H19.4983V18.6652ZM23.4983 18.6652C22.9679 18.6652 22.4592 18.8759 22.0841 19.2509C21.709 19.626 21.4983 20.1347 21.4983 20.6652C21.4983 21.1956 21.709 21.7043 22.0841 22.0794C22.4592 22.4544 22.9679 22.6652 23.4983 22.6652C24.0287 22.6652 24.5374 22.4544 24.9125 22.0794C25.2876 21.7043 25.4983 21.1956 25.4983 20.6652C25.4983 20.1347 25.2876 19.626 24.9125 19.2509C24.5374 18.8759 24.0287 18.6652 23.4983 18.6652ZM23.4983 12.6652H21.4983V16.6652H23.4983C24.0173 16.6675 24.5168 16.468 24.8914 16.1088C25.2661 15.7496 25.4864 15.2588 25.5058 14.7402C25.5253 14.2216 25.3424 13.7157 24.9958 13.3294C24.6492 12.9432 24.166 12.7068 23.6483 12.6702L23.4983 12.6652ZM19.4983 12.6652H17.4983C16.9679 12.6652 16.4592 12.8759 16.0841 13.2509C15.709 13.626 15.4983 14.1347 15.4983 14.6652C15.4983 15.1956 15.709 15.7043 16.0841 16.0794C16.4592 16.4544 16.9679 16.6652 17.4983 16.6652H19.4983V12.6652Z" fill="#7C444F"/>
</svg>
