<svg width="41" height="43" viewBox="0 0 41 43" fill="none" xmlns="http://www.w3.org/2000/svg">
<rect x="1" y="1.16516" width="39" height="40.6697" rx="7.5" fill="#FAF7F2"/>
<rect x="1" y="1.16516" width="39" height="40.6697" rx="7.5" stroke="#DB5063"/>
<path d="M25.5 24.5H20.5M15.5 19.5L15.734 19.695C17.016 20.763 17.657 21.297 17.657 22C17.657 22.703 17.017 23.237 15.734 24.305L15.5 24.5" stroke="#DB5063" stroke-width="1.5" stroke-linecap="round"/>
<path d="M30.5 21.5C30.5 26.214 30.5 28.571 29.035 30.035C27.572 31.5 25.214 31.5 20.5 31.5C15.786 31.5 13.429 31.5 11.964 30.035C10.5 28.572 10.5 26.214 10.5 21.5C10.5 16.786 10.5 14.429 11.964 12.964C13.43 11.5 15.786 11.5 20.5 11.5C25.214 11.5 27.571 11.5 29.035 12.964C30.009 13.938 30.335 15.307 30.445 17.5" stroke="#DB5063" stroke-width="1.5" stroke-linecap="round"/>
</svg>
