<svg width="41" height="43" viewBox="0 0 41 43" fill="none" xmlns="http://www.w3.org/2000/svg">
<rect x="1" y="1.16516" width="39" height="40.6697" rx="7.5" fill="#FAF7F2"/>
<rect x="1" y="1.16516" width="39" height="40.6697" rx="7.5" stroke="#DB5063"/>
<path d="M28.5013 24V16C28.5013 14.114 28.5013 13.172 27.9153 12.586C27.3293 12 26.3873 12 24.5013 12H16.5013C14.6153 12 13.6733 12 13.0873 12.586C12.5013 13.172 12.5013 14.114 12.5013 16V24M11.9993 25.015L12.5213 24H28.4533L29.0033 25.015C30.4463 27.677 30.8063 29.008 30.2573 30.004C29.7083 31 28.2553 31 25.3473 31H15.6553C12.7463 31 11.2923 31 10.7443 30.004C10.1953 29.008 10.5553 27.677 11.9993 25.015Z" stroke="#DB5063" stroke-width="1.5" stroke-linecap="round" stroke-linejoin="round"/>
<path d="M24.0013 16.5L24.9213 17.293C25.3083 17.626 25.5013 17.793 25.5013 18C25.5013 18.207 25.3083 18.374 24.9213 18.707L24.0013 19.5M17.0013 16.5L16.0813 17.293C15.6943 17.626 15.5013 17.793 15.5013 18C15.5013 18.207 15.6943 18.374 16.0813 18.707L17.0013 19.5M21.5013 15.5L19.5013 20.5" stroke="#DB5063" stroke-width="1.5" stroke-linecap="round" stroke-linejoin="round"/>
</svg>
