<svg width="41" height="39" viewBox="0 0 41 39" fill="none" xmlns="http://www.w3.org/2000/svg">
<rect x="1" y="1" width="39" height="37" rx="7.5" fill="#FAF7F2"/>
<rect x="1" y="1" width="39" height="37" rx="7.5" stroke="#DB5063"/>
<path d="M21.25 18.75C21.25 18.1533 21.4871 17.581 21.909 17.159C22.331 16.7371 22.9033 16.5 23.5 16.5H25.75C25.9489 16.5 26.1397 16.579 26.2803 16.7197C26.421 16.8603 26.5 17.0511 26.5 17.25C26.5 17.4489 26.421 17.6397 26.2803 17.7803C26.1397 17.921 25.9489 18 25.75 18H23.5C23.3011 18 23.1103 18.079 22.9697 18.2197C22.829 18.3603 22.75 18.5511 22.75 18.75V19.5C22.75 19.6989 22.829 19.8897 22.9697 20.0303C23.1103 20.171 23.3011 20.25 23.5 20.25H24.25C24.8467 20.25 25.419 20.4871 25.841 20.909C26.2629 21.331 26.5 21.9033 26.5 22.5V23.25C26.5 23.8467 26.2629 24.419 25.841 24.841C25.419 25.2629 24.8467 25.5 24.25 25.5H22C21.8011 25.5 21.6103 25.421 21.4697 25.2803C21.329 25.1397 21.25 24.9489 21.25 24.75C21.25 24.5511 21.329 24.3603 21.4697 24.2197C21.6103 24.079 21.8011 24 22 24H24.25C24.4489 24 24.6397 23.921 24.7803 23.7803C24.921 23.6397 25 23.4489 25 23.25V22.5C25 22.3011 24.921 22.1103 24.7803 21.9697C24.6397 21.829 24.4489 21.75 24.25 21.75H23.5C22.9033 21.75 22.331 21.5129 21.909 21.091C21.4871 20.669 21.25 20.0967 21.25 19.5V18.75ZM20.5 17.25C20.5 17.0511 20.421 16.8603 20.2803 16.7197C20.1397 16.579 19.9489 16.5 19.75 16.5C19.5511 16.5 19.3603 16.579 19.2197 16.7197C19.079 16.8603 19 17.0511 19 17.25V23.25C19 23.4489 18.921 23.6397 18.7803 23.7803C18.6397 23.921 18.4489 24 18.25 24H16.75C16.5511 24 16.3603 24.079 16.2197 24.2197C16.079 24.3603 16 24.5511 16 24.75C16 24.9489 16.079 25.1397 16.2197 25.2803C16.3603 25.421 16.5511 25.5 16.75 25.5H18.25C18.8467 25.5 19.419 25.2629 19.841 24.841C20.2629 24.419 20.5 23.8467 20.5 23.25V17.25ZM11.5 14.25C11.5 13.2554 11.8951 12.3016 12.5983 11.5983C13.3016 10.8951 14.2554 10.5 15.25 10.5H25.75C26.7446 10.5 27.6984 10.8951 28.4016 11.5983C29.1049 12.3016 29.5 13.2554 29.5 14.25V24.75C29.5 25.7446 29.1049 26.6984 28.4016 27.4016C27.6984 28.1049 26.7446 28.5 25.75 28.5H15.25C14.2554 28.5 13.3016 28.1049 12.5983 27.4016C11.8951 26.6984 11.5 25.7446 11.5 24.75V14.25ZM15.25 12C14.6533 12 14.081 12.2371 13.659 12.659C13.2371 13.081 13 13.6533 13 14.25V24.75C13 25.3467 13.2371 25.919 13.659 26.341C14.081 26.7629 14.6533 27 15.25 27H25.75C26.3467 27 26.919 26.7629 27.341 26.341C27.7629 25.919 28 25.3467 28 24.75V14.25C28 13.6533 27.7629 13.081 27.341 12.659C26.919 12.2371 26.3467 12 25.75 12H15.25Z" fill="#DB5063"/>
</svg>
