<svg width="200" height="56" viewBox="0 0 200 56" fill="none" xmlns="http://www.w3.org/2000/svg">
<path fill-rule="evenodd" clip-rule="evenodd" d="M7.50678 2.18486H7.50677C7.47478 7.58443 7.86761 13.4925 11.7472 18.4517L11.7484 18.4532C12.6848 19.6588 14.1142 21.2439 15.6856 22.9864C16.3217 23.6918 16.9812 24.423 17.6405 25.1653C19.9021 27.7112 22.1656 30.39 23.339 32.4861C26.2679 37.6935 27.5847 41.0221 28.1468 44.0562C28.2602 44.622 28.3587 44.9649 28.474 45.1651C28.5254 45.2543 28.5647 45.2864 28.5847 45.2989C28.6007 45.3089 28.6333 45.3252 28.7117 45.3252C28.8033 45.3252 28.9007 45.2991 29.0114 45.1517C29.1418 44.978 29.2914 44.6281 29.3661 43.9726C29.7503 40.4872 30.0236 36.1083 28.8432 32.2917C27.1833 26.9751 23.5692 21.7705 17.4172 15.8813C12.3036 11.0007 9.55308 6.64049 8.65764 1.7718L8.65679 1.76719L8.65602 1.76257C8.65155 1.73578 8.64728 1.7101 8.64318 1.68543C8.59974 1.42408 8.57534 1.27732 8.53208 1.14502C8.49317 1.026 8.43597 0.913447 8.30183 0.755128L8.29243 0.74404L8.28362 0.732487C8.20937 0.635157 8.14872 0.60042 8.1143 0.586694C8.07923 0.572711 8.04171 0.568726 7.99701 0.576055C7.9491 0.58391 7.8957 0.604786 7.84553 0.636838C7.80409 0.663321 7.77737 0.689375 7.76421 0.704561C7.56939 1.0386 7.50678 1.36095 7.50678 2.1815V2.18486ZM29.3851 32.1229C30.6036 36.0618 30.315 40.545 29.9302 44.0355C29.7699 45.4445 29.2568 45.8928 28.7117 45.8928C28.0383 45.8928 27.8139 45.2844 27.5894 44.1636C27.0443 41.2174 25.7617 37.9511 22.8437 32.7634C21.3797 30.1481 18.1256 26.5397 15.2814 23.3858C13.7026 21.6351 12.2501 20.0245 11.3001 18.8014C7.29192 13.6777 6.90713 7.59338 6.9392 2.1815C6.9392 1.31688 7.00333 0.868562 7.29192 0.388218C7.51638 0.0679887 8.22182 -0.284263 8.73487 0.388218C9.06921 0.782824 9.11545 1.06234 9.20129 1.58132C9.206 1.60985 9.21084 1.6391 9.21586 1.66913C10.0816 6.3765 12.7431 10.6356 17.8094 15.471C23.9981 21.3953 27.6856 26.679 29.3851 32.1229Z" fill="black"/>
<path fill-rule="evenodd" clip-rule="evenodd" d="M34.0585 8.90853C34.0551 8.90542 34.0486 8.89996 34.038 8.89313C34.0117 8.87613 33.9767 8.86177 33.939 8.85621C33.9037 8.85102 33.8668 8.85342 33.8272 8.86796C33.7893 8.88189 33.7314 8.91344 33.6617 8.99001C33.5532 9.12148 33.5123 9.2117 33.4837 9.30833C33.4567 9.39963 33.442 9.48504 33.4191 9.61842C33.4071 9.68807 33.3929 9.7708 33.3735 9.87427C32.6267 14.0219 30.3644 17.7502 26.2597 21.8324C27.2819 23.4762 28.1586 25.1158 28.9239 26.7169C29.5501 26.0067 30.1032 25.351 30.5404 24.7931C34.0001 20.3501 34.3314 15.0569 34.3319 10.232C34.301 9.5029 34.2413 9.23057 34.0585 8.90853ZM34.8995 10.2201C34.8995 15.0555 34.5788 20.5315 30.9875 25.1428C30.5037 25.7601 29.8847 26.49 29.1872 27.2757C29.0526 27.4274 28.9151 27.5812 28.775 27.7366C28.6896 27.5508 28.6027 27.3644 28.5144 27.1775C27.6738 25.3994 26.697 23.5739 25.5364 21.7483C29.8011 17.5853 32.0777 13.8707 32.8152 9.77175C32.8295 9.69582 32.8416 9.62551 32.853 9.55958C32.9185 9.18064 32.959 8.94625 33.2321 8.61892C33.7451 8.04251 34.3864 8.33072 34.5468 8.61892C34.8033 9.06725 34.8674 9.45152 34.8995 10.2201ZM20.1029 37.4187L20.1046 37.4156C20.6199 36.5075 21.3469 35.5031 22.1737 34.4373C21.2694 33.1257 20.0917 31.721 18.7911 30.2509C17.1773 32.6022 16.023 34.9211 15.2716 37.258C14.2206 40.6563 14.4611 44.5842 14.8128 47.715C14.8871 48.2906 15.0199 48.5968 15.1305 48.7464C15.2229 48.8714 15.2905 48.8806 15.3395 48.8806C15.3945 48.8806 15.4118 48.8699 15.4159 48.8674L15.4161 48.8673C15.4231 48.863 15.4512 48.844 15.4929 48.7738C15.5887 48.6129 15.6793 48.3192 15.7755 47.8076C16.2734 45.0902 17.4957 42.0797 20.1029 37.4187ZM16.3335 47.9111C16.1411 48.9358 15.9167 49.4482 15.3395 49.4482C14.8585 49.4482 14.4096 49.0319 14.2493 47.783C13.8966 44.6447 13.64 40.6098 14.7303 37.0873C15.5129 34.6523 16.7194 32.2456 18.4028 29.814C18.5127 29.6554 18.6245 29.4966 18.7385 29.3378C18.8684 29.4831 18.9974 29.628 19.1255 29.7724C20.578 31.4104 21.9025 32.99 22.8749 34.4614C21.945 35.6463 21.1434 36.735 20.5983 37.6957C18.001 42.3391 16.8145 45.2852 16.3335 47.9111Z" fill="black"/>
<path fill-rule="evenodd" clip-rule="evenodd" d="M11.327 25.6186L11.3248 25.6165C6.21097 20.7357 3.46032 16.3755 2.56486 11.5067L2.56401 11.5021L2.56324 11.4974C2.55877 11.4706 2.5545 11.445 2.5504 11.4203C2.50696 11.1589 2.48257 11.0122 2.43931 10.8799C2.40039 10.7609 2.34319 10.6483 2.20905 10.49L2.20507 10.4853L2.20118 10.4805C2.11918 10.3793 2.05098 10.34 2.00851 10.3235C1.96571 10.3069 1.92388 10.3038 1.88019 10.3109C1.8334 10.3186 1.78497 10.3384 1.74313 10.3662C1.70676 10.3904 1.68975 10.4108 1.68609 10.4152C1.68525 10.4162 1.68511 10.4163 1.68561 10.4155C1.47963 10.7584 1.41401 11.0762 1.41401 11.9164V11.9197H1.414C1.38201 17.3193 1.77483 23.2273 5.65439 28.1865L5.65514 28.1875C6.53744 29.3204 7.86821 30.8003 9.34816 32.4389C9.40827 32.5055 9.46861 32.5723 9.52916 32.6393C10.7221 33.9599 11.9962 35.3704 13.1793 36.7572C13.8292 34.6491 14.5702 32.3613 15.741 30.2086C14.4374 28.7137 12.9661 27.1662 11.327 25.6186ZM16.4303 30.1374C15.1109 32.4505 14.3277 34.951 13.615 37.2718C13.5962 37.333 13.5774 37.3941 13.5587 37.455C13.511 37.6106 13.4635 37.7653 13.4161 37.919C13.2731 37.747 13.1282 37.5742 12.9816 37.401C11.7397 35.9332 10.3799 34.4279 9.10525 33.0167C7.56082 31.307 6.14123 29.7354 5.20734 28.5363C1.19915 23.4126 0.81436 17.3282 0.846426 11.9164C0.846426 11.0517 0.910559 10.6034 1.19915 10.1231C1.39154 9.80285 2.09698 9.4506 2.6421 10.1231C2.97644 10.5177 3.02267 10.7972 3.10851 11.3162C3.11323 11.3447 3.11807 11.374 3.12308 11.404C3.98885 16.1114 6.65029 20.3704 11.7166 25.2059C13.4803 26.8711 15.0515 28.5363 16.4303 30.1374ZM22.7505 42.0268L22.7492 42.0226C22.5233 41.2783 22.2472 40.5469 21.9307 39.8019C20.6195 41.5047 19.6102 43.3532 18.8477 45.2553C20.6445 48.8139 21.5687 51.4006 22.0217 53.7897C22.1352 54.3563 22.2337 54.6996 22.3492 54.9C22.4006 54.9892 22.4399 55.0213 22.4599 55.0338C22.4759 55.0438 22.5084 55.0601 22.5869 55.0601C22.6784 55.0601 22.7758 55.034 22.8866 54.8865C23.0171 54.7127 23.1667 54.3625 23.2414 53.7062L23.2417 53.7036C23.6576 50.1889 23.9305 45.8101 22.7505 42.0268ZM21.4646 53.8984C21.0157 51.5287 20.0858 48.9349 18.2259 45.2843C19.0516 43.164 20.1755 41.0978 21.6726 39.2104C21.8035 39.0454 21.9372 38.8817 22.0738 38.7195C22.1619 38.9131 22.2479 39.1056 22.3315 39.2975C22.7043 40.1528 23.0304 40.9946 23.2923 41.8578C24.5108 45.7646 24.2222 50.2478 23.8054 53.7703C23.645 55.1793 23.132 55.6277 22.5869 55.6277C21.9135 55.6277 21.689 55.0192 21.4646 53.8984Z" fill="black"/>
<path d="M191 36.0462V23.1328H191.941L197.388 32.2447L198.838 34.8117H198.917C198.904 34.1847 198.877 33.5576 198.838 32.9305C198.812 32.3035 198.799 31.6764 198.799 31.0494V23.1328H199.661V36.0462H198.721L193.273 26.9343L191.823 24.3673H191.745C191.771 24.9813 191.797 25.5888 191.823 26.1897C191.849 26.7906 191.862 27.4046 191.862 28.0317V36.0462H191Z" fill="black"/>
<path d="M173.031 36.0462V23.1328H173.972L179.419 32.2447L180.869 34.8117H180.948C180.935 34.1847 180.909 33.5576 180.869 32.9305C180.843 32.3035 180.83 31.6764 180.83 31.0494V23.1328H181.692V36.0462H180.752L175.304 26.9343L173.854 24.3673H173.776C173.802 24.9813 173.828 25.5888 173.854 26.1897C173.88 26.7906 173.893 27.4046 173.893 28.0317V36.0462H173.031Z" fill="black"/>
<path d="M162.812 36.0462V23.1328H163.714V36.0462H162.812Z" fill="black"/>
<path d="M148.154 36.0462V23.1328H149.056V35.2624H155.013V36.0462H148.154Z" fill="black"/>
<path d="M134.347 36.2816C133.314 36.2816 132.4 36.0072 131.603 35.4585C130.806 34.8968 130.179 34.113 129.722 33.1071C129.265 32.1012 129.036 30.9124 129.036 29.5407C129.036 28.1821 129.265 27.0064 129.722 26.0135C130.179 25.0207 130.806 24.2565 131.603 23.7209C132.4 23.1722 133.314 22.8979 134.347 22.8979C135.392 22.8979 136.313 23.1722 137.109 23.7209C137.906 24.2565 138.533 25.0207 138.991 26.0135C139.448 27.0064 139.676 28.1821 139.676 29.5407C139.676 30.9124 139.448 32.1012 138.991 33.1071C138.533 34.113 137.906 34.8968 137.109 35.4585C136.313 36.0072 135.392 36.2816 134.347 36.2816ZM134.347 35.4585C135.222 35.4585 135.986 35.2169 136.639 34.7335C137.292 34.2371 137.802 33.5447 138.168 32.6564C138.533 31.7681 138.716 30.7295 138.716 29.5407C138.716 28.3519 138.533 27.3264 138.168 26.4642C137.802 25.589 137.292 24.9162 136.639 24.4459C135.986 23.9625 135.222 23.7209 134.347 23.7209C133.471 23.7209 132.707 23.9625 132.054 24.4459C131.401 24.9162 130.891 25.589 130.525 26.4642C130.16 27.3264 129.977 28.3519 129.977 29.5407C129.977 30.7295 130.16 31.7681 130.525 32.6564C130.891 33.5447 131.401 34.2371 132.054 34.7335C132.707 35.2169 133.471 35.4585 134.347 35.4585ZM133.935 22.212L133.543 21.7613L135.993 19.3511L136.541 19.9977L133.935 22.212Z" fill="black"/>
<path d="M113.729 36.0462V23.1328H114.63V30.3048H114.669L120.92 23.1328H121.998L117.883 27.9141L122.566 36.0462H121.528L117.256 28.5999L114.63 31.5981V36.0462H113.729Z" fill="black"/>
<path d="M101.369 36.2817C100.428 36.2817 99.5922 36.0988 98.8606 35.733C98.129 35.3672 97.5085 34.9034 96.999 34.3417L97.5869 33.7146C98.0572 34.2372 98.6189 34.6618 99.2721 34.9884C99.9253 35.3019 100.624 35.4586 101.369 35.4586C102.362 35.4586 103.145 35.217 103.72 34.7336C104.295 34.2503 104.582 33.6297 104.582 32.872C104.582 32.3364 104.478 31.9053 104.269 31.5787C104.06 31.2521 103.779 30.9843 103.426 30.7753C103.087 30.5532 102.701 30.3508 102.27 30.1679L100.311 29.2861C99.9449 29.1162 99.553 28.9072 99.1349 28.659C98.73 28.3977 98.3838 28.0646 98.0964 27.6596C97.822 27.2416 97.6849 26.7125 97.6849 26.0724C97.6849 25.4454 97.8482 24.8967 98.1748 24.4264C98.5013 23.943 98.9455 23.5707 99.5072 23.3095C100.082 23.0351 100.729 22.8979 101.447 22.8979C102.218 22.8979 102.91 23.0547 103.524 23.3682C104.138 23.6687 104.641 24.028 105.033 24.446L104.524 25.0339C104.145 24.6419 103.701 24.3284 103.191 24.0933C102.682 23.8451 102.1 23.721 101.447 23.721C100.598 23.721 99.9057 23.93 99.3701 24.348C98.8475 24.7661 98.5863 25.3278 98.5863 26.0332C98.5863 26.5296 98.7038 26.9346 98.939 27.2481C99.1872 27.5617 99.4811 27.8164 99.8208 28.0124C100.173 28.2083 100.507 28.3781 100.82 28.5218L102.78 29.384C103.263 29.5931 103.707 29.8413 104.112 30.1287C104.53 30.403 104.863 30.7557 105.112 31.1868C105.373 31.6049 105.503 32.147 105.503 32.8133C105.503 33.4664 105.334 34.0608 104.994 34.5964C104.654 35.119 104.171 35.5305 103.544 35.831C102.93 36.1314 102.205 36.2817 101.369 36.2817Z" fill="black"/>
<path d="M83.4541 36.0462V23.1328H90.4889V23.9166H84.3555V29.0506H89.5483V29.8345H84.3555V36.0462H83.4541Z" fill="black"/>
<path d="M67.8594 36.0462V23.1328H74.9333V23.9166H68.7608V28.7959H73.934V29.5797H68.7608V35.2624H75.1293V36.0462H67.8594Z" fill="black"/>
<path d="M55.1712 36.0462L50.8994 23.1328H51.8596L54.2502 30.6771C54.4984 31.4609 54.7205 32.1859 54.9165 32.8522C55.1255 33.5053 55.3606 34.2238 55.6219 35.0077H55.7003C55.9616 34.2238 56.1902 33.5053 56.3861 32.8522C56.5821 32.1859 56.8042 31.4609 57.0524 30.6771L59.443 23.1328H60.364L56.1314 36.0462H55.1712Z" fill="black"/>
</svg>
