<svg width="35" height="57" viewBox="0 0 35 57" fill="none" xmlns="http://www.w3.org/2000/svg">
<path fill-rule="evenodd" clip-rule="evenodd" d="M6.88764 2.80742H6.88763C6.85564 8.20699 7.24847 14.115 11.128 19.0742L11.1292 19.0758C12.0656 20.2813 13.4951 21.8664 15.0665 23.6089C15.7026 24.3143 16.362 25.0456 17.0214 25.7878C19.283 28.3337 21.5464 31.0126 22.7198 33.1087C25.6488 38.3161 26.9656 41.6447 27.5276 44.6787C27.6411 45.2446 27.7395 45.5875 27.8549 45.7877C27.9063 45.8769 27.9456 45.909 27.9656 45.9215C27.9816 45.9315 28.0141 45.9478 28.0926 45.9478C28.1841 45.9478 28.2815 45.9217 28.3923 45.7742C28.5227 45.6005 28.6722 45.2506 28.747 44.5952C29.1312 41.1098 29.4044 36.7309 28.224 32.9143C26.5642 27.5977 22.9501 22.393 16.7981 16.5038C11.6845 11.6232 8.93393 7.26305 8.0385 2.39436L8.03765 2.38975L8.03688 2.38512C8.0324 2.35834 8.02814 2.33265 8.02404 2.30799C7.98059 2.04664 7.9562 1.89988 7.91294 1.76758C7.87403 1.64856 7.81683 1.53601 7.68269 1.37769L7.67329 1.3666L7.66448 1.35505C7.59022 1.25772 7.52958 1.22298 7.49516 1.20925C7.46009 1.19527 7.42257 1.19128 7.37787 1.19861C7.32996 1.20647 7.27656 1.22734 7.22639 1.2594C7.18495 1.28588 7.15823 1.31193 7.14507 1.32712C6.95025 1.66116 6.88764 1.98351 6.88764 2.80406V2.80742ZM28.7659 32.7455C29.9844 36.6843 29.6958 41.1675 29.3111 44.658C29.1507 46.067 28.6377 46.5153 28.0926 46.5153C27.4192 46.5153 27.1947 45.9069 26.9703 44.7861C26.4252 41.84 25.1425 38.5737 22.2246 33.3859C20.7606 30.7707 17.5065 27.1623 14.6622 24.0083C13.0835 22.2577 11.631 20.647 10.681 19.424C6.67278 14.3003 6.28799 8.21593 6.32006 2.80406C6.32006 1.93944 6.38419 1.49112 6.67278 1.01078C6.89724 0.690547 7.60268 0.338295 8.11573 1.01078C8.45007 1.40538 8.49631 1.6849 8.58215 2.20388C8.58686 2.23241 8.5917 2.26166 8.59671 2.29169C9.46248 6.99906 12.1239 11.2581 17.1903 16.0936C23.3789 22.0178 27.0665 27.3016 28.7659 32.7455Z" fill="black"/>
<path fill-rule="evenodd" clip-rule="evenodd" d="M33.4394 9.53109C33.436 9.52798 33.4295 9.52252 33.4189 9.51569C33.3926 9.49869 33.3575 9.48433 33.3198 9.47877C33.2846 9.47358 33.2476 9.47598 33.2081 9.49052C33.1702 9.50445 33.1123 9.536 33.0426 9.61257C32.9341 9.74404 32.8932 9.83426 32.8646 9.93089C32.8376 10.0222 32.8229 10.1076 32.8 10.241C32.788 10.3106 32.7737 10.3934 32.7543 10.4968C32.0076 14.6444 29.7452 18.3728 25.6406 22.455C26.6627 24.0987 27.5395 25.7384 28.3047 27.3394C28.931 26.6292 29.4841 25.9735 29.9213 25.4156C33.381 20.9727 33.7122 15.6794 33.7128 10.8546C33.6818 10.1255 33.6222 9.85312 33.4394 9.53109ZM34.2804 10.8426C34.2804 15.6781 33.9597 21.154 30.3684 25.7653C29.8846 26.3827 29.2656 27.1125 28.5681 27.8983C28.4335 28.05 28.2959 28.2037 28.1558 28.3592C28.0704 28.1734 27.9836 27.987 27.8952 27.8C27.0547 26.022 26.0778 24.1964 24.9172 22.3709C29.1819 18.2079 31.4586 14.4932 32.1961 10.3943C32.2103 10.3184 32.2225 10.2481 32.2339 10.1821C32.2993 9.8032 32.3398 9.56881 32.6129 9.24148C33.126 8.66507 33.7673 8.95328 33.9276 9.24148C34.1842 9.6898 34.2483 10.0741 34.2804 10.8426ZM19.4838 38.0412L19.4855 38.0382C20.0008 37.1301 20.7278 36.1256 21.5546 35.0599C20.6503 33.7482 19.4726 32.3435 18.1719 30.8734C16.5581 33.2247 15.4039 35.5436 14.6524 37.8806C13.6015 41.2788 13.842 45.2067 14.1937 48.3376C14.268 48.9131 14.4008 49.2194 14.5114 49.369C14.6038 49.4939 14.6714 49.5031 14.7204 49.5031C14.7753 49.5031 14.7927 49.4925 14.7967 49.49L14.797 49.4898C14.8039 49.4856 14.8321 49.4665 14.8738 49.3964C14.9695 49.2354 15.0602 48.9418 15.1563 48.4302C15.6543 45.7128 16.8765 42.7023 19.4838 38.0412ZM15.7144 48.5336C15.522 49.5583 15.2975 50.0707 14.7204 50.0707C14.2394 50.0707 13.7905 49.6544 13.6301 48.4055C13.2774 45.2673 13.0209 41.2324 14.1111 37.7099C14.8938 35.2749 16.1003 32.8681 17.7837 30.4366C17.8935 30.2779 18.0054 30.1192 18.1193 29.9603C18.2492 30.1056 18.3783 30.2505 18.5064 30.3949C19.9589 32.033 21.2833 33.6126 22.2558 35.084C21.3259 36.2688 20.5242 37.3576 19.9791 38.3183C17.3818 42.9616 16.1954 45.9077 15.7144 48.5336Z" fill="black"/>
<path fill-rule="evenodd" clip-rule="evenodd" d="M10.7078 26.2411L10.7056 26.239C5.59183 21.3583 2.84118 16.998 1.94572 12.1292L1.94487 12.1246L1.9441 12.12C1.93963 12.0932 1.93536 12.0675 1.93126 12.0429C1.88782 11.7815 1.86343 11.6347 1.82017 11.5024C1.78125 11.3834 1.72405 11.2709 1.58991 11.1125L1.58593 11.1078L1.58204 11.103C1.50004 11.0019 1.43184 10.9626 1.38936 10.9461C1.34657 10.9295 1.30474 10.9263 1.26105 10.9335C1.21425 10.9411 1.16583 10.961 1.12399 10.9888C1.08762 11.0129 1.07061 11.0333 1.06695 11.0377C1.06611 11.0387 1.06597 11.0389 1.06647 11.0381C0.860494 11.3809 0.794867 11.6988 0.794867 12.5389V12.5423H0.794857C0.762865 17.9418 1.15569 23.8499 5.03524 28.8091L5.036 28.8101C5.9183 29.9429 7.24907 31.4228 8.72902 33.0615C8.78913 33.128 8.84947 33.1948 8.91002 33.2618C10.1029 34.5825 11.377 35.993 12.5602 37.3797C13.2101 35.2716 13.9511 32.9838 15.1218 30.8312C13.8183 29.3363 12.3469 27.7888 10.7078 26.2411ZM15.8111 30.76C14.4918 33.0731 13.7086 35.5736 12.9958 37.8943C12.977 37.9555 12.9583 38.0166 12.9396 38.0776C12.8918 38.2331 12.8443 38.3878 12.797 38.5415C12.654 38.3695 12.509 38.1968 12.3624 38.0235C11.1205 36.5558 9.7608 35.0505 8.48611 33.6393C6.94168 31.9295 5.52209 30.3579 4.5882 29.1588C0.580008 24.0352 0.195219 17.9508 0.227285 12.5389C0.227285 11.6743 0.291418 11.226 0.580008 10.7456C0.772401 10.4254 1.47784 10.0732 2.02296 10.7456C2.3573 11.1402 2.40353 11.4198 2.48937 11.9387C2.49409 11.9673 2.49893 11.9965 2.50394 12.0266C3.36971 16.7339 6.03115 20.993 11.0975 25.8284C12.8611 27.4936 14.4323 29.1588 15.8111 30.76ZM22.1313 42.6493L22.13 42.6452C21.9042 41.9009 21.628 41.1694 21.3115 40.4244C20.0004 42.1272 18.9911 43.9757 18.2285 45.8778C20.0254 49.4364 20.9496 52.0232 21.4025 54.4123C21.5161 54.9789 21.6146 55.3222 21.73 55.5226C21.7814 55.6118 21.8207 55.6439 21.8407 55.6564C21.8567 55.6664 21.8893 55.6826 21.9677 55.6826C22.0593 55.6826 22.1567 55.6565 22.2674 55.5091C22.398 55.3353 22.5476 54.985 22.6223 54.3287L22.6226 54.3262C23.0385 50.8114 23.3113 46.4327 22.1313 42.6493ZM20.8454 54.521C20.3965 52.1513 19.4666 49.5574 17.6068 45.9068C18.4325 43.7865 19.5564 41.7204 21.0534 39.8329C21.1843 39.6679 21.318 39.5043 21.4547 39.3421C21.5428 39.5357 21.6287 39.7282 21.7123 39.92C22.0852 40.7754 22.4113 41.6172 22.6732 42.4804C23.8917 46.3871 23.6031 50.8704 23.1862 54.3929C23.0259 55.8019 22.5128 56.2502 21.9677 56.2502C21.2943 56.2502 21.0699 55.6418 20.8454 54.521Z" fill="black"/>
</svg>
