<svg width="35" height="56" viewBox="0 0 35 56" fill="none" xmlns="http://www.w3.org/2000/svg">
<path d="M6.81772 0.624158C6.52959 1.09912 6.46556 1.54242 6.46556 2.39735C6.43355 7.74861 6.81772 13.7648 10.8194 18.8311C13.4766 22.2192 20.0714 28.6153 22.3444 32.6367C25.2577 37.7663 26.5382 40.996 27.0825 43.9091C27.3066 45.0174 27.5307 45.619 28.2029 45.619C28.7472 45.619 29.2594 45.1757 29.4195 43.7825C29.8036 40.3311 30.0918 35.8981 28.8752 32.0034C27.1785 26.6205 23.4969 21.3959 17.3182 15.538C12.2601 10.7567 9.60292 6.54537 8.73855 1.89073C8.64251 1.32077 8.61049 1.03579 8.25834 0.624158C7.74612 -0.0407902 7.04181 0.307516 6.81772 0.624158Z" fill="black"/>
<path d="M34.0292 8.76217C33.8691 8.47719 33.2288 8.19221 32.7166 8.76217C32.3965 9.14214 32.3965 9.39545 32.3004 9.90208C31.5641 13.9551 29.2911 17.6282 25.0333 21.7445C26.3138 23.7393 27.3703 25.7342 28.2667 27.6657C29.1311 26.7158 29.8994 25.8292 30.4756 25.1009C34.0612 20.5413 34.3813 15.1267 34.3813 10.3454C34.3493 9.58544 34.2853 9.20547 34.0292 8.76217ZM14.2446 36.9117C13.1561 40.3947 13.4123 44.3844 13.7644 47.4875C13.9245 48.7224 14.3727 49.134 14.8529 49.134C15.4291 49.134 15.6532 48.6274 15.8453 47.6142C16.3255 45.0177 17.51 42.1046 20.1032 37.5133C20.6474 36.5633 21.4477 35.4868 22.3761 34.3152C21.3197 32.732 19.847 31.0221 18.2463 29.2489C16.3895 31.8137 15.077 34.3469 14.2446 36.9117Z" fill="black"/>
<path d="M11.2352 25.164C6.17705 20.3827 3.51991 16.1713 2.65554 11.5167C2.5595 10.9467 2.52748 10.6618 2.17533 10.2501C1.6311 9.58519 0.926793 9.93349 0.73471 10.2501C0.446585 10.7251 0.382556 11.1684 0.382556 12.0233C0.350542 17.3746 0.73471 23.3908 4.73644 28.4571C6.52921 30.7369 10.1148 34.3783 12.932 37.7347C13.7003 35.2649 14.5007 32.5417 15.9413 30.0403C14.5647 28.4571 12.996 26.8105 11.2352 25.164ZM22.7922 41.6294C22.4721 40.5844 22.0559 39.5712 21.5757 38.5263C19.879 40.5211 18.6304 42.7376 17.734 45.0174C19.5908 48.6272 20.5192 51.192 20.9674 53.5351C21.1915 54.6434 21.4156 55.245 22.0879 55.245C22.6322 55.245 23.1444 54.8017 23.3045 53.4085C23.7206 49.9254 24.0088 45.4924 22.7922 41.6294Z" fill="black"/>
</svg>
