<svg width="319" height="233" viewBox="0 0 319 233" fill="none" xmlns="http://www.w3.org/2000/svg">
<g filter="url(#filter0_d_583_336)">
<path d="M112.333 48.303H143L108.074 113.852L73.1481 179.4L59.5185 159.127L25.4444 224L22.037 222.648L112.333 48.303Z" fill="#FEEFE9"/>
<path d="M122.556 1L52.7037 140.206L28.8519 94.2545L5 48.303H35.6667L64.6296 106.418L119.148 1H122.556Z" fill="#FEEFE9"/>
<path d="M112.333 48.303H143L108.074 113.852L73.1481 179.4L59.5185 159.127L25.4444 224L22.037 222.648L112.333 48.303Z" stroke="#7C444F"/>
<path d="M122.556 1L52.7037 140.206L28.8519 94.2545L5 48.303H35.6667L64.6296 106.418L119.148 1H122.556Z" stroke="#7C444F"/>
</g>
<path d="M115.776 167.24V167.768C115.776 170.36 116.24 172.296 117.168 173.576C118.128 174.824 119.76 175.448 122.064 175.448C124.4 175.448 126.688 174.568 128.928 172.808C129.568 173.288 129.888 174.04 129.888 175.064C129.888 176.056 128.992 177.08 127.2 178.136C125.44 179.192 123.232 179.72 120.576 179.72C117.12 179.72 114.432 178.712 112.512 176.696C110.624 174.648 109.68 171.56 109.68 167.432C109.68 163.272 110.704 160.008 112.752 157.64C114.832 155.24 117.68 154.04 121.296 154.04C124.368 154.04 126.656 155 128.16 156.92C129.696 158.84 130.432 161.368 130.368 164.504V167.24H115.776ZM120.768 157.88C118.144 157.88 116.56 159.896 116.016 163.928H124.752C124.688 161.752 124.32 160.2 123.648 159.272C122.976 158.344 122.016 157.88 120.768 157.88ZM136.851 154.76V153.464C136.851 150.776 137.699 148.536 139.395 146.744C141.091 144.92 143.315 143.992 146.067 143.96C149.651 143.896 151.443 144.984 151.443 147.224C151.443 148.312 151.091 149.112 150.387 149.624C149.683 150.136 148.771 150.392 147.651 150.392C147.651 148.344 146.867 147.32 145.299 147.32C143.539 147.32 142.659 149.304 142.659 153.272V154.76H148.851C149.011 157 148.259 158.12 146.595 158.12H142.659V175.592H142.707L147.555 175.88C147.651 176.072 147.635 176.504 147.507 177.176C147.219 178.392 146.515 179 145.395 179H133.299V178.616C133.299 176.856 134.003 175.912 135.411 175.784L136.803 175.688L136.851 158.12H133.395C133.395 155.88 134.179 154.76 135.747 154.76H136.851ZM167.934 155.816C168.734 156.52 169.134 157.432 169.134 158.552C169.134 159.672 168.766 160.536 168.03 161.144C167.326 161.752 166.414 161.976 165.294 161.816C165.294 160.632 164.83 159.64 163.902 158.84C162.974 158.008 161.934 157.592 160.782 157.592C159.662 157.592 158.798 157.816 158.19 158.264C157.582 158.68 157.278 159.24 157.278 159.944C157.278 160.648 157.71 161.288 158.574 161.864C159.47 162.408 160.718 163 162.318 163.64C163.95 164.28 165.118 164.792 165.822 165.176C166.526 165.528 167.278 166.008 168.078 166.616C169.614 167.768 170.382 169.48 170.382 171.752C170.382 173.992 169.47 175.88 167.646 177.416C165.822 178.952 163.39 179.72 160.35 179.72C158.11 179.72 156.142 179.304 154.446 178.472C152.782 177.64 151.95 176.392 151.95 174.728C151.95 173.608 152.35 172.744 153.15 172.136C153.95 171.496 154.894 171.176 155.982 171.176C156.398 174.44 158.254 176.072 161.55 176.072C164.206 176.072 165.534 175.192 165.534 173.432C165.534 172.28 164.83 171.352 163.422 170.648C162.654 170.232 161.726 169.816 160.638 169.4C159.55 168.984 158.686 168.632 158.046 168.344C157.438 168.024 156.766 167.624 156.03 167.144C155.294 166.664 154.686 166.168 154.206 165.656C153.15 164.472 152.622 163.032 152.622 161.336C152.622 159.032 153.55 157.24 155.406 155.96C157.262 154.68 159.486 154.04 162.078 154.04C164.67 154.04 166.622 154.632 167.934 155.816ZM188.747 154.76H197.339V155.144C197.339 156.904 196.635 157.848 195.227 157.976L194.171 158.024L188.315 164.648L196.187 175.592L199.403 175.88C199.499 176.776 199.307 177.528 198.827 178.136C198.347 178.712 197.739 179 197.003 179H191.867L184.667 168.776L182.555 171.128V175.592L186.011 175.88C186.107 176.072 186.091 176.504 185.963 177.176C185.675 178.392 184.971 179 183.851 179H173.146V178.616C173.146 176.856 173.851 175.912 175.259 175.784L176.699 175.688V148.904L174.827 148.712C173.515 148.584 172.923 147.592 173.051 145.736L182.555 144.68V166.184L189.323 158.168L186.587 157.88C186.491 157.688 186.507 157.256 186.635 156.584C186.923 155.368 187.627 154.76 188.747 154.76ZM216.536 160.28C215.64 158.584 214.36 157.736 212.696 157.736C211.032 157.736 209.736 158.568 208.808 160.232C207.912 161.896 207.464 164.168 207.464 167.048C207.464 169.896 207.912 172.12 208.808 173.72C209.736 175.288 211.032 176.072 212.696 176.072C214.36 176.072 215.64 175.304 216.536 173.768C217.464 172.2 217.928 169.992 217.928 167.144C217.928 164.264 217.464 161.976 216.536 160.28ZM201.368 167.288C201.368 163.192 202.376 159.96 204.392 157.592C206.44 155.224 209.272 154.04 212.888 154.04C216.504 154.04 219.256 155.176 221.144 157.448C223.064 159.72 224.024 162.872 224.024 166.904C224.024 170.904 223 174.04 220.952 176.312C218.904 178.584 216.04 179.72 212.359 179.72C208.712 179.72 205.96 178.664 204.104 176.552C202.28 174.44 201.368 171.352 201.368 167.288ZM220.904 147.224L210.968 152.504C209.976 151.992 209.304 151.336 208.952 150.536L216.968 143.96C217.704 144.12 218.472 144.568 219.272 145.304C220.072 146.008 220.616 146.648 220.904 147.224ZM237.943 179H227.239V178.616C227.239 176.856 227.943 175.912 229.351 175.784L230.839 175.688V148.904L228.967 148.712C227.655 148.584 227.063 147.592 227.191 145.736L236.695 144.68V175.592L240.103 175.88C240.295 177.96 239.575 179 237.943 179ZM253.271 179H242.567V178.616C242.567 176.856 243.271 175.912 244.679 175.784L246.167 175.688V158.264L244.295 158.072C242.983 157.944 242.391 156.952 242.519 155.096L252.023 154.04V175.592L255.431 175.88C255.623 177.96 254.903 179 253.271 179ZM252.263 148.328C252.263 149.32 251.927 150.168 251.255 150.872C250.583 151.544 249.735 151.88 248.711 151.88C247.719 151.88 246.871 151.544 246.167 150.872C245.495 150.168 245.159 149.32 245.159 148.328C245.159 147.336 245.495 146.504 246.167 145.832C246.871 145.128 247.719 144.776 248.711 144.776C249.703 144.776 250.535 145.128 251.207 145.832C251.911 146.504 252.263 147.336 252.263 148.328ZM284.439 179H273.831V178.616C273.831 176.856 274.535 175.912 275.943 175.784L277.335 175.688V163.88C277.335 162.024 276.967 160.728 276.231 159.992C275.495 159.224 274.471 158.84 273.159 158.84C271.847 158.84 270.775 159.016 269.943 159.368C269.111 159.72 268.247 160.28 267.351 161.048V175.592L270.759 175.88C270.951 177.96 270.231 179 268.599 179H257.895V178.616C257.895 176.856 258.599 175.912 260.007 175.784L261.495 175.688V158.552L259.623 158.36C258.311 158.232 257.719 157.24 257.847 155.384L266.535 154.328L266.871 157.256H267.015C268.199 156.232 269.335 155.448 270.423 154.904C271.543 154.328 272.855 154.04 274.359 154.04C276.823 154.04 278.903 154.872 280.599 156.536C282.327 158.168 283.191 160.696 283.191 164.12V175.592L286.599 175.88C286.791 177.96 286.071 179 284.439 179ZM315.611 179H305.003V178.616C305.003 176.856 305.707 175.912 307.115 175.784L308.507 175.688V163.88C308.507 162.024 308.139 160.728 307.403 159.992C306.667 159.224 305.643 158.84 304.331 158.84C303.019 158.84 301.947 159.016 301.115 159.368C300.283 159.72 299.419 160.28 298.523 161.048V175.592L301.931 175.88C302.123 177.96 301.403 179 299.771 179H289.067V178.616C289.067 176.856 289.771 175.912 291.179 175.784L292.667 175.688V158.552L290.795 158.36C289.483 158.232 288.891 157.24 289.019 155.384L297.707 154.328L298.043 157.256H298.187C299.371 156.232 300.507 155.448 301.595 154.904C302.715 154.328 304.027 154.04 305.531 154.04C307.995 154.04 310.075 154.872 311.771 156.536C313.499 158.168 314.363 160.696 314.363 164.12V175.592L317.771 175.88C317.963 177.96 317.243 179 315.611 179Z" fill="#FEEFE9"/>
<defs>
<filter id="filter0_d_583_336" x="0.177124" y="0.5" width="147.656" height="232.131" filterUnits="userSpaceOnUse" color-interpolation-filters="sRGB">
<feFlood flood-opacity="0" result="BackgroundImageFix"/>
<feColorMatrix in="SourceAlpha" type="matrix" values="0 0 0 0 0 0 0 0 0 0 0 0 0 0 0 0 0 0 127 0" result="hardAlpha"/>
<feOffset dy="4"/>
<feGaussianBlur stdDeviation="2"/>
<feComposite in2="hardAlpha" operator="out"/>
<feColorMatrix type="matrix" values="0 0 0 0 0 0 0 0 0 0 0 0 0 0 0 0 0 0 0.25 0"/>
<feBlend mode="normal" in2="BackgroundImageFix" result="effect1_dropShadow_583_336"/>
<feBlend mode="normal" in="SourceGraphic" in2="effect1_dropShadow_583_336" result="shape"/>
</filter>
</defs>
</svg>
