<svg width="199" height="56" viewBox="0 0 199 56" fill="none" xmlns="http://www.w3.org/2000/svg">
<path d="M6.43686 1.0016C6.14873 1.47656 6.0847 1.91986 6.0847 2.7748C6.05269 8.12605 6.43686 14.1422 10.4386 19.2085C13.0957 22.5966 19.6906 28.9928 21.9636 33.0141C24.8768 38.1437 26.1574 41.3735 26.7016 44.2866C26.9257 45.3948 27.1498 45.9964 27.8221 45.9964C28.3663 45.9964 28.8785 45.5531 29.0386 44.1599C29.4228 40.7085 29.7109 36.2755 28.4944 32.3808C26.7976 26.9979 23.1161 21.7733 16.9374 15.9154C11.8792 11.1341 9.22206 6.92281 8.35769 2.26817C8.26165 1.69821 8.22963 1.41323 7.87748 1.0016C7.36526 0.336651 6.66095 0.684958 6.43686 1.0016Z" fill="black"/>
<path d="M33.6483 9.13961C33.4882 8.85463 32.848 8.56966 32.3357 9.13961C32.0156 9.51958 32.0156 9.77289 31.9195 10.2795C31.1832 14.3325 28.9103 18.0056 24.6524 22.1219C25.933 24.1168 26.9894 26.1116 27.8858 28.0431C28.7502 27.0932 29.5185 26.2066 30.0948 25.4783C33.6803 20.9187 34.0005 15.5041 34.0005 10.7228C33.9684 9.96288 33.9044 9.58291 33.6483 9.13961ZM13.8638 37.2891C12.7753 40.7722 13.0314 44.7618 13.3836 47.8649C13.5436 49.0998 13.9918 49.5115 14.472 49.5115C15.0483 49.5115 15.2724 49.0049 15.4645 47.9916C15.9447 45.3951 17.1292 42.482 19.7223 37.8907C20.2665 36.9408 21.0669 35.8642 21.9953 34.6926C20.9388 33.1094 19.4662 31.3996 17.8655 29.6264C16.0087 32.1912 14.6961 34.7243 13.8638 37.2891Z" fill="black"/>
<path d="M10.8544 25.5414C5.7962 20.7601 3.13905 16.5488 2.27468 11.8941C2.17864 11.3242 2.14662 11.0392 1.79447 10.6276C1.25024 9.96263 0.545933 10.3109 0.35385 10.6276C0.0657259 11.1025 0.00169626 11.5458 0.00169626 12.4008C-0.0303176 17.752 0.35385 23.7682 4.35558 28.8345C6.14835 31.1143 9.73389 34.7557 12.5511 38.1121C13.3194 35.6423 14.1198 32.9192 15.5604 30.4177C14.1838 28.8345 12.6151 27.188 10.8544 25.5414ZM22.4114 42.0068C22.0912 40.9619 21.675 39.9486 21.1948 38.9037C19.4981 40.8986 18.2496 43.1151 17.3532 45.3949C19.21 49.0046 20.1384 51.5694 20.5866 53.9126C20.8107 55.0208 21.0348 55.6224 21.7071 55.6224C22.2513 55.6224 22.7635 55.1791 22.9236 53.7859C23.3398 50.3028 23.6279 45.8698 22.4114 42.0068Z" fill="black"/>
<path d="M190.101 36.3524V23.439H191.041L196.489 32.5509L197.939 35.1179H198.017C198.004 34.4908 197.978 33.8638 197.939 33.2367C197.913 32.6096 197.9 31.9826 197.9 31.3555V23.439H198.762V36.3524H197.821L192.374 27.2405L190.924 24.6735H190.845C190.871 25.2875 190.897 25.8949 190.924 26.4959C190.95 27.0968 190.963 27.7108 190.963 28.3378V36.3524H190.101Z" fill="black"/>
<path d="M172.132 36.3524V23.439H173.072L178.52 32.5509L179.97 35.1179H180.048C180.035 34.4908 180.009 33.8638 179.97 33.2367C179.944 32.6096 179.931 31.9826 179.931 31.3555V23.439H180.793V36.3524H179.852L174.405 27.2405L172.955 24.6735H172.876C172.903 25.2875 172.929 25.8949 172.955 26.4959C172.981 27.0968 172.994 27.7108 172.994 28.3378V36.3524H172.132Z" fill="black"/>
<path d="M161.913 36.3524V23.439H162.814V36.3524H161.913Z" fill="black"/>
<path d="M147.255 36.3524V23.439H148.156V35.5686H154.113V36.3524H147.255Z" fill="black"/>
<path d="M133.447 36.5877C132.415 36.5877 131.501 36.3134 130.704 35.7647C129.907 35.203 129.28 34.4191 128.823 33.4132C128.365 32.4073 128.137 31.2186 128.137 29.8469C128.137 28.4883 128.365 27.3125 128.823 26.3197C129.28 25.3268 129.907 24.5626 130.704 24.027C131.501 23.4783 132.415 23.204 133.447 23.204C134.492 23.204 135.413 23.4783 136.21 24.027C137.007 24.5626 137.634 25.3268 138.091 26.3197C138.548 27.3125 138.777 28.4883 138.777 29.8469C138.777 31.2186 138.548 32.4073 138.091 33.4132C137.634 34.4191 137.007 35.203 136.21 35.7647C135.413 36.3134 134.492 36.5877 133.447 36.5877ZM133.447 35.7647C134.322 35.7647 135.087 35.523 135.74 35.0397C136.393 34.5433 136.902 33.8509 137.268 32.9626C137.634 32.0742 137.817 31.0357 137.817 29.8469C137.817 28.6581 137.634 27.6326 137.268 26.7704C136.902 25.8951 136.393 25.2223 135.74 24.752C135.087 24.2687 134.322 24.027 133.447 24.027C132.572 24.027 131.808 24.2687 131.154 24.752C130.501 25.2223 129.992 25.8951 129.626 26.7704C129.26 27.6326 129.077 28.6581 129.077 29.8469C129.077 31.0357 129.26 32.0742 129.626 32.9626C129.992 33.8509 130.501 34.5433 131.154 35.0397C131.808 35.523 132.572 35.7647 133.447 35.7647ZM133.036 22.5182L132.644 22.0675L135.093 19.6572L135.642 20.3039L133.036 22.5182Z" fill="black"/>
<path d="M112.829 36.3524V23.439H113.73V30.6109H113.77L120.021 23.439H121.098L116.983 28.2203L121.667 36.3524H120.628L116.356 28.9061L113.73 31.9042V36.3524H112.829Z" fill="black"/>
<path d="M100.469 36.5878C99.5288 36.5878 98.6927 36.4049 97.9612 36.0391C97.2296 35.6733 96.6091 35.2096 96.0996 34.6479L96.6875 34.0208C97.1578 34.5433 97.7195 34.9679 98.3727 35.2945C99.0259 35.608 99.7248 35.7648 100.469 35.7648C101.462 35.7648 102.246 35.5231 102.821 35.0398C103.396 34.5564 103.683 33.9359 103.683 33.1782C103.683 32.6426 103.579 32.2115 103.37 31.8849C103.161 31.5583 102.88 31.2905 102.527 31.0815C102.187 30.8594 101.802 30.6569 101.371 30.474L99.4112 29.5922C99.0455 29.4224 98.6536 29.2134 98.2355 28.9652C97.8305 28.7039 97.4844 28.3708 97.197 27.9658C96.9226 27.5478 96.7855 27.0187 96.7855 26.3786C96.7855 25.7515 96.9487 25.2028 97.2753 24.7325C97.6019 24.2492 98.0461 23.8769 98.6078 23.6156C99.1826 23.3413 99.8293 23.2041 100.548 23.2041C101.319 23.2041 102.011 23.3609 102.625 23.6744C103.239 23.9749 103.742 24.3341 104.134 24.7521L103.624 25.34C103.245 24.9481 102.801 24.6346 102.292 24.3994C101.782 24.1512 101.201 24.0271 100.548 24.0271C99.6986 24.0271 99.0063 24.2361 98.4707 24.6542C97.9481 25.0722 97.6868 25.6339 97.6868 26.3394C97.6868 26.8358 97.8044 27.2408 98.0396 27.5543C98.2878 27.8678 98.5817 28.1226 98.9214 28.3185C99.2741 28.5145 99.6072 28.6843 99.9207 28.828L101.88 29.6902C102.364 29.8992 102.808 30.1474 103.213 30.4348C103.631 30.7092 103.964 31.0619 104.212 31.493C104.473 31.911 104.604 32.4532 104.604 33.1194C104.604 33.7726 104.434 34.367 104.095 34.9026C103.755 35.4251 103.272 35.8366 102.644 36.1371C102.031 36.4376 101.305 36.5878 100.469 36.5878Z" fill="black"/>
<path d="M82.5547 36.3524V23.439H89.5895V24.2228H83.4561V29.3568H88.6489V30.1406H83.4561V36.3524H82.5547Z" fill="black"/>
<path d="M66.96 36.3524V23.439H74.0339V24.2228H67.8614V29.1021H73.0346V29.8859H67.8614V35.5686H74.2299V36.3524H66.96Z" fill="black"/>
<path d="M54.2718 36.3524L50 23.439H50.9602L53.3508 30.9832C53.599 31.767 53.8211 32.4921 54.0171 33.1583C54.2261 33.8115 54.4612 34.53 54.7225 35.3138H54.8009C55.0622 34.53 55.2908 33.8115 55.4867 33.1583C55.6827 32.4921 55.9048 31.767 56.153 30.9832L58.5436 23.439H59.4646L55.232 36.3524H54.2718Z" fill="black"/>
</svg>
