<svg width="141" height="42" viewBox="0 0 141 42" fill="none" xmlns="http://www.w3.org/2000/svg">
<rect x="1" y="0.5" width="139" height="15" rx="3.5" fill="white" stroke="#DB5063"/>
<path d="M59.2476 33H55.3136V32.888C55.3136 32.496 55.4209 32.2347 55.6356 32.104C55.7196 32.0573 55.8176 32.034 55.9296 32.034L56.7836 32.006V26.07L55.9576 26.322C55.7056 26.406 55.4816 26.3407 55.2856 26.126C55.0989 25.902 55.0103 25.72 55.0196 25.58L57.2036 24.348C57.3996 24.236 57.6329 24.18 57.9036 24.18C58.2769 24.18 58.4636 24.4227 58.4636 24.908V31.978L59.8776 32.062C59.9056 32.118 59.9009 32.2487 59.8636 32.454C59.7796 32.818 59.5743 33 59.2476 33ZM64.1785 25.3C63.0118 25.3 62.4285 26.4807 62.4285 28.842C62.4285 30.018 62.5731 30.858 62.8625 31.362C63.1518 31.8567 63.5858 32.104 64.1645 32.104C64.7525 32.104 65.1631 31.8427 65.3965 31.32C65.6391 30.788 65.7605 29.934 65.7605 28.758C65.7605 27.582 65.6345 26.714 65.3825 26.154C65.1305 25.5847 64.7291 25.3 64.1785 25.3ZM64.1505 24.18C66.3065 24.1053 67.3845 25.6033 67.3845 28.674C67.3845 30.1487 67.1091 31.2733 66.5585 32.048C66.0078 32.8227 65.1958 33.21 64.1225 33.21C63.0491 33.21 62.2278 32.8227 61.6585 32.048C61.0891 31.264 60.8045 30.1673 60.8045 28.758C60.8045 27.3393 61.0891 26.2333 61.6585 25.44C62.2371 24.6373 63.0678 24.2173 64.1505 24.18ZM69.541 34.26H68.155L71.459 23.242H72.845L69.541 34.26ZM77.773 33H73.839V32.888C73.839 32.496 73.9463 32.2347 74.161 32.104C74.245 32.0573 74.343 32.034 74.455 32.034L75.309 32.006V26.07L74.483 26.322C74.231 26.406 74.007 26.3407 73.811 26.126C73.6243 25.902 73.5357 25.72 73.545 25.58L75.729 24.348C75.925 24.236 76.1583 24.18 76.429 24.18C76.8023 24.18 76.989 24.4227 76.989 24.908V31.978L78.403 32.062C78.431 32.118 78.4263 32.2487 78.389 32.454C78.305 32.818 78.0997 33 77.773 33ZM82.7038 25.3C81.5372 25.3 80.9538 26.4807 80.9538 28.842C80.9538 30.018 81.0985 30.858 81.3878 31.362C81.6772 31.8567 82.1112 32.104 82.6898 32.104C83.2778 32.104 83.6885 31.8427 83.9218 31.32C84.1645 30.788 84.2858 29.934 84.2858 28.758C84.2858 27.582 84.1598 26.714 83.9078 26.154C83.6558 25.5847 83.2545 25.3 82.7038 25.3ZM82.6758 24.18C84.8318 24.1053 85.9098 25.6033 85.9098 28.674C85.9098 30.1487 85.6345 31.2733 85.0838 32.048C84.5332 32.8227 83.7212 33.21 82.6478 33.21C81.5745 33.21 80.7532 32.8227 80.1838 32.048C79.6145 31.264 79.3298 30.1673 79.3298 28.758C79.3298 27.3393 79.6145 26.2333 80.1838 25.44C80.7625 24.6373 81.5932 24.2173 82.6758 24.18Z" fill="#C4ABB0"/>
<rect x="1" y="0.5" width="139" height="15" rx="3.5" fill="#E68492" stroke="#DB5063"/>
</svg>
