<svg width="141" height="42" viewBox="0 0 141 42" fill="none" xmlns="http://www.w3.org/2000/svg">
<rect x="1" y="0.5" width="139" height="15" rx="3.5" fill="white" stroke="#DB5063"/>
<path d="M61.3375 27.582C62.1495 27.582 62.8262 27.792 63.3675 28.212C63.9182 28.632 64.1935 29.29 64.1935 30.186C64.1935 31.082 63.8715 31.81 63.2275 32.37C62.5835 32.93 61.7762 33.21 60.8055 33.21C60.1242 33.21 59.5689 33.0747 59.1395 32.804C58.7102 32.5333 58.4955 32.174 58.4955 31.726C58.4955 31.4553 58.5795 31.2407 58.7475 31.082C58.9155 30.914 59.1302 30.83 59.3915 30.83C59.5315 31.726 60.0122 32.174 60.8335 32.174C61.3282 32.174 61.7295 32.0153 62.0375 31.698C62.3455 31.3807 62.4995 30.9653 62.4995 30.452C62.4995 29.9387 62.3455 29.5653 62.0375 29.332C61.7295 29.0893 61.3702 28.968 60.9595 28.968C60.5489 28.968 60.0449 29.052 59.4475 29.22L59.2515 29.122L59.4475 24.32H63.6475L63.5075 25.65H60.4275L60.3435 27.68C60.6982 27.6147 61.0295 27.582 61.3375 27.582ZM66.2051 34.26H64.8191L68.1231 23.242H69.5091L66.2051 34.26ZM74.4371 33H70.5031V32.888C70.5031 32.496 70.6104 32.2347 70.8251 32.104C70.9091 32.0573 71.0071 32.034 71.1191 32.034L71.9731 32.006V26.07L71.1471 26.322C70.8951 26.406 70.6711 26.3407 70.4751 26.126C70.2884 25.902 70.1997 25.72 70.2091 25.58L72.3931 24.348C72.5891 24.236 72.8224 24.18 73.0931 24.18C73.4664 24.18 73.6531 24.4227 73.6531 24.908V31.978L75.0671 32.062C75.0951 32.118 75.0904 32.2487 75.0531 32.454C74.9691 32.818 74.7637 33 74.4371 33ZM79.3679 25.3C78.2012 25.3 77.6179 26.4807 77.6179 28.842C77.6179 30.018 77.7626 30.858 78.0519 31.362C78.3412 31.8567 78.7752 32.104 79.3539 32.104C79.9419 32.104 80.3526 31.8427 80.5859 31.32C80.8286 30.788 80.9499 29.934 80.9499 28.758C80.9499 27.582 80.8239 26.714 80.5719 26.154C80.3199 25.5847 79.9186 25.3 79.3679 25.3ZM79.3399 24.18C81.4959 24.1053 82.5739 25.6033 82.5739 28.674C82.5739 30.1487 82.2986 31.2733 81.7479 32.048C81.1972 32.8227 80.3852 33.21 79.3119 33.21C78.2386 33.21 77.4172 32.8227 76.8479 32.048C76.2786 31.264 75.9939 30.1673 75.9939 28.758C75.9939 27.3393 76.2786 26.2333 76.8479 25.44C77.4266 24.6373 78.2572 24.2173 79.3399 24.18Z" fill="#C4ABB0"/>
<rect x="1" y="0.5" width="72" height="15" rx="3.5" fill="#E68492" stroke="#DB5063"/>
</svg>
