<svg width="141" height="42" viewBox="0 0 141 42" fill="none" xmlns="http://www.w3.org/2000/svg">
<rect x="1" y="0.5" width="139" height="15" rx="3.5" fill="white" stroke="#DB5063"/>
<path d="M61.321 25.3C60.1544 25.3 59.571 26.4807 59.571 28.842C59.571 30.018 59.7157 30.858 60.005 31.362C60.2944 31.8567 60.7284 32.104 61.307 32.104C61.895 32.104 62.3057 31.8427 62.539 31.32C62.7817 30.788 62.903 29.934 62.903 28.758C62.903 27.582 62.777 26.714 62.525 26.154C62.273 25.5847 61.8717 25.3 61.321 25.3ZM61.293 24.18C63.449 24.1053 64.527 25.6033 64.527 28.674C64.527 30.1487 64.2517 31.2733 63.701 32.048C63.1504 32.8227 62.3384 33.21 61.265 33.21C60.1917 33.21 59.3704 32.8227 58.801 32.048C58.2317 31.264 57.947 30.1673 57.947 28.758C57.947 27.3393 58.2317 26.2333 58.801 25.44C59.3797 24.6373 60.2104 24.2173 61.293 24.18ZM66.6836 34.26H65.2976L68.6016 23.242H69.9876L66.6836 34.26ZM74.9156 33H70.9816V32.888C70.9816 32.496 71.0889 32.2347 71.3036 32.104C71.3876 32.0573 71.4856 32.034 71.5976 32.034L72.4516 32.006V26.07L71.6256 26.322C71.3736 26.406 71.1496 26.3407 70.9536 26.126C70.7669 25.902 70.6782 25.72 70.6876 25.58L72.8716 24.348C73.0676 24.236 73.3009 24.18 73.5716 24.18C73.9449 24.18 74.1316 24.4227 74.1316 24.908V31.978L75.5456 32.062C75.5736 32.118 75.5689 32.2487 75.5316 32.454C75.4476 32.818 75.2422 33 74.9156 33ZM79.8464 25.3C78.6798 25.3 78.0964 26.4807 78.0964 28.842C78.0964 30.018 78.2411 30.858 78.5304 31.362C78.8198 31.8567 79.2538 32.104 79.8324 32.104C80.4204 32.104 80.8311 31.8427 81.0644 31.32C81.3071 30.788 81.4284 29.934 81.4284 28.758C81.4284 27.582 81.3024 26.714 81.0504 26.154C80.7984 25.5847 80.3971 25.3 79.8464 25.3ZM79.8184 24.18C81.9744 24.1053 83.0524 25.6033 83.0524 28.674C83.0524 30.1487 82.7771 31.2733 82.2264 32.048C81.6758 32.8227 80.8638 33.21 79.7904 33.21C78.7171 33.21 77.8958 32.8227 77.3264 32.048C76.7571 31.264 76.4724 30.1673 76.4724 28.758C76.4724 27.3393 76.7571 26.2333 77.3264 25.44C77.9051 24.6373 78.7358 24.2173 79.8184 24.18Z" fill="#C4ABB0"/>
<rect x="1" y="0.5" width="4" height="15" rx="2" fill="#E68492" stroke="#DB5063"/>
</svg>
