<svg width="141" height="42" viewBox="0 0 141 42" fill="none" xmlns="http://www.w3.org/2000/svg">
<rect x="1" y="0.5" width="139" height="15" rx="3.5" fill="white" stroke="#DB5063"/>
<path d="M62.0724 26.154C62.0724 25.51 61.769 25.188 61.1624 25.188C60.7517 25.188 60.4484 25.3233 60.2524 25.594C60.0657 25.8553 59.963 26.168 59.9444 26.532C59.1884 26.532 58.8104 26.238 58.8104 25.65C58.8104 25.2207 59.025 24.8707 59.4544 24.6C59.893 24.32 60.4857 24.18 61.2324 24.18C61.9884 24.18 62.5997 24.3573 63.0664 24.712C63.5424 25.0573 63.7804 25.538 63.7804 26.154C63.7804 27.19 63.1597 27.9087 61.9184 28.31C62.6277 28.3847 63.1924 28.618 63.6124 29.01C64.0417 29.402 64.2564 29.9013 64.2564 30.508C64.2564 31.2547 63.939 31.894 63.3044 32.426C62.679 32.9487 61.8484 33.21 60.8124 33.21C60.0564 33.21 59.4684 33.07 59.0484 32.79C58.6377 32.5007 58.4324 32.1413 58.4324 31.712C58.4324 31.432 58.521 31.1987 58.6984 31.012C58.885 30.816 59.1464 30.718 59.4824 30.718C59.4824 31.138 59.6084 31.4787 59.8604 31.74C60.1217 31.992 60.4764 32.118 60.9244 32.118C61.3724 32.118 61.7457 31.992 62.0444 31.74C62.343 31.4787 62.4877 31.1147 62.4784 30.648C62.469 30.0507 62.2124 29.6447 61.7084 29.43C61.2137 29.2153 60.5977 29.136 59.8604 29.192L59.8464 27.974C60.4717 27.974 61.0224 27.7873 61.4984 27.414C61.881 27.106 62.0724 26.686 62.0724 26.154ZM66.1982 34.26H64.8122L68.1162 23.242H69.5022L66.1982 34.26ZM74.4302 33H70.4962V32.888C70.4962 32.496 70.6036 32.2347 70.8182 32.104C70.9022 32.0573 71.0002 32.034 71.1122 32.034L71.9662 32.006V26.07L71.1402 26.322C70.8882 26.406 70.6642 26.3407 70.4682 26.126C70.2816 25.902 70.1929 25.72 70.2022 25.58L72.3862 24.348C72.5822 24.236 72.8156 24.18 73.0862 24.18C73.4596 24.18 73.6462 24.4227 73.6462 24.908V31.978L75.0602 32.062C75.0882 32.118 75.0836 32.2487 75.0462 32.454C74.9622 32.818 74.7569 33 74.4302 33ZM79.3611 25.3C78.1944 25.3 77.6111 26.4807 77.6111 28.842C77.6111 30.018 77.7557 30.858 78.0451 31.362C78.3344 31.8567 78.7684 32.104 79.3471 32.104C79.9351 32.104 80.3457 31.8427 80.5791 31.32C80.8217 30.788 80.9431 29.934 80.9431 28.758C80.9431 27.582 80.8171 26.714 80.5651 26.154C80.3131 25.5847 79.9117 25.3 79.3611 25.3ZM79.3331 24.18C81.4891 24.1053 82.5671 25.6033 82.5671 28.674C82.5671 30.1487 82.2917 31.2733 81.7411 32.048C81.1904 32.8227 80.3784 33.21 79.3051 33.21C78.2317 33.21 77.4104 32.8227 76.8411 32.048C76.2717 31.264 75.9871 30.1673 75.9871 28.758C75.9871 27.3393 76.2717 26.2333 76.8411 25.44C77.4197 24.6373 78.2504 24.2173 79.3331 24.18Z" fill="#C4ABB0"/>
<rect x="1" y="0.5" width="30" height="15" rx="3.5" fill="#E68492" stroke="#DB5063"/>
</svg>
