<svg width="141" height="42" viewBox="0 0 141 42" fill="none" xmlns="http://www.w3.org/2000/svg">
<rect x="1" y="0.5" width="139" height="15" rx="3.5" fill="white" stroke="#DB5063"/>
<path d="M58.711 24.32H63.863C63.9843 24.5533 64.045 24.838 64.045 25.174L60.601 33.238L58.963 32.678L62.561 25.762H59.691L59.621 26.35C59.6023 26.5273 59.4623 26.6533 59.201 26.728C58.949 26.8027 58.7857 26.8073 58.711 26.742V24.32ZM65.8496 34.26H64.4636L67.7676 23.242H69.1536L65.8496 34.26ZM74.0816 33H70.1476V32.888C70.1476 32.496 70.2549 32.2347 70.4696 32.104C70.5536 32.0573 70.6516 32.034 70.7636 32.034L71.6176 32.006V26.07L70.7916 26.322C70.5396 26.406 70.3156 26.3407 70.1196 26.126C69.9329 25.902 69.8443 25.72 69.8536 25.58L72.0376 24.348C72.2336 24.236 72.4669 24.18 72.7376 24.18C73.1109 24.18 73.2976 24.4227 73.2976 24.908V31.978L74.7116 32.062C74.7396 32.118 74.7349 32.2487 74.6976 32.454C74.6136 32.818 74.4083 33 74.0816 33ZM79.0124 25.3C77.8458 25.3 77.2624 26.4807 77.2624 28.842C77.2624 30.018 77.4071 30.858 77.6964 31.362C77.9858 31.8567 78.4198 32.104 78.9984 32.104C79.5864 32.104 79.9971 31.8427 80.2304 31.32C80.4731 30.788 80.5944 29.934 80.5944 28.758C80.5944 27.582 80.4684 26.714 80.2164 26.154C79.9644 25.5847 79.5631 25.3 79.0124 25.3ZM78.9844 24.18C81.1404 24.1053 82.2184 25.6033 82.2184 28.674C82.2184 30.1487 81.9431 31.2733 81.3924 32.048C80.8418 32.8227 80.0298 33.21 78.9564 33.21C77.8831 33.21 77.0618 32.8227 76.4924 32.048C75.9231 31.264 75.6384 30.1673 75.6384 28.758C75.6384 27.3393 75.9231 26.2333 76.4924 25.44C77.0711 24.6373 77.9018 24.2173 78.9844 24.18Z" fill="#C4ABB0"/>
<rect x="1" y="0.5" width="102" height="15" rx="3.5" fill="#E68492" stroke="#DB5063"/>
</svg>
